<svg id="Group_58" data-name="Group 58" xmlns="http://www.w3.org/2000/svg" width="86.112" height="30.013" viewBox="0 0 86.112 30.013">
  <g id="Group_57" data-name="Group 57">
    <path id="Path_134" data-name="Path 134" d="M2487.921,602.591a2.173,2.173,0,0,1-1.475-.529,1.91,1.91,0,0,1-.609-1.523v-4.906q-.642.9-1.3,1.764a17.792,17.792,0,0,1-1.17,1.411,2.216,2.216,0,0,1-1.459.737,1.877,1.877,0,0,1-1.523-.481,1.933,1.933,0,0,1-.609-1.3,1.523,1.523,0,0,1,.481-1.3q.545-.545,1.267-1.4t1.459-1.8q.737-.945,1.25-1.684h-1.764a1.816,1.816,0,0,1-1.411-.56,1.948,1.948,0,0,1-.513-1.363,1.892,1.892,0,0,1,.513-1.346,1.844,1.844,0,0,1,1.411-.546h3.367v-1.635h-3.784a1.739,1.739,0,0,1-1.331-.529,1.785,1.785,0,0,1-.5-1.267,1.843,1.843,0,0,1,.5-1.283,1.713,1.713,0,0,1,1.331-.546h1.282c-.085-.256-.172-.5-.256-.737s-.15-.417-.192-.546a1.461,1.461,0,0,1,.049-1.025,1.7,1.7,0,0,1,.657-.77h-1.122a1.649,1.649,0,0,1-1.282-.529,1.776,1.776,0,0,1-.48-1.234,1.817,1.817,0,0,1,.48-1.267,1.649,1.649,0,0,1,1.282-.529h3.271v-1.25a1.851,1.851,0,0,1,.657-1.507,2.423,2.423,0,0,1,3.062,0,1.872,1.872,0,0,1,.641,1.507v1.25h2.886a1.687,1.687,0,0,1,1.315.529,1.815,1.815,0,0,1,.481,1.267,1.775,1.775,0,0,1-.481,1.234,1.687,1.687,0,0,1-1.315.529h-.673a1.848,1.848,0,0,1,.656.866,1.587,1.587,0,0,1-.047,1.186,2.263,2.263,0,0,1-.145.465q-.112.273-.24.561h.7a1.662,1.662,0,0,1,1.315.546,1.877,1.877,0,0,1,.482,1.283,1.818,1.818,0,0,1-.482,1.267,1.687,1.687,0,0,1-1.315.529h-3.238v1.635h2.853a1.844,1.844,0,0,1,1.411.546,1.892,1.892,0,0,1,.513,1.346,1.948,1.948,0,0,1-.513,1.363,1.816,1.816,0,0,1-1.411.56h-1.7q.545.61,1.331,1.331a17.263,17.263,0,0,0,1.395,1.17,1.832,1.832,0,0,1,.225,2.694,1.626,1.626,0,0,1-1.331.641,2.073,2.073,0,0,1-1.427-.545q-.224-.256-.593-.625t-.753-.786v5.066a1.936,1.936,0,0,1-.594,1.523A2.158,2.158,0,0,1,2487.921,602.591Zm-.673-20.074h1.314q.16-.48.4-1.122t.369-.962a1.946,1.946,0,0,1,.738-.994H2485.9a2.022,2.022,0,0,1,.3.3,1.493,1.493,0,0,1,.24.432,6.159,6.159,0,0,1,.257.658c.107.31.214.621.321.929A7.683,7.683,0,0,1,2487.249,582.518Zm7.31,19.657a2.538,2.538,0,0,1-1.812.1,1.924,1.924,0,0,1-1.235-1.154,1.867,1.867,0,0,1,.032-1.555,2.253,2.253,0,0,1,1.187-1.042,6.86,6.86,0,0,0,3.238-2.5,8.768,8.768,0,0,0,1.25-4.233,3.073,3.073,0,0,1-1.459-1.651,8.545,8.545,0,0,1-.433-3.03v-8.048a8.192,8.192,0,0,1,.5-3.191,2.928,2.928,0,0,1,1.7-1.6,9.372,9.372,0,0,1,3.287-.465h2.341a9.352,9.352,0,0,1,3.3.465,2.93,2.93,0,0,1,1.683,1.6,8.21,8.21,0,0,1,.5,3.191V587.1a7.571,7.571,0,0,1-.609,3.43,3.128,3.128,0,0,1-2.148,1.54v5.162a.563.563,0,0,0,.129.433.75.75,0,0,0,.48.112.562.562,0,0,0,.5-.208,3.493,3.493,0,0,0,.336-.818,1.593,1.593,0,0,1,.85-1.01,2.175,2.175,0,0,1,1.555-.112,1.912,1.912,0,0,1,1.347,2.245,5.226,5.226,0,0,1-1.46,3.142,4.226,4.226,0,0,1-2.933.994h-.738a6.032,6.032,0,0,1-3.11-.609,2.716,2.716,0,0,1-.962-2.469v-6.573h-.834a12.377,12.377,0,0,1-1.924,6.253A9.575,9.575,0,0,1,2494.559,602.175Zm5.1-22.959h4.649a1.934,1.934,0,0,0-.3-1.283,2.321,2.321,0,0,0-1.524-.321h-.994a2.324,2.324,0,0,0-1.507.321A1.856,1.856,0,0,0,2499.657,579.216Zm0,4.617h4.649v-1.571h-4.649Zm1.828,4.714h.994q1.218,0,1.524-.337a2.073,2.073,0,0,0,.3-1.331h-4.649a2.067,2.067,0,0,0,.3,1.331Q2500.266,588.547,2501.485,588.547Z" transform="translate(-2479.77 -572.578)" fill="#ea97b0"/>
    <path id="Path_135" data-name="Path 135" d="M2553.452,599.419a2.071,2.071,0,0,1-1.627,1.094,2.369,2.369,0,0,1-1.291-.5l-.533-.365q-1.347-.927-2.876-2.006t-3.058-2.175q-1.529-1.094-2.876-2.076t-2.3-1.712a.526.526,0,0,0-.337-.14.607.607,0,0,0-.393.168q-.365.365-1.08,1.067t-1.585,1.514l-1.627,1.572a2.184,2.184,0,0,1-1.516.758,2.575,2.575,0,0,1-1.571-.729l-.253-.225q-1.627-1.4.028-2.721l1.319-1.095q1.066-.842,2.132-1.712t1.908-1.543q.842-.673,1.207-.954a2.07,2.07,0,0,1,1.037-.575l.393-.015a2.407,2.407,0,0,1,1.459.589q.617.421,1.739,1.192t2.567,1.712l3,1.95q1.558,1.01,3.044,1.95t2.75,1.669l.112.084a1.989,1.989,0,0,1,1.052,1.22,2.1,2.1,0,0,1-.519,1.557Z" transform="translate(-2496.353 -577.381)" fill="#ea97b0"/>
    <path id="Path_136" data-name="Path 136" d="M2586.416,603.08a1.81,1.81,0,0,1-.616.112,1.707,1.707,0,0,1-1.46-.954,6.336,6.336,0,0,1-.589-1.206,1.387,1.387,0,0,1-.042-.885,1.283,1.283,0,0,1,.561-.659,5.393,5.393,0,0,1,1.192-.533,13.581,13.581,0,0,0,2.384-1.066,8.083,8.083,0,0,0,3-2.863,6.868,6.868,0,0,0,.926-3.451,7.482,7.482,0,0,0-1.6-4.812,7.323,7.323,0,0,0-4.545-2.567,43.239,43.239,0,0,1-1.137,6.65,30.267,30.267,0,0,1-1.921,5.471,13.488,13.488,0,0,1-2.455,3.7,3.9,3.9,0,0,1-2.764,1.347A4.609,4.609,0,0,1,2575,600.7a7.335,7.335,0,0,1-2.091-1.894,9.558,9.558,0,0,1-1.487-2.9,11.933,11.933,0,0,1-.547-3.7,11.655,11.655,0,0,1,.871-4.475,11.094,11.094,0,0,1,2.552-3.76,12.2,12.2,0,0,1,4.11-2.6,14.994,14.994,0,0,1,5.514-.953,13.717,13.717,0,0,1,5.275.94,11.14,11.14,0,0,1,3.816,2.539,10.886,10.886,0,0,1,2.328,3.591,11.073,11.073,0,0,1,.786,4.1v.084a10.477,10.477,0,0,1-2.834,7.435A15.32,15.32,0,0,1,2586.416,603.08Zm-9.343-6.481q.393,0,1.01-.911a13.754,13.754,0,0,0,1.277-2.582,34.148,34.148,0,0,0,1.249-3.942,39,39,0,0,0,.926-4.994,7.862,7.862,0,0,0-3.661,1.6,7.674,7.674,0,0,0-2.2,2.862,8.473,8.473,0,0,0-.729,3.451,7.119,7.119,0,0,0,.646,3.269Q2576.231,596.6,2577.073,596.6Z" transform="translate(-2510.013 -575.178)" fill="#ea97b0"/>
  </g>
</svg>
