<svg xmlns="http://www.w3.org/2000/svg" width="151.25" height="77.031" viewBox="0 0 151.25 77.031">
  <g id="Group_171" data-name="Group 171" opacity="0.303">
    <path id="Path_163" data-name="Path 163" d="M2421.539,475.621a5.573,5.573,0,0,1-5.574-5.574V419.264a5.574,5.574,0,0,1-5.163-9.38l6.8-6.8a5.573,5.573,0,0,1,9.514,3.941v63.017A5.573,5.573,0,0,1,2421.539,475.621Z" transform="translate(-2409.169 -400.025)" fill="#f7adc3"/>
    <g id="Group_68" data-name="Group 68" transform="translate(50.565 26.064)">
      <path id="Path_164" data-name="Path 164" d="M2500.5,451.164a1,1,0,0,1-.985-.859,3.944,3.944,0,0,1,7.059-3.215,1,1,0,0,1-1.5,1.309,1.978,1.978,0,0,0-3.587,1.633,1,1,0,0,1-.849,1.122A.967.967,0,0,1,2500.5,451.164Z" transform="translate(-2499.468 -445.444)" fill="#f7adc3"/>
    </g>
    <g id="Group_69" data-name="Group 69" transform="translate(63.336 23.115)">
      <path id="Path_165" data-name="Path 165" d="M2529.117,444.747a.994.994,0,0,1-.959-.731,2.26,2.26,0,0,0-1.932-1.847h-.033a2.275,2.275,0,0,0-1.977,1.763.995.995,0,1,1-1.894-.611,4.229,4.229,0,0,1,3.871-3.142h.075a4.213,4.213,0,0,1,3.808,3.307.994.994,0,0,1-.7,1.224A.96.96,0,0,1,2529.117,444.747Z" transform="translate(-2522.275 -440.179)" fill="#f7adc3"/>
    </g>
    <g id="Group_70" data-name="Group 70" transform="translate(58.768 37.186)">
      <path id="Path_166" data-name="Path 166" d="M2519.148,471.711a5.768,5.768,0,0,1-4.909-3.206,1,1,0,1,1,1.746-.955,3.2,3.2,0,0,0,6.211-1.327,1,1,0,0,1,1.985.158,5.547,5.547,0,0,1-4.081,5.23A4.536,4.536,0,0,1,2519.148,471.711Z" transform="translate(-2514.117 -465.307)" fill="#f7adc3"/>
    </g>
    <g id="Group_71" data-name="Group 71" transform="translate(21.459)">
      <path id="Path_167" data-name="Path 167" d="M2507.886,461.639a8.111,8.111,0,0,1-1.025-1.2c-.777-.927-1.534-1.887-2.284-2.878A27.4,27.4,0,1,1,2486,410.014c13.464,0,24.969,8.55,30.85,22.131a30.63,30.63,0,0,1,8.216-8.491,49.963,49.963,0,0,0-9.757-12.857A42.609,42.609,0,0,0,2486,398.9a38.516,38.516,0,1,0,25.956,66.974Q2509.873,463.916,2507.886,461.639Z" transform="translate(-2447.49 -398.9)" fill="#f7adc3"/>
    </g>
    <g id="Group_75" data-name="Group 75" transform="translate(106.021 41.017)">
      <g id="Group_72" data-name="Group 72">
        <path id="Path_168" data-name="Path 168" d="M2602.615,475.449a.759.759,0,0,1-.754-.681.98.98,0,0,0-1.923-.361.759.759,0,1,1-1.35-.7,2.478,2.478,0,0,1,4.783.9.759.759,0,0,1-.677.834C2602.668,475.446,2602.641,475.449,2602.615,475.449Z" transform="translate(-2598.503 -472.148)" fill="#89c3eb"/>
      </g>
      <g id="Group_73" data-name="Group 73" transform="translate(8.142 1.794)">
        <path id="Path_169" data-name="Path 169" d="M2617.46,479.549a.712.712,0,0,1-.133-.012.758.758,0,0,1-.616-.879,1.321,1.321,0,0,0-2.355-1.18.759.759,0,1,1-1.106-1.04,2.821,2.821,0,0,1,4.957,2.484A.758.758,0,0,1,2617.46,479.549Z" transform="translate(-2613.043 -475.352)" fill="#89c3eb"/>
      </g>
      <g id="Group_74" data-name="Group 74" transform="translate(1.264 7.637)">
        <path id="Path_170" data-name="Path 170" d="M2604.653,490.867a3.52,3.52,0,0,1-.868-.108,4.313,4.313,0,0,1-3.024-4.181.759.759,0,1,1,1.517-.067,2.514,2.514,0,0,0,4.846,1.221.759.759,0,1,1,1.305.776A4.517,4.517,0,0,1,2604.653,490.867Z" transform="translate(-2600.76 -485.787)" fill="#89c3eb"/>
      </g>
    </g>
    <path id="Path_171" data-name="Path 171" d="M2640.911,426.439a2.126,2.126,0,0,1-2.121,2.121h-2.539V431.1a1.88,1.88,0,0,1-.085.575,2.118,2.118,0,0,1-4.157-.575V428.56h-2.539a2.121,2.121,0,1,1,0-4.242h2.539v-2.539a2.121,2.121,0,0,1,4.242,0v2.539h2.539A2.121,2.121,0,0,1,2640.911,426.439Z" transform="translate(-2505.174 -408.034)" fill="#89c3eb"/>
    <path id="Path_172" data-name="Path 172" d="M2660.2,418.91v12.367a2.121,2.121,0,1,1-4.242,0v-8.856a2.121,2.121,0,0,1-1.886-3.8l3.022-1.593a2.118,2.118,0,0,1,3.106,1.88Z" transform="translate(-2516.433 -406.771)" fill="#89c3eb"/>
    <g id="Group_76" data-name="Group 76" transform="translate(122.175 10.016)">
      <path id="Path_173" data-name="Path 173" d="M2638.79,424.318h-2.539v-2.539a2.121,2.121,0,0,0-4.242,0v2.539h-2.539a2.121,2.121,0,1,0,0,4.242h2.539V431.1a2.118,2.118,0,0,0,4.157.575,1.88,1.88,0,0,0,.085-.575V428.56h2.539a2.121,2.121,0,0,0,0-4.242Z" transform="translate(-2627.349 -418.051)" fill="#fff"/>
      <path id="Path_174" data-name="Path 174" d="M2659.172,417.09a2.132,2.132,0,0,0-2.082-.059l-3.022,1.593a2.121,2.121,0,0,0,1.886,3.8v8.856a2.121,2.121,0,1,0,4.242,0V418.91A2.134,2.134,0,0,0,2659.172,417.09Z" transform="translate(-2638.608 -416.787)" fill="#fff"/>
    </g>
    <g id="Group_77" data-name="Group 77" transform="translate(74.78 1.618)">
      <path id="Path_175" data-name="Path 175" d="M2584.314,505.877c-.121-.093-.242-.183-.362-.278C2584.072,505.694,2584.193,505.784,2584.314,505.877Z" transform="translate(-2560.858 -447.469)" fill="none"/>
      <path id="Path_176" data-name="Path 176" d="M2605.247,516.415c-.2-.049-.407-.1-.611-.157C2604.839,516.311,2605.042,516.367,2605.247,516.415Z" transform="translate(-2569.96 -452.159)" fill="none"/>
      <path id="Path_177" data-name="Path 177" d="M2581.73,503.749c-.128-.11-.256-.223-.384-.335C2581.475,503.525,2581.6,503.639,2581.73,503.749Z" transform="translate(-2559.712 -446.507)" fill="none"/>
      <path id="Path_178" data-name="Path 178" d="M2579.686,501.915c-.128-.118-.256-.236-.384-.356C2579.43,501.679,2579.557,501.8,2579.686,501.915Z" transform="translate(-2558.812 -445.691)" fill="none"/>
      <path id="Path_179" data-name="Path 179" d="M2586.469,507.5c-.168-.12-.337-.24-.5-.363C2586.132,507.256,2586.3,507.376,2586.469,507.5Z" transform="translate(-2561.744 -448.144)" fill="none"/>
      <path id="Path_180" data-name="Path 180" d="M2608.224,517.061c-.227-.04-.455-.079-.681-.124C2607.769,516.982,2608,517.021,2608.224,517.061Z" transform="translate(-2571.239 -452.458)" fill="none"/>
      <path id="Path_181" data-name="Path 181" d="M2593.518,511.89c-.193-.1-.387-.2-.58-.3C2593.131,511.69,2593.324,511.789,2593.518,511.89Z" transform="translate(-2564.813 -450.103)" fill="none"/>
      <path id="Path_182" data-name="Path 182" d="M2595.651,512.96q-.3-.139-.6-.288Q2595.35,512.82,2595.651,512.96Z" transform="translate(-2565.742 -450.581)" fill="none"/>
      <path id="Path_183" data-name="Path 183" d="M2588.546,508.933c-.176-.115-.352-.234-.527-.352C2588.194,508.7,2588.37,508.818,2588.546,508.933Z" transform="translate(-2562.648 -448.781)" fill="none"/>
      <path id="Path_184" data-name="Path 184" d="M2577.443,499.761c.062.063.125.12.188.182-.062-.062-.125-.121-.187-.184Z" transform="translate(-2557.994 -444.899)" fill="none"/>
      <path id="Path_185" data-name="Path 185" d="M2600.809,515.085c-.2-.069-.4-.136-.6-.209C2600.405,514.949,2600.607,515.016,2600.809,515.085Z" transform="translate(-2568.01 -451.551)" fill="none"/>
      <path id="Path_186" data-name="Path 186" d="M2591,510.472q-.385-.223-.767-.459Q2590.619,510.248,2591,510.472Z" transform="translate(-2563.624 -449.411)" fill="none"/>
      <path id="Path_187" data-name="Path 187" d="M2603.019,515.8q-.314-.091-.626-.189Q2602.7,515.711,2603.019,515.8Z" transform="translate(-2568.973 -451.875)" fill="none"/>
      <path id="Path_188" data-name="Path 188" d="M2597.813,513.931c-.194-.079-.386-.167-.579-.251C2597.426,513.764,2597.619,513.851,2597.813,513.931Z" transform="translate(-2566.703 -451.025)" fill="none"/>
      <path id="Path_189" data-name="Path 189" d="M2638.79,424.318h-2.539v-2.539a2.121,2.121,0,0,0-4.242,0v2.539h-2.539a2.121,2.121,0,1,0,0,4.242h2.539V431.1a2.118,2.118,0,0,0,4.157.575,1.88,1.88,0,0,0,.085-.575V428.56h2.539a2.121,2.121,0,0,0,0-4.242Z" transform="translate(-2579.955 -409.652)" fill="none"/>
      <path id="Path_190" data-name="Path 190" d="M2562.57,480.7c-.086-.136-.171-.275-.257-.412C2562.4,480.427,2562.484,480.566,2562.57,480.7Z" transform="translate(-2551.337 -436.332)" fill="none"/>
      <path id="Path_191" data-name="Path 191" d="M2553.262,472a5.145,5.145,0,0,0-.7-.1A5.145,5.145,0,0,1,2553.262,472Z" transform="translate(-2547.045 -432.64)" fill="none"/>
      <path id="Path_192" data-name="Path 192" d="M2660.2,431.278V418.91a2.118,2.118,0,0,0-3.106-1.88l-3.022,1.593a2.121,2.121,0,0,0,1.886,3.8v8.856a2.121,2.121,0,1,0,4.242,0Z" transform="translate(-2591.213 -408.389)" fill="none"/>
      <path id="Path_193" data-name="Path 193" d="M2612.935,517.706c-.2-.016-.405-.037-.607-.057C2612.53,517.669,2612.732,517.69,2612.935,517.706Z" transform="translate(-2573.345 -452.771)" fill="none"/>
      <path id="Path_194" data-name="Path 194" d="M2565.058,484.53l0-.007c-.068-.1-.137-.2-.205-.3C2564.924,484.321,2564.99,484.429,2565.058,484.53Z" transform="translate(-2552.456 -438.061)" fill="none"/>
      <path id="Path_195" data-name="Path 195" d="M2610.627,517.447c-.207-.026-.413-.053-.619-.083C2610.214,517.394,2610.421,517.421,2610.627,517.447Z" transform="translate(-2572.324 -452.646)" fill="none"/>
      <path id="Path_196" data-name="Path 196" d="M2585.522,420.224c-.269,1.7-1.522,2.448-3.26,2.5l.111.039a25.905,25.905,0,0,0-14.052,4.849,28.157,28.157,0,0,0-8.223,9.294,32.722,32.722,0,0,0-2.917,7.029c-.12.42-.248.815-.381,1.191a57.658,57.658,0,0,0,7.077,9.043,27.055,27.055,0,0,0,2.734-5.607c.2-.561.392-1.142.568-1.762a20.541,20.541,0,0,1,4.869-8.667,15.853,15.853,0,0,1,11.506-5,16.785,16.785,0,0,1,17.157,17.165,16.172,16.172,0,0,1-5.071,11.7,16.8,16.8,0,0,1-12.1,4.8c-.132,0-.261-.017-.392-.024-.283-.014-.565-.029-.846-.052-.2-.016-.405-.037-.607-.057-.227-.023-.453-.048-.68-.076-.207-.026-.413-.053-.619-.083-.234-.035-.467-.075-.7-.115s-.455-.079-.682-.124q-.51-.1-1.017-.223c-.2-.049-.407-.1-.61-.157s-.421-.112-.63-.172-.418-.123-.626-.189-.414-.134-.621-.2-.4-.135-.6-.208c-.364-.133-.725-.272-1.085-.419-.194-.08-.386-.166-.578-.251-.207-.09-.415-.181-.621-.277s-.4-.189-.6-.288-.4-.2-.6-.3-.387-.2-.579-.3c-.25-.135-.5-.278-.746-.422s-.512-.3-.767-.459c-.239-.147-.478-.3-.715-.45-.177-.115-.352-.234-.527-.352-.216-.147-.432-.3-.646-.448-.169-.12-.337-.24-.5-.363-.256-.188-.511-.384-.766-.581-.12-.093-.241-.183-.361-.278-.36-.287-.719-.584-1.076-.889-.128-.11-.255-.223-.383-.335q-.382-.334-.762-.683c-.128-.118-.256-.236-.383-.356q-.429-.4-.853-.824c-.063-.062-.126-.119-.188-.182v0a58.055,58.055,0,0,1-6.844-8.4l0,.007c-.068-.1-.135-.208-.2-.31q-.589-.875-1.168-1.789c-.086-.136-.171-.274-.256-.412-.433-.694-.864-1.4-1.288-2.129a5.2,5.2,0,0,0-7.11-1.871v0a5.2,5.2,0,0,0-1.866,7.113,81.051,81.051,0,0,0,5.149,7.818q1.243,1.684,2.545,3.231a5.286,5.286,0,0,0,.829.966q1.958,2.251,4.021,4.19c8.08,7.643,17.282,11.773,27.209,12.126.3.007.594.013.894.013a27.265,27.265,0,0,0,18.8-7.727,26.5,26.5,0,0,0,8.243-19.175,27.932,27.932,0,0,0-3.087-12.877,2.9,2.9,0,0,1,1.423-3.5c.091-.066.183-.117.268-.17h-.014a16.827,16.827,0,1,0-24.174-15.141A12.769,12.769,0,0,1,2585.522,420.224Zm16.025.473h-2.538v2.538a1.873,1.873,0,0,1-.085.575,2.118,2.118,0,0,1-4.157-.575V420.7h-2.539a2.121,2.121,0,0,1,0-4.242h2.539v-2.539a2.121,2.121,0,0,1,4.242,0v2.539h2.538a2.121,2.121,0,0,1,0,4.242Zm10.149,3.981a2.121,2.121,0,0,1-4.242,0v-8.856a2.121,2.121,0,0,1-1.886-3.8l3.022-1.593a2.118,2.118,0,0,1,3.107,1.88Z" transform="translate(-2542.712 -401.79)" fill="#89c3eb"/>
      <path id="Path_197" data-name="Path 197" d="M2609.459,517.273c-.234-.035-.466-.075-.7-.115C2608.992,517.2,2609.225,517.239,2609.459,517.273Z" transform="translate(-2571.775 -452.555)" fill="#fff"/>
      <path id="Path_198" data-name="Path 198" d="M2599.352,514.547q-.545-.2-1.085-.419Q2598.806,514.35,2599.352,514.547Z" transform="translate(-2567.157 -451.222)" fill="#fff"/>
      <path id="Path_199" data-name="Path 199" d="M2601.9,515.453c-.208-.065-.414-.134-.62-.2C2601.49,515.318,2601.7,515.388,2601.9,515.453Z" transform="translate(-2568.485 -451.715)" fill="#fff"/>
      <path id="Path_200" data-name="Path 200" d="M2611.794,517.589c-.227-.023-.453-.048-.68-.076C2611.34,517.541,2611.566,517.566,2611.794,517.589Z" transform="translate(-2572.811 -452.711)" fill="#fff"/>
      <path id="Path_201" data-name="Path 201" d="M2606.744,516.762q-.511-.1-1.018-.223Q2606.233,516.66,2606.744,516.762Z" transform="translate(-2570.44 -452.283)" fill="#fff"/>
      <path id="Path_202" data-name="Path 202" d="M2614.258,517.8c-.283-.014-.565-.029-.846-.052C2613.693,517.773,2613.975,517.789,2614.258,517.8Z" transform="translate(-2573.822 -452.816)" fill="#fff"/>
      <path id="Path_203" data-name="Path 203" d="M2604.141,516.122c-.21-.055-.42-.112-.63-.172C2603.72,516.01,2603.931,516.067,2604.141,516.122Z" transform="translate(-2569.465 -452.024)" fill="#fff"/>
      <path id="Path_204" data-name="Path 204" d="M2592.353,511.254c-.249-.136-.5-.278-.746-.422C2591.855,510.975,2592.1,511.118,2592.353,511.254Z" transform="translate(-2564.227 -449.772)" fill="#fff"/>
      <path id="Path_205" data-name="Path 205" d="M2563.938,482.814c-.393-.584-.782-1.178-1.167-1.789Q2563.349,481.941,2563.938,482.814Z" transform="translate(-2551.538 -436.656)" fill="#fff"/>
      <path id="Path_206" data-name="Path 206" d="M2578.632,500.911q-.428-.4-.853-.824Q2578.2,500.508,2578.632,500.911Z" transform="translate(-2558.142 -445.043)" fill="#fff"/>
      <path id="Path_207" data-name="Path 207" d="M2580.748,502.878q-.382-.335-.761-.683Q2580.367,502.544,2580.748,502.878Z" transform="translate(-2559.114 -445.971)" fill="#fff"/>
      <path id="Path_208" data-name="Path 208" d="M2596.746,513.463c-.208-.09-.415-.181-.622-.277C2596.331,513.282,2596.538,513.372,2596.746,513.463Z" transform="translate(-2566.215 -450.807)" fill="#fff"/>
      <path id="Path_209" data-name="Path 209" d="M2550.252,471.892a5.177,5.177,0,0,0-2.937.7h0v0A5.174,5.174,0,0,1,2550.252,471.892Z" transform="translate(-2544.737 -432.632)" fill="#fff"/>
      <path id="Path_210" data-name="Path 210" d="M2553.812,472.072a5.183,5.183,0,0,1,3.473,2.473c.424.729.855,1.435,1.288,2.129-.432-.695-.862-1.4-1.284-2.13A5.188,5.188,0,0,0,2553.812,472.072Z" transform="translate(-2547.596 -432.716)" fill="#fff"/>
      <path id="Path_211" data-name="Path 211" d="M2594.576,512.433q-.3-.148-.6-.3Q2594.274,512.284,2594.576,512.433Z" transform="translate(-2565.268 -450.342)" fill="#fff"/>
      <path id="Path_212" data-name="Path 212" d="M2589.675,509.66c-.239-.147-.478-.3-.715-.45C2589.2,509.364,2589.436,509.512,2589.675,509.66Z" transform="translate(-2563.062 -449.058)" fill="#fff"/>
      <path id="Path_213" data-name="Path 213" d="M2587.511,508.229c-.215-.147-.431-.3-.646-.448C2587.079,507.933,2587.3,508.082,2587.511,508.229Z" transform="translate(-2562.14 -448.429)" fill="#fff"/>
      <path id="Path_214" data-name="Path 214" d="M2583.107,504.9q-.54-.431-1.075-.889C2582.388,504.316,2582.747,504.614,2583.107,504.9Z" transform="translate(-2560.013 -446.771)" fill="#fff"/>
      <path id="Path_215" data-name="Path 215" d="M2585.364,506.676c-.257-.189-.511-.384-.766-.581C2584.852,506.293,2585.106,506.488,2585.364,506.676Z" transform="translate(-2561.143 -447.687)" fill="#fff"/>
    </g>
  </g>
</svg>
