<svg xmlns="http://www.w3.org/2000/svg" width="226.567" height="297.216" viewBox="0 0 226.567 297.216">
  <g id="Group_180" data-name="Group 180" transform="translate(129.567 -1231.767)">
    <path id="Path_233" data-name="Path 233" d="M89.406,32.784C99.177,66.407,79.5,94.657,83,129s27.846,38.159,21.639,60.619S73.052,219.794,58.173,218.84C30.2,217.047,4.338,165.375.4,103.427c-1.889-29.735,2.341-80.04,24.592-97.7S84.326,15.3,89.406,32.784Z" transform="translate(-52.302 1528.984) rotate(-137)" fill="#d4dbec"/>
    <path id="Path_232" data-name="Path 232" d="M87.975,29.531C94.49,64.33,73.491,96.078,73.993,132.2s23.3,37.985,15.566,62.377-32.464,34.864-46.512,35.191C16.64,230.388-3.672,177.885-2.322,112.5-1.675,81.122,6.472,27.36,29.046,6.617S84.588,11.436,87.975,29.531Z" transform="matrix(0.985, -0.174, 0.174, 0.985, -60.033, 1248.699)" fill="#fad4de"/>
  </g>
</svg>
