<svg xmlns="http://www.w3.org/2000/svg" viewBox="0 0 288.78 56.25"><defs><style>.cls-1{fill:#888;}.cls-2{fill:#89c3eb;}.cls-3{fill:#fff;}</style></defs><g id="Layer_2" data-name="Layer 2"><g id="レイヤー_1" data-name="レイヤー 1"><path class="cls-1" d="M175.47,49.94a2.29,2.29,0,0,1-3.11-1.45,11.68,11.68,0,0,1-.88-2.08,2.66,2.66,0,0,1-.06-1.52,2.1,2.1,0,0,1,.84-1.13,7.66,7.66,0,0,1,1.78-.92A18.59,18.59,0,0,0,177.61,41a12.94,12.94,0,0,0,4.49-4.92,13.09,13.09,0,0,0,1.39-5.93,14.2,14.2,0,0,0-2.39-8.28,10.74,10.74,0,0,0-6.81-4.41,83.16,83.16,0,0,1-1.7,11.43,56.58,56.58,0,0,1-2.87,9.41A23.78,23.78,0,0,1,166,44.68,5.57,5.57,0,0,1,161.91,47a6.25,6.25,0,0,1-3.53-1.15,11.8,11.8,0,0,1-3.13-3.26,17.46,17.46,0,0,1-2.22-5,23.23,23.23,0,0,1-.82-6.37,22.68,22.68,0,0,1,1.3-7.7,19.5,19.5,0,0,1,3.82-6.46,18.11,18.11,0,0,1,6.15-4.46A19.73,19.73,0,0,1,171.73,11a18.18,18.18,0,0,1,7.9,1.61,16.75,16.75,0,0,1,5.71,4.37,19.11,19.11,0,0,1,3.48,6.17A21.42,21.42,0,0,1,190,30.16v.14a19.66,19.66,0,0,1-4.24,12.79A22.65,22.65,0,0,1,175.47,49.94Zm-14-11.15c.39,0,.89-.52,1.51-1.57a24.87,24.87,0,0,0,1.91-4.43A66.15,66.15,0,0,0,166.78,26a74.68,74.68,0,0,0,1.38-8.59,11.07,11.07,0,0,0-5.47,2.75,13.11,13.11,0,0,0-3.3,4.92A16.4,16.4,0,0,0,158.3,31a14,14,0,0,0,1,5.63C159.91,38.08,160.65,38.79,161.49,38.79Z"/><path class="cls-1" d="M195.79,25a3.31,3.31,0,0,1-1.17-2.15,3.22,3.22,0,0,1,.5-2.43,24.49,24.49,0,0,0,2.57-5.15,22.86,22.86,0,0,0,1.12-5.71A6.83,6.83,0,0,1,200.3,5.4a6,6,0,0,1,3.89-1.6c1.28-.11,2.67-.3,4.17-.58s2.8-.54,3.89-.8a2.6,2.6,0,0,1,2.11.36,2.64,2.64,0,0,1,1.15,1.9,3.25,3.25,0,0,1-.31,2.26,2.52,2.52,0,0,1-1.65,1.27c-.9.18-2,.38-3.17.58s-2.32.34-3.31.41a2.08,2.08,0,0,0-2,1.27h10.32a2.12,2.12,0,0,1,1.77.8,3.07,3.07,0,0,1,.63,2,3.09,3.09,0,0,1-.63,2,2.11,2.11,0,0,1-1.77.79h-2.5v2a3.68,3.68,0,0,1-.93,2.67,3.06,3.06,0,0,1-2.28,1,3,3,0,0,1-2.28-1,3.64,3.64,0,0,1-.94-2.67V16h-2.4a26.37,26.37,0,0,1-1.61,4.5,20.72,20.72,0,0,1-2.08,3.61,3.87,3.87,0,0,1-2.16,1.52A2.9,2.9,0,0,1,195.79,25Zm6.58,28.78a3.51,3.51,0,0,1-2.74-.11,3.08,3.08,0,0,1-1.54-2,4.42,4.42,0,0,1,.08-2.7,2.53,2.53,0,0,1,1.89-1.65c1-.3,2.26-.7,3.72-1.22s2.79-1,4-1.6a5.72,5.72,0,0,1-4.25-2.15c-.82-1.17-1.22-3.07-1.22-5.67V29.88a12.55,12.55,0,0,1,.74-4.83,4.5,4.5,0,0,1,2.47-2.45,12.34,12.34,0,0,1,4.66-.72h6.33a2.76,2.76,0,0,1-1-2.09,3,3,0,0,1,.69-2.21,12.53,12.53,0,0,0,2-3.69,17.08,17.08,0,0,0,.8-4.52,6,6,0,0,1,1.39-4,5.46,5.46,0,0,1,3.64-1.54c.9-.08,1.89-.2,3-.36s2.18-.36,3.29-.58,2.08-.42,3-.61a3,3,0,0,1,2.18.28,2.33,2.33,0,0,1,1.18,1.82,3.85,3.85,0,0,1-.27,2.39,2.37,2.37,0,0,1-1.75,1.3c-1.09.26-2.34.49-3.77.69s-2.63.34-3.62.41a3.28,3.28,0,0,0-1.29.39,1.77,1.77,0,0,0-.68.88h12.34a2.13,2.13,0,0,1,1.77.8,3.06,3.06,0,0,1,.62,2,3.08,3.08,0,0,1-.62,2,2.13,2.13,0,0,1-1.77.79h-4.23v2.43a3.61,3.61,0,0,1-.93,2.65,3.13,3.13,0,0,1-2.28.93,3.1,3.1,0,0,1-2.28-.93,3.62,3.62,0,0,1-.94-2.65V16H224.2a18.47,18.47,0,0,1-1.27,3.12,15,15,0,0,1-1.66,2.51l-.1.14a.35.35,0,0,1-.14.13h4.56a12.35,12.35,0,0,1,4.68.72,4.48,4.48,0,0,1,2.44,2.45,12.52,12.52,0,0,1,.75,4.83v6.84c0,2.6-.41,4.5-1.23,5.67A5.69,5.69,0,0,1,228,44.54c1.21.56,2.55,1.09,4,1.6s2.67.92,3.67,1.22A2.57,2.57,0,0,1,237.61,49a4.42,4.42,0,0,1,.07,2.7,3.1,3.1,0,0,1-1.53,2,3.51,3.51,0,0,1-2.74.11c-1-.33-2.12-.77-3.38-1.3s-2.49-1.09-3.67-1.68-2.19-1.1-3-1.54a2.75,2.75,0,0,1-1.46-1.91,4.13,4.13,0,0,1,.31-2.4l.15-.33h-8.88l.14.33a4,4,0,0,1,.31,2.4,2.75,2.75,0,0,1-1.46,1.91c-.8.44-1.8,1-3,1.54S207,52,205.75,52.51,203.36,53.48,202.37,53.81Zm6.9-19.74H226.5V32.63H209.27Zm2.5,5.57H224a4.31,4.31,0,0,0,1.89-.28c.34-.18.52-.62.55-1.32H209.27q.1,1.05.63,1.32A4.29,4.29,0,0,0,211.77,39.64ZM209.32,28.5h17.13c-.06-.7-.26-1.13-.6-1.3A4.78,4.78,0,0,0,224,27H211.77a4.84,4.84,0,0,0-1.85.24C209.59,27.37,209.39,27.8,209.32,28.5Z"/><path class="cls-1" d="M250.06,53.92a3.11,3.11,0,0,1-2.37-1.05,3.93,3.93,0,0,1-1-2.81V12c0-3.08.63-5.26,1.87-6.53s3.31-1.9,6.19-1.9h3.6q4.32,0,6.19,1.9T266.42,12v3a11.26,11.26,0,0,1-.81,4.77A4.56,4.56,0,0,1,263,22.16a13.67,13.67,0,0,1-4.66.66h-5V50.06a4,4,0,0,1-1,2.81A3.06,3.06,0,0,1,250.06,53.92Zm3.31-36.78h4.22a4,4,0,0,0,1.88-.3c.32-.2.49-.71.52-1.52h-6.62Zm0-6.17H260a1.8,1.8,0,0,0-.53-1.44,3.51,3.51,0,0,0-1.83-.33h-1.82a3.38,3.38,0,0,0-1.8.33A1.94,1.94,0,0,0,253.42,11Zm14,34a14.23,14.23,0,0,1-5.71-.93,5.49,5.49,0,0,1-2.9-3,14.05,14.05,0,0,1-.84-5.29,13.87,13.87,0,0,1,.84-5.27,5.51,5.51,0,0,1,2.9-3,17.81,17.81,0,0,1,11.42,0,5.49,5.49,0,0,1,2.91,3,13.87,13.87,0,0,1,.84,5.27,14.05,14.05,0,0,1-.84,5.29,5.48,5.48,0,0,1-2.91,3A14.2,14.2,0,0,1,267.38,45Zm0-6.23a3.24,3.24,0,0,0,2.21-.55,3.4,3.4,0,0,0,.58-2.37,3.52,3.52,0,0,0-.58-2.42,4.7,4.7,0,0,0-4.41,0,3.47,3.47,0,0,0-.58,2.42,3.35,3.35,0,0,0,.58,2.37A3.23,3.23,0,0,0,267.38,38.75Zm13.77,14.89a3.5,3.5,0,0,1-2.68-1,4.48,4.48,0,0,1-1.11-2.78A4,4,0,0,1,278,47a3.36,3.36,0,0,1,2.2-1.48c.9-.19,1.44-.44,1.64-.78a3.67,3.67,0,0,0,.28-1.7V22.82H277a13.57,13.57,0,0,1-4.65-.66,4.61,4.61,0,0,1-2.62-2.34,10.9,10.9,0,0,1-.84-4.77v-3c0-3.09.63-5.27,1.9-6.56S274.1,3.58,277,3.58h3.69q4.32,0,6.22,1.93c1.26,1.29,1.89,3.47,1.89,6.56V45.26c0,2.9-.6,5-1.82,6.37S283.81,53.64,281.15,53.64ZM275.35,11h6.72c0-.74-.22-1.21-.56-1.41a3.77,3.77,0,0,0-1.8-.3h-2a3.81,3.81,0,0,0-1.83.3Q275.44,9.86,275.35,11Zm2.4,6.17h4.36V15.32h-6.76c.06.81.25,1.32.57,1.52A3.81,3.81,0,0,0,277.75,17.14Z"/><path class="cls-1" d="M79.46,5.48A15,15,0,0,0,68.05,0h-.18a14.89,14.89,0,0,0-11.6,5.49,22.42,22.42,0,0,0-3,4.42,22.83,22.83,0,0,0-3-4.43A14.94,14.94,0,0,0,38.86,0h-.38A15,15,0,0,0,27.07,5.48c-4.49,5.12-6.93,13.18-6.87,22.61s2.38,17.55,6.87,22.67a14.94,14.94,0,0,0,11.42,5.49h.36a15,15,0,0,0,11.42-5.49,22.86,22.86,0,0,0,3-4.42,22,22,0,0,0,3,4.42,14.94,14.94,0,0,0,11.42,5.49h.18a15.05,15.05,0,0,0,11.6-5.49c4.48-5.11,6.92-13.15,6.86-22.63S84,10.6,79.46,5.48ZM48.34,28.16c0,6.66-1.52,12.29-4.27,15.43a6.81,6.81,0,0,1-5.23,2.55h-.35a6.79,6.79,0,0,1-5.22-2.55C30.52,40.45,29,34.82,29,28.09s1.52-12.29,4.27-15.43a6.81,6.81,0,0,1,5.22-2.55h.24a6.68,6.68,0,0,1,5.33,2.55c2.76,3.14,4.32,8.77,4.28,15.43v.07Zm29.2,0c0,6.66-1.52,12.29-4.27,15.43a6.9,6.9,0,0,1-5.34,2.55h-.24a6.79,6.79,0,0,1-5.22-2.55c-2.76-3.14-4.31-8.77-4.27-15.5s1.52-12.29,4.27-15.43a6.79,6.79,0,0,1,5.22-2.55h.24a6.67,6.67,0,0,1,5.33,2.55c2.76,3.14,4.32,8.77,4.28,15.43v.07Z"/><path class="cls-1" d="M9.26,55.43H9.2c-2.43,0-4.37-2.34-4.34-5.13l.43-36.41a4.24,4.24,0,0,1-4.78-2.6A5.46,5.46,0,0,1,2.35,4.46L7.73,1.21a3.92,3.92,0,0,1,4.35.16,5.3,5.3,0,0,1,2.1,4.38l-.52,44.69C13.63,53.21,11.67,55.43,9.26,55.43Z"/><ellipse class="cls-2" cx="118.25" cy="28.13" rx="27.51" ry="28.13"/><path class="cls-3" d="M117.17,24.32H113V20a3.87,3.87,0,1,0-7.73,0v4.3H101a4,4,0,0,0,0,7.9h4.2v4.3a3.87,3.87,0,1,0,7.73,0v-4.3h4.21a4,4,0,0,0,0-7.9Z"/><path class="cls-3" d="M133.07,13.79a3.8,3.8,0,0,0-3.8-.11L124,16.49a4,4,0,0,0-1.62,5.34,3.83,3.83,0,0,0,4.78,1.86V39.08a3.87,3.87,0,1,0,7.73,0V17.18A4,4,0,0,0,133.07,13.79Z"/></g></g></svg>