<svg id="レイヤー_1" data-name="レイヤー 1" xmlns="http://www.w3.org/2000/svg" viewBox="0 0 288.78 56.25"><defs><style>.cls-1{fill:#505050;}.cls-2{fill:#89c3eb;}.cls-3{fill:#fff;}</style></defs><path class="cls-1" d="M420.69,98.69a2.76,2.76,0,0,1-.92.17,2.56,2.56,0,0,1-2.19-1.46,9.87,9.87,0,0,1-.88-1.84,2.14,2.14,0,0,1-.06-1.36,1.89,1.89,0,0,1,.84-1,7.89,7.89,0,0,1,1.78-.82,20.56,20.56,0,0,0,3.57-1.63,12.19,12.19,0,0,0,4.49-4.38,10.63,10.63,0,0,0,1.39-5.28,11.65,11.65,0,0,0-2.39-7.36,11,11,0,0,0-6.81-3.93A66.5,66.5,0,0,1,417.81,80a46.3,46.3,0,0,1-2.87,8.36A20.51,20.51,0,0,1,411.26,94a5.79,5.79,0,0,1-4.13,2.06,6.76,6.76,0,0,1-3.53-1,11.05,11.05,0,0,1-3.13-2.9,14.66,14.66,0,0,1-2.22-4.44,18.43,18.43,0,0,1-.82-5.66,18.15,18.15,0,0,1,1.3-6.85,17,17,0,0,1,3.82-5.75,18.23,18.23,0,0,1,6.15-4A22,22,0,0,1,417,64a20.14,20.14,0,0,1,7.9,1.44,16.74,16.74,0,0,1,5.71,3.88,16.55,16.55,0,0,1,3.48,5.5,17.13,17.13,0,0,1,1.18,6.26v.13A16.26,16.26,0,0,1,431,92.59,23,23,0,0,1,420.69,98.69Zm-14-9.92c.39,0,.89-.46,1.51-1.39a21.19,21.19,0,0,0,1.91-3.95,52.84,52.84,0,0,0,1.87-6,59.48,59.48,0,0,0,1.38-7.64,11.51,11.51,0,0,0-8.77,6.83,13.09,13.09,0,0,0-1.09,5.27,11.16,11.16,0,0,0,1,5C405.13,88.14,405.87,88.77,406.71,88.77Z" transform="translate(-245.22 -51.16)"/><path class="cls-1" d="M441,76.53a2.86,2.86,0,0,1-1.17-1.92,2.6,2.6,0,0,1,.5-2.15,20.83,20.83,0,0,0,2.57-4.59A18.28,18.28,0,0,0,444,62.79a5.67,5.67,0,0,1,1.49-3.72,6.43,6.43,0,0,1,3.89-1.43c1.28-.09,2.67-.27,4.17-.51s2.8-.48,3.89-.71a2.8,2.8,0,0,1,2.11.32,2.31,2.31,0,0,1,1.15,1.69,2.62,2.62,0,0,1-.31,2,2.53,2.53,0,0,1-1.65,1.13c-.9.16-2,.33-3.17.51s-2.32.31-3.31.37-1.71.48-2,1.13h10.32a2.24,2.24,0,0,1,1.77.71,2.72,2.72,0,0,1,0,3.48,2.21,2.21,0,0,1-1.77.71h-2.5v1.77a3.08,3.08,0,0,1-.93,2.38,3.28,3.28,0,0,1-2.28.86,3.25,3.25,0,0,1-2.28-.86,3.05,3.05,0,0,1-.94-2.38V68.48h-2.4a21.58,21.58,0,0,1-1.61,4,17.81,17.81,0,0,1-2.08,3.21A3.87,3.87,0,0,1,443.46,77,3.15,3.15,0,0,1,441,76.53Zm6.57,25.6a3.82,3.82,0,0,1-2.73-.1,2.78,2.78,0,0,1-1.54-1.76,3.55,3.55,0,0,1,.08-2.41,2.49,2.49,0,0,1,1.89-1.47c1-.26,2.26-.62,3.72-1.08s2.79-.93,4-1.42A6,6,0,0,1,448.76,92c-.82-1-1.22-2.73-1.22-5V80.84a10,10,0,0,1,.74-4.29,4.27,4.27,0,0,1,2.47-2.18,13.66,13.66,0,0,1,4.66-.64h6.33a2.38,2.38,0,0,1-1-1.86,2.44,2.44,0,0,1,.69-2,10.93,10.93,0,0,0,2-3.29,13.7,13.7,0,0,0,.8-4,5,5,0,0,1,1.39-3.53,5.8,5.8,0,0,1,3.64-1.38c.9-.06,1.89-.17,3-.32s2.18-.31,3.29-.51l2.95-.54a3.35,3.35,0,0,1,2.18.24,2.11,2.11,0,0,1,1.18,1.62,3.12,3.12,0,0,1-.27,2.14,2.39,2.39,0,0,1-1.75,1.15c-1.09.23-2.34.43-3.77.61s-2.63.31-3.62.37a3.58,3.58,0,0,0-1.29.34,1.67,1.67,0,0,0-.68.79h12.34a2.25,2.25,0,0,1,1.77.71,2.75,2.75,0,0,1,0,3.48,2.22,2.22,0,0,1-1.77.71h-4.23v2.16a3,3,0,0,1-.93,2.36,3.35,3.35,0,0,1-2.28.83,3.32,3.32,0,0,1-2.28-.83,3,3,0,0,1-.94-2.36V68.48h-2.73a15.43,15.43,0,0,1-1.27,2.78,13.61,13.61,0,0,1-1.66,2.23l-.1.12a.33.33,0,0,1-.14.12h4.56a13.67,13.67,0,0,1,4.68.64,4.25,4.25,0,0,1,2.44,2.18,10,10,0,0,1,.75,4.29v6.09q0,3.48-1.23,5a6,6,0,0,1-4.24,1.91c1.21.49,2.55,1,4,1.42s2.67.82,3.67,1.08a2.54,2.54,0,0,1,1.94,1.47,3.55,3.55,0,0,1,.07,2.41,2.8,2.8,0,0,1-1.53,1.76,3.85,3.85,0,0,1-2.74.1c-1-.29-2.12-.68-3.38-1.15s-2.49-1-3.67-1.5-2.19-1-3-1.37a2.48,2.48,0,0,1-1.46-1.69,3.31,3.31,0,0,1,.31-2.14l.15-.29h-8.88l.14.29a3.25,3.25,0,0,1,.31,2.14,2.48,2.48,0,0,1-1.46,1.69c-.8.39-1.8.85-3,1.37s-2.43,1-3.69,1.5S448.58,101.84,447.58,102.13Zm6.91-17.56h17.23V83.3H454.49Zm2.5,5h12.24a5,5,0,0,0,1.89-.25c.34-.16.52-.55.55-1.18H454.49c.07.63.28,1,.63,1.18A5,5,0,0,0,457,89.53Zm-2.45-9.91h17.13c-.06-.62-.26-1-.6-1.15a5.11,5.11,0,0,0-1.84-.22H457a5.17,5.17,0,0,0-1.85.22C454.81,78.61,454.61,79,454.54,79.62Z" transform="translate(-245.22 -51.16)"/><path class="cls-1" d="M495.28,102.23a3.28,3.28,0,0,1-3.36-3.43V65c0-2.74.63-4.68,1.87-5.81s3.31-1.69,6.19-1.69h3.6q4.32,0,6.19,1.69T511.64,65v2.7a9,9,0,0,1-.81,4.24A4.4,4.4,0,0,1,508.24,74a15.28,15.28,0,0,1-4.66.59h-5V98.8a3.33,3.33,0,0,1-1,2.5A3.24,3.24,0,0,1,495.28,102.23Zm3.31-32.72h4.22a4.36,4.36,0,0,0,1.88-.27c.32-.18.49-.63.52-1.35h-6.62Zm.05-5.49h6.53c0-.65-.21-1.08-.53-1.27a3.81,3.81,0,0,0-1.83-.3H501a3.67,3.67,0,0,0-1.8.3A1.61,1.61,0,0,0,498.64,64Zm14,30.26a15.63,15.63,0,0,1-5.71-.83A5.2,5.2,0,0,1,504,90.8a11.28,11.28,0,0,1-.84-4.71,11.07,11.07,0,0,1,.84-4.68,5.2,5.2,0,0,1,2.9-2.63,20.06,20.06,0,0,1,11.42,0,5.19,5.19,0,0,1,2.91,2.63,11.07,11.07,0,0,1,.84,4.68,11.28,11.28,0,0,1-.84,4.71,5.19,5.19,0,0,1-2.91,2.65A15.59,15.59,0,0,1,512.6,94.28Zm0-5.54a3.53,3.53,0,0,0,2.21-.49,2.8,2.8,0,0,0,.58-2.11,2.9,2.9,0,0,0-.58-2.16,5.21,5.21,0,0,0-4.41,0,2.86,2.86,0,0,0-.58,2.16,2.75,2.75,0,0,0,.58,2.11A3.52,3.52,0,0,0,512.6,88.74ZM526.37,102a3.45,3.45,0,0,1-3.79-3.38,3.27,3.27,0,0,1,.63-2.5,3.43,3.43,0,0,1,2.2-1.33,2.62,2.62,0,0,0,1.64-.68,3,3,0,0,0,.28-1.52v-18H522.2a15.16,15.16,0,0,1-4.65-.59,4.47,4.47,0,0,1-2.62-2.09,8.74,8.74,0,0,1-.84-4.24V65c0-2.75.63-4.69,1.9-5.84s3.33-1.71,6.21-1.71h3.69q4.32,0,6.22,1.71C533.37,60.31,534,62.25,534,65V94.53c0,2.58-.6,4.47-1.82,5.66S529,102,526.37,102Zm-5.8-38h6.72c0-.65-.22-1.07-.56-1.25a4.14,4.14,0,0,0-1.8-.27h-2a4.18,4.18,0,0,0-1.83.27A1.5,1.5,0,0,0,520.57,64Zm2.4,5.49h4.36V67.89h-6.76q.09,1.08.57,1.35A4.18,4.18,0,0,0,523,69.51Z" transform="translate(-245.22 -51.16)"/><path class="cls-1" d="M324.68,59.14a15.76,15.76,0,0,0-11.41-4.88h-.18a15.67,15.67,0,0,0-11.6,4.87,20.08,20.08,0,0,0-3,3.94,20.12,20.12,0,0,0-3-3.94,15.74,15.74,0,0,0-11.4-4.88h-.38a15.76,15.76,0,0,0-11.41,4.88c-4.49,4.56-6.93,11.72-6.87,20.11s2.38,15.62,6.87,20.17a15.74,15.74,0,0,0,11.42,4.89h.36a15.76,15.76,0,0,0,11.42-4.89,20.4,20.4,0,0,0,3-3.93,19.63,19.63,0,0,0,3,3.93,15.74,15.74,0,0,0,11.42,4.89h.18a15.88,15.88,0,0,0,11.6-4.89c4.48-4.54,6.92-11.69,6.86-20.13S329.17,63.69,324.68,59.14ZM293.56,79.32c0,5.92-1.52,10.93-4.27,13.72a7.13,7.13,0,0,1-5.23,2.27h-.35A7.11,7.11,0,0,1,278.49,93c-2.75-2.79-4.31-7.8-4.27-13.79s1.52-10.93,4.27-13.72a7.13,7.13,0,0,1,5.22-2.27H284a7,7,0,0,1,5.33,2.27c2.76,2.79,4.32,7.8,4.28,13.72v.07Zm29.2,0c0,5.92-1.52,10.93-4.27,13.72a7.22,7.22,0,0,1-5.34,2.27h-.24A7.11,7.11,0,0,1,307.69,93c-2.76-2.79-4.31-7.8-4.27-13.79s1.52-10.93,4.27-13.72a7.11,7.11,0,0,1,5.22-2.27h.24a7,7,0,0,1,5.33,2.27c2.76,2.79,4.32,7.8,4.28,13.72v.07Z" transform="translate(-245.22 -51.16)"/><path class="cls-1" d="M254.48,103.57h-.06A4.45,4.45,0,0,1,250.08,99l.43-32.4a4.38,4.38,0,0,1-4.78-2.31,4.54,4.54,0,0,1,1.84-6.07l5.38-2.9a4.31,4.31,0,0,1,4.35.15,4.53,4.53,0,0,1,2.1,3.89l-.52,39.76A4.44,4.44,0,0,1,254.48,103.57Z" transform="translate(-245.22 -51.16)"/><ellipse class="cls-2" cx="118.25" cy="28.13" rx="27.51" ry="28.13"/><path class="cls-3" d="M362.39,75.48h-4.21v-4.3a3.87,3.87,0,1,0-7.73,0v4.3h-4.2a4,4,0,0,0,0,7.9h4.2v4.3a3.87,3.87,0,1,0,7.73,0v-4.3h4.21a4,4,0,0,0,0-7.9Z" transform="translate(-245.22 -51.16)"/><path class="cls-3" d="M378.29,65a3.82,3.82,0,0,0-3.8-.11l-5.23,2.81A4,4,0,0,0,367.64,73a3.82,3.82,0,0,0,4.78,1.86V90.24a3.87,3.87,0,1,0,7.73,0V68.34A4,4,0,0,0,378.29,65Z" transform="translate(-245.22 -51.16)"/></svg>