<svg xmlns="http://www.w3.org/2000/svg" viewBox="0 0 423.5 56.25"><defs><style>.cls-1{fill:#888;}.cls-2{fill:#89c3eb;}.cls-3{fill:#fff;}</style></defs><g id="Layer_2" data-name="Layer 2"><g id="レイヤー_1" data-name="レイヤー 1"><path class="cls-1" d="M310.19,47.53a2.76,2.76,0,0,1-.92.17,2.56,2.56,0,0,1-2.19-1.46,9.63,9.63,0,0,1-.88-1.85,2.11,2.11,0,0,1-.06-1.35,1.94,1.94,0,0,1,.84-1,8.39,8.39,0,0,1,1.78-.81,20.56,20.56,0,0,0,3.57-1.63,12.19,12.19,0,0,0,4.49-4.38,10.63,10.63,0,0,0,1.39-5.28,11.65,11.65,0,0,0-2.39-7.36A11,11,0,0,0,309,18.64a66.5,66.5,0,0,1-1.7,10.18,46.3,46.3,0,0,1-2.87,8.36,20.51,20.51,0,0,1-3.68,5.67,5.79,5.79,0,0,1-4.13,2.06,6.76,6.76,0,0,1-3.53-1A11.05,11.05,0,0,1,290,41a14.66,14.66,0,0,1-2.22-4.44,18.47,18.47,0,0,1-.82-5.66,18.15,18.15,0,0,1,1.3-6.85,17,17,0,0,1,3.82-5.75,18.08,18.08,0,0,1,6.15-4,22,22,0,0,1,8.25-1.46,20.14,20.14,0,0,1,7.9,1.44,16.74,16.74,0,0,1,5.71,3.88,16.55,16.55,0,0,1,3.48,5.5,17.13,17.13,0,0,1,1.18,6.26v.13a16.26,16.26,0,0,1-4.24,11.37A23,23,0,0,1,310.19,47.53Zm-14-9.92c.39,0,.89-.46,1.51-1.39a21.19,21.19,0,0,0,1.91-3.95,52.84,52.84,0,0,0,1.87-6,59.48,59.48,0,0,0,1.38-7.64,11.56,11.56,0,0,0-5.47,2.45,11.76,11.76,0,0,0-3.3,4.37A13.18,13.18,0,0,0,293,30.7a11.16,11.16,0,0,0,1,5C294.63,37,295.37,37.61,296.21,37.61Z"/><path class="cls-1" d="M330.51,25.37a2.86,2.86,0,0,1-1.17-1.92,2.6,2.6,0,0,1,.5-2.15,20.83,20.83,0,0,0,2.57-4.59,18.28,18.28,0,0,0,1.12-5.08A5.67,5.67,0,0,1,335,7.91a6.43,6.43,0,0,1,3.89-1.43q1.92-.15,4.17-.51c1.51-.25,2.8-.48,3.89-.71a2.8,2.8,0,0,1,2.11.32,2.31,2.31,0,0,1,1.15,1.69,2.62,2.62,0,0,1-.31,2,2.52,2.52,0,0,1-1.66,1.13c-.89.16-1.95.33-3.16.51s-2.32.3-3.31.37-1.71.47-2,1.13h10.32a2.24,2.24,0,0,1,1.77.71,2.72,2.72,0,0,1,0,3.48,2.21,2.21,0,0,1-1.77.71h-2.5v1.77a3.08,3.08,0,0,1-.93,2.38,3.28,3.28,0,0,1-2.28.86,3.25,3.25,0,0,1-2.28-.86,3.05,3.05,0,0,1-.94-2.38V17.32h-2.4a21.58,21.58,0,0,1-1.61,4,17.81,17.81,0,0,1-2.08,3.21A3.87,3.87,0,0,1,333,25.88,3.15,3.15,0,0,1,330.51,25.37ZM337.08,51a3.82,3.82,0,0,1-2.73-.1,2.81,2.81,0,0,1-1.54-1.76,3.55,3.55,0,0,1,.08-2.41,2.49,2.49,0,0,1,1.89-1.47q1.53-.39,3.72-1.08c1.46-.45,2.79-.93,4-1.42a6,6,0,0,1-4.25-1.91c-.82-1-1.22-2.73-1.22-5V29.68a10,10,0,0,1,.74-4.29,4.24,4.24,0,0,1,2.47-2.18,13.66,13.66,0,0,1,4.66-.64h6.33a2.38,2.38,0,0,1-1-1.86,2.44,2.44,0,0,1,.69-2,11.05,11.05,0,0,0,2-3.29,14.11,14.11,0,0,0,.8-4,5,5,0,0,1,1.39-3.53,5.8,5.8,0,0,1,3.64-1.38c.9-.06,1.89-.17,3-.32s2.18-.32,3.28-.51l3-.54a3.35,3.35,0,0,1,2.18.24A2.11,2.11,0,0,1,371.35,7a3.12,3.12,0,0,1-.27,2.14,2.39,2.39,0,0,1-1.75,1.15c-1.09.23-2.34.43-3.77.61s-2.63.3-3.62.37a3.58,3.58,0,0,0-1.29.34,1.67,1.67,0,0,0-.68.79h12.34a2.25,2.25,0,0,1,1.77.71,2.51,2.51,0,0,1,.62,1.74,2.51,2.51,0,0,1-.62,1.74,2.22,2.22,0,0,1-1.77.71h-4.23v2.16a3,3,0,0,1-.93,2.36,3.35,3.35,0,0,1-2.28.83,3.32,3.32,0,0,1-2.28-.83,3,3,0,0,1-.94-2.36V17.32h-2.73a15,15,0,0,1-1.27,2.77A13.28,13.28,0,0,1,356,22.33l-.1.12a.33.33,0,0,1-.14.12h4.56a13.67,13.67,0,0,1,4.68.64,4.21,4.21,0,0,1,2.44,2.18,10,10,0,0,1,.75,4.29v6.09q0,3.48-1.23,5a6,6,0,0,1-4.24,1.91c1.21.49,2.55,1,4,1.42s2.67.82,3.67,1.08a2.54,2.54,0,0,1,1.94,1.47,3.55,3.55,0,0,1,.07,2.41,2.82,2.82,0,0,1-1.53,1.76,3.85,3.85,0,0,1-2.74.1c-1-.29-2.12-.68-3.38-1.15s-2.49-1-3.67-1.5-2.19-1-3-1.37a2.5,2.5,0,0,1-1.46-1.69,3.31,3.31,0,0,1,.31-2.14l.15-.29h-8.88l.14.29a3.25,3.25,0,0,1,.31,2.14A2.5,2.5,0,0,1,347.16,47c-.8.39-1.8.85-3,1.37s-2.43,1-3.69,1.5S338.08,50.68,337.08,51ZM344,33.41h17.23V32.14H344Zm2.5,5h12.24a5,5,0,0,0,1.89-.25c.34-.16.52-.56.55-1.18H344a1.35,1.35,0,0,0,.63,1.18A5,5,0,0,0,346.49,38.37ZM344,28.46h17.13c-.06-.62-.26-1-.6-1.16a5.35,5.35,0,0,0-1.84-.22H346.49a5.42,5.42,0,0,0-1.85.22C344.31,27.45,344.11,27.84,344,28.46Z"/><path class="cls-1" d="M384.78,51.07a3.28,3.28,0,0,1-3.36-3.43V13.79c0-2.75.63-4.68,1.87-5.81s3.31-1.69,6.19-1.69h3.6q4.32,0,6.19,1.69c1.25,1.13,1.87,3.06,1.87,5.81v2.7a9,9,0,0,1-.81,4.24,4.44,4.44,0,0,1-2.59,2.09,15.28,15.28,0,0,1-4.66.59h-5V47.64a3.33,3.33,0,0,1-1,2.5A3.24,3.24,0,0,1,384.78,51.07Zm3.31-32.72h4.22a4.36,4.36,0,0,0,1.88-.27c.32-.18.49-.63.52-1.35h-6.62Zm.05-5.49h6.53a1.53,1.53,0,0,0-.53-1.28,4,4,0,0,0-1.83-.29h-1.82a3.82,3.82,0,0,0-1.8.29A1.66,1.66,0,0,0,388.14,12.86Zm14,30.26a15.63,15.63,0,0,1-5.71-.83,5.2,5.2,0,0,1-2.9-2.65,11.28,11.28,0,0,1-.84-4.71,11.07,11.07,0,0,1,.84-4.68,5.2,5.2,0,0,1,2.9-2.63,20.06,20.06,0,0,1,11.42,0,5.19,5.19,0,0,1,2.91,2.63,11.07,11.07,0,0,1,.84,4.68,11.28,11.28,0,0,1-.84,4.71,5.19,5.19,0,0,1-2.91,2.65A15.59,15.59,0,0,1,402.1,43.12Zm0-5.54a3.53,3.53,0,0,0,2.21-.49,2.81,2.81,0,0,0,.58-2.11,2.9,2.9,0,0,0-.58-2.16,5.21,5.21,0,0,0-4.41,0,2.86,2.86,0,0,0-.58,2.16,2.77,2.77,0,0,0,.58,2.11A3.52,3.52,0,0,0,402.1,37.58Zm13.77,13.24a3.45,3.45,0,0,1-3.79-3.38,3.27,3.27,0,0,1,.63-2.5,3.43,3.43,0,0,1,2.2-1.33,2.62,2.62,0,0,0,1.64-.68,3,3,0,0,0,.28-1.52v-18H411.7a15.16,15.16,0,0,1-4.65-.59,4.5,4.5,0,0,1-2.62-2.09,8.77,8.77,0,0,1-.84-4.24V13.84c0-2.75.63-4.69,1.9-5.84s3.33-1.71,6.21-1.71h3.69q4.32,0,6.22,1.71c1.26,1.15,1.89,3.09,1.89,5.84V43.37c0,2.58-.6,4.47-1.82,5.66S418.53,50.82,415.87,50.82Zm-5.8-38h6.72c0-.65-.22-1.07-.56-1.25a4.14,4.14,0,0,0-1.8-.27h-2a4.18,4.18,0,0,0-1.83.27A1.5,1.5,0,0,0,410.07,12.86Zm2.4,5.49h4.36V16.73h-6.76q.09,1.08.57,1.35A4.18,4.18,0,0,0,412.47,18.35Z"/><path class="cls-1" d="M12.2,51.46A3.21,3.21,0,0,1,10,50.65a3,3,0,0,1-.91-2.33v-7.5c-.64.91-1.29,1.81-1.94,2.69a24.16,24.16,0,0,1-1.76,2.16A3.26,3.26,0,0,1,3.2,46.8a2.76,2.76,0,0,1-2.28-.74,3,3,0,0,1-.91-2,2.39,2.39,0,0,1,.72-2c.54-.56,1.18-1.27,1.9-2.13s1.44-1.79,2.18-2.75,1.36-1.82,1.87-2.58H4a2.68,2.68,0,0,1-2.11-.85,3,3,0,0,1-.77-2.09,2.94,2.94,0,0,1,.77-2.06A2.73,2.73,0,0,1,4,28.8h5V26.3H3.42a2.56,2.56,0,0,1-2-.81,2.76,2.76,0,0,1-.75-1.94,2.83,2.83,0,0,1,.75-2,2.52,2.52,0,0,1,2-.84H5.34c-.13-.39-.26-.76-.39-1.12s-.22-.64-.29-.84a2.28,2.28,0,0,1,.08-1.57,2.56,2.56,0,0,1,1-1.18H4a2.47,2.47,0,0,1-1.92-.8,2.76,2.76,0,0,1-.72-1.89,2.81,2.81,0,0,1,.72-1.94A2.44,2.44,0,0,1,4,10.6h4.9V8.69a2.86,2.86,0,0,1,1-2.31,3.57,3.57,0,0,1,4.58,0,2.91,2.91,0,0,1,1,2.31V10.6h4.32a2.51,2.51,0,0,1,2,.81,2.81,2.81,0,0,1,.72,1.94,2.76,2.76,0,0,1-.72,1.89,2.53,2.53,0,0,1-2,.8h-1a2.84,2.84,0,0,1,1,1.33,2.48,2.48,0,0,1-.08,1.81,3.2,3.2,0,0,1-.21.71c-.11.28-.23.57-.36.86h1.05a2.46,2.46,0,0,1,2,.84,2.89,2.89,0,0,1,.72,2,2.83,2.83,0,0,1-.72,1.94,2.51,2.51,0,0,1-2,.81H15.32v2.5h4.27a2.75,2.75,0,0,1,2.11.83,2.94,2.94,0,0,1,.77,2.06,3,3,0,0,1-.77,2.09,2.69,2.69,0,0,1-2.11.85H17c.55.63,1.21,1.3,2,2a24.61,24.61,0,0,0,2.08,1.79,2.84,2.84,0,0,1,.34,4.12,2.43,2.43,0,0,1-2,1,3.09,3.09,0,0,1-2.14-.83c-.22-.26-.52-.58-.89-1s-.74-.77-1.12-1.2v7.75a3,3,0,0,1-.89,2.33A3.19,3.19,0,0,1,12.2,51.46Zm-1-30.71h2q.24-.73.6-1.71c.24-.66.42-1.15.55-1.47A3,3,0,0,1,15.41,16H9.18a4,4,0,0,1,.45.47,2.3,2.3,0,0,1,.36.66,8.8,8.8,0,0,1,.38,1l.48,1.42A11.22,11.22,0,0,1,11.19,20.75ZM22.13,50.82a3.76,3.76,0,0,1-2.71.15,3.07,3.07,0,0,1-1.8-4.15,3.38,3.38,0,0,1,1.78-1.59,10.29,10.29,0,0,0,4.84-3.83,13.53,13.53,0,0,0,1.87-6.47,4.69,4.69,0,0,1-2.18-2.53,13.37,13.37,0,0,1-.65-4.63V15.46A12.67,12.67,0,0,1,24,10.58a4.43,4.43,0,0,1,2.54-2.46,13.85,13.85,0,0,1,4.92-.71H35a13.78,13.78,0,0,1,4.94.71,4.42,4.42,0,0,1,2.52,2.46,12.67,12.67,0,0,1,.75,4.88V27.77A11.78,11.78,0,0,1,42.28,33a4.68,4.68,0,0,1-3.21,2.35v7.9a.87.87,0,0,0,.19.66,1.15,1.15,0,0,0,.72.17.81.81,0,0,0,.74-.32,4.93,4.93,0,0,0,.51-1.25A2.38,2.38,0,0,1,42.5,41a3.15,3.15,0,0,1,2.33-.17,2.71,2.71,0,0,1,1.6,1.2,2.84,2.84,0,0,1,.41,2.23,8.1,8.1,0,0,1-2.18,4.81,6.25,6.25,0,0,1-4.39,1.52h-1.1a8.76,8.76,0,0,1-4.66-.94c-1-.62-1.44-1.88-1.44-3.77V35.81H31.82a19.12,19.12,0,0,1-2.88,9.57A14.34,14.34,0,0,1,22.13,50.82ZM29.76,15.7h7a3,3,0,0,0-.46-2c-.3-.33-1.06-.49-2.28-.49H32.5a3.4,3.4,0,0,0-2.26.49A2.89,2.89,0,0,0,29.76,15.7Zm0,7.06h7v-2.4h-7ZM32.5,30H34c1.22,0,2-.18,2.28-.52a3.17,3.17,0,0,0,.46-2h-7a3.17,3.17,0,0,0,.46,2C30.52,29.8,31.28,30,32.5,30Z"/><path class="cls-1" d="M85.45,39.24A3.09,3.09,0,0,1,83,40.91a3.45,3.45,0,0,1-1.93-.77l-.8-.55c-1.34-1-2.78-2-4.3-3.07L71.4,33.19c-1.52-1.12-3-2.17-4.3-3.18s-2.49-1.87-3.44-2.61a.77.77,0,0,0-.51-.22.94.94,0,0,0-.59.26L61,29.07c-.72.72-1.51,1.49-2.38,2.32l-2.43,2.4A3.26,3.26,0,0,1,53.87,35a3.79,3.79,0,0,1-2.35-1.12l-.38-.34q-2.43-2.14,0-4.16l2-1.68c1.06-.85,2.13-1.73,3.19-2.61s2-1.68,2.85-2.36S60.65,21.5,61,21.22a3,3,0,0,1,1.55-.88l.59,0a3.5,3.5,0,0,1,2.18.91L67.94,23q1.68,1.18,3.84,2.62l4.49,3q2.33,1.55,4.56,3t4.11,2.56l.17.13a3,3,0,0,1,1.57,1.86,3.25,3.25,0,0,1-.77,2.39Z"/><path class="cls-1" d="M114.33,48.21a2.49,2.49,0,0,1-.92.17,2.54,2.54,0,0,1-2.19-1.46,9.87,9.87,0,0,1-.88-1.84,2.11,2.11,0,0,1-.06-1.35,1.91,1.91,0,0,1,.84-1,7.89,7.89,0,0,1,1.78-.82,19.84,19.84,0,0,0,3.57-1.63A12.19,12.19,0,0,0,121,35.89a10.6,10.6,0,0,0,1.39-5.27A11.66,11.66,0,0,0,120,23.25a10.94,10.94,0,0,0-6.8-3.92,69.13,69.13,0,0,1-1.7,10.17,47.19,47.19,0,0,1-2.88,8.37,20.6,20.6,0,0,1-3.68,5.66,5.73,5.73,0,0,1-4.13,2.06,6.78,6.78,0,0,1-3.53-1,11,11,0,0,1-3.13-2.89,15.07,15.07,0,0,1-2.22-4.45,18.43,18.43,0,0,1-.82-5.66,18.18,18.18,0,0,1,1.3-6.85A17.07,17.07,0,0,1,96.19,19a18.38,18.38,0,0,1,6.15-4,22,22,0,0,1,8.25-1.46,20.14,20.14,0,0,1,7.9,1.44,16.48,16.48,0,0,1,9.19,9.38,17.14,17.14,0,0,1,1.18,6.27v.12a16.26,16.26,0,0,1-4.24,11.38A22.8,22.8,0,0,1,114.33,48.21Zm-14-9.91c.39,0,.9-.47,1.51-1.4A20.88,20.88,0,0,0,103.77,33a52.84,52.84,0,0,0,1.87-6A60.86,60.86,0,0,0,107,19.28a11.5,11.5,0,0,0-8.78,6.83,13.18,13.18,0,0,0-1.09,5.28,11.19,11.19,0,0,0,1,5C98.77,37.66,99.51,38.3,100.35,38.3Z"/><path class="cls-1" d="M214.18,8A15.76,15.76,0,0,0,202.77,3.1h-.18A15.72,15.72,0,0,0,191,8a20.08,20.08,0,0,0-3,3.94A20.12,20.12,0,0,0,185,8a15.74,15.74,0,0,0-11.4-4.88h-.38A15.76,15.76,0,0,0,161.79,8c-4.49,4.56-6.93,11.72-6.87,20.11s2.38,15.62,6.87,20.17a15.74,15.74,0,0,0,11.42,4.89h.36A15.76,15.76,0,0,0,185,48.26a20.71,20.71,0,0,0,3-3.93,19.92,19.92,0,0,0,3,3.93,15.74,15.74,0,0,0,11.42,4.89h.18a15.83,15.83,0,0,0,11.6-4.88c4.48-4.55,6.92-11.7,6.86-20.14S218.67,12.53,214.18,8ZM183.06,28.16c0,5.92-1.52,10.92-4.27,13.72a7.13,7.13,0,0,1-5.23,2.27h-.35A7.11,7.11,0,0,1,168,41.88c-2.76-2.8-4.31-7.8-4.27-13.79s1.52-10.93,4.27-13.72a7.11,7.11,0,0,1,5.22-2.27h.24a7,7,0,0,1,5.33,2.27c2.76,2.79,4.32,7.79,4.28,13.72v.07Zm29.19,0c0,5.92-1.51,10.92-4.26,13.72a7.26,7.26,0,0,1-5.34,2.27h-.24a7.11,7.11,0,0,1-5.22-2.27c-2.76-2.8-4.31-7.8-4.27-13.79s1.52-10.93,4.27-13.72a7.11,7.11,0,0,1,5.22-2.27h.24A7,7,0,0,1,208,14.37c2.76,2.79,4.31,7.79,4.27,13.72v.07Z"/><path class="cls-1" d="M144,52.41h-.06a4.45,4.45,0,0,1-4.34-4.56L140,15.46a4.38,4.38,0,0,1-4.78-2.31,4.55,4.55,0,0,1,1.84-6.08l5.38-2.89a4.34,4.34,0,0,1,4.35.14,4.54,4.54,0,0,1,2.1,3.9L148.38,48A4.44,4.44,0,0,1,144,52.41Z"/><ellipse class="cls-2" cx="252.97" cy="28.13" rx="27.51" ry="28.13"/><path class="cls-3" d="M251.89,24.32h-4.21V20A3.87,3.87,0,1,0,240,20v4.3h-4.2a4,4,0,0,0,0,7.9H240v4.3a3.87,3.87,0,1,0,7.73,0v-4.3h4.21a4,4,0,0,0,0-7.9Z"/><path class="cls-3" d="M267.79,13.79a3.8,3.8,0,0,0-3.8-.11l-5.23,2.81a4,4,0,0,0-1.62,5.34,3.83,3.83,0,0,0,4.78,1.86V39.08a3.87,3.87,0,1,0,7.73,0V17.18A4,4,0,0,0,267.79,13.79Z"/></g></g></svg>