<svg id="レイヤー_1" data-name="レイヤー 1" xmlns="http://www.w3.org/2000/svg" viewBox="0 0 296.71 321.03"><defs><style>.cls-1{fill:#505050;}.cls-2{fill:#89c3eb;}.cls-3{fill:#fff;}.cls-4{fill:#f7adc3;}.cls-5{fill:none;}</style></defs><path class="cls-1" d="M898.57,281.92a3.31,3.31,0,0,1-2.25-.81,2.9,2.9,0,0,1-.92-2.32v-7.47c-.66.91-1.32,1.81-2,2.69a26.3,26.3,0,0,1-1.79,2.14,3.33,3.33,0,0,1-2.22,1.13,2.88,2.88,0,0,1-2.32-.74,3,3,0,0,1-.93-2,2.32,2.32,0,0,1,.74-2c.55-.55,1.19-1.26,1.93-2.13s1.47-1.77,2.22-2.73,1.38-1.82,1.9-2.57h-2.68a2.75,2.75,0,0,1-2.15-.85,3,3,0,0,1-.78-2.08,2.9,2.9,0,0,1,.78-2.05,2.81,2.81,0,0,1,2.15-.83h5.13v-2.49h-5.77a2.66,2.66,0,0,1-2-.8,2.7,2.7,0,0,1-.76-1.93,2.81,2.81,0,0,1,.76-2,2.61,2.61,0,0,1,2-.83h2c-.13-.39-.27-.76-.39-1.12l-.3-.83a2.2,2.2,0,0,1,.08-1.56,2.6,2.6,0,0,1,1-1.18h-1.71a2.51,2.51,0,0,1-2-.8,2.7,2.7,0,0,1-.73-1.88,2.76,2.76,0,0,1,.73-1.93,2.51,2.51,0,0,1,2-.81h5v-1.9a2.83,2.83,0,0,1,1-2.3,3.55,3.55,0,0,1,2.32-.83,3.51,3.51,0,0,1,2.34.83,2.87,2.87,0,0,1,1,2.3v1.9h4.4a2.57,2.57,0,0,1,2,.81A2.76,2.76,0,0,1,909,244a2.7,2.7,0,0,1-.73,1.88,2.56,2.56,0,0,1-2,.8h-1a2.81,2.81,0,0,1,1,1.32,2.43,2.43,0,0,1-.07,1.81,3.47,3.47,0,0,1-.22.71l-.37.85h1.08a2.55,2.55,0,0,1,2,.83,2.87,2.87,0,0,1,.73,2,2.76,2.76,0,0,1-.73,1.93,2.6,2.6,0,0,1-2,.8h-4.94v2.49h4.35a2.82,2.82,0,0,1,2.15.83,2.9,2.9,0,0,1,.78,2.05,3,3,0,0,1-.78,2.08,2.77,2.77,0,0,1-2.15.85H903.5c.56.62,1.23,1.3,2,2a25.71,25.71,0,0,0,2.12,1.78,2.8,2.8,0,0,1,.35,4.11,2.48,2.48,0,0,1-2,1,3.1,3.1,0,0,1-2.17-.83c-.23-.26-.53-.57-.91-1s-.75-.77-1.15-1.2v7.72a3,3,0,0,1-.9,2.32A3.27,3.27,0,0,1,898.57,281.92Zm-1-30.58h2c.16-.48.36-1.05.61-1.71s.43-1.13.56-1.46a3,3,0,0,1,1.12-1.52h-6.35a3.48,3.48,0,0,1,.47.47,2.3,2.3,0,0,1,.36.66,8.06,8.06,0,0,1,.39,1c.17.47.33.94.49,1.42A10.47,10.47,0,0,1,897.54,251.34Zm11.14,29.94a3.89,3.89,0,0,1-2.76.15,2.91,2.91,0,0,1-1.88-1.76,2.82,2.82,0,0,1,.05-2.37,3.44,3.44,0,0,1,1.81-1.59,10.47,10.47,0,0,0,4.93-3.81,13.29,13.29,0,0,0,1.9-6.44,4.67,4.67,0,0,1-2.22-2.52,13,13,0,0,1-.66-4.61V246.07a12.38,12.38,0,0,1,.76-4.86,4.42,4.42,0,0,1,2.59-2.44,14.3,14.3,0,0,1,5-.71h3.57a14.29,14.29,0,0,1,5,.71,4.43,4.43,0,0,1,2.56,2.44,12.38,12.38,0,0,1,.76,4.86v12.26a11.48,11.48,0,0,1-.93,5.22,4.75,4.75,0,0,1-3.27,2.35v7.86a.81.81,0,0,0,.2.66,1.16,1.16,0,0,0,.73.17.84.84,0,0,0,.76-.32,5.68,5.68,0,0,0,.51-1.24,2.38,2.38,0,0,1,1.29-1.54,3.31,3.31,0,0,1,2.37-.17,2.78,2.78,0,0,1,1.64,1.2,2.81,2.81,0,0,1,.41,2.22,8,8,0,0,1-2.22,4.78,6.42,6.42,0,0,1-4.47,1.52H926a9.18,9.18,0,0,1-4.74-.93c-1-.62-1.46-1.87-1.46-3.76v-10h-1.27a18.94,18.94,0,0,1-2.93,9.52A14.59,14.59,0,0,1,908.68,281.28Zm7.76-35h7.09a2.94,2.94,0,0,0-.47-1.95c-.31-.33-1.08-.49-2.32-.49h-1.51a3.52,3.52,0,0,0-2.3.49A2.87,2.87,0,0,0,916.44,246.31Zm0,7h7.09V251h-7.09Zm2.79,7.18h1.51a3.39,3.39,0,0,0,2.32-.52,3.11,3.11,0,0,0,.47-2h-7.09a3.11,3.11,0,0,0,.47,2A3.39,3.39,0,0,0,919.23,260.53Z" transform="translate(-799.64 -59.49)"/><path class="cls-1" d="M973.12,269.77a3.16,3.16,0,0,1-2.47,1.67,3.61,3.61,0,0,1-2-.77l-.81-.56q-2.05-1.41-4.38-3.05c-1.56-1.1-3.11-2.2-4.66-3.32s-3-2.16-4.38-3.16-2.54-1.86-3.51-2.61a.8.8,0,0,0-.51-.21.94.94,0,0,0-.6.26l-1.64,1.62c-.73.71-1.53,1.48-2.42,2.31l-2.47,2.39A3.34,3.34,0,0,1,941,265.5a3.93,3.93,0,0,1-2.4-1.11l-.38-.35q-2.48-2.13,0-4.14l2-1.67c1.08-.85,2.17-1.72,3.25-2.61l2.9-2.35,1.84-1.45a3.13,3.13,0,0,1,1.58-.87l.6,0a3.66,3.66,0,0,1,2.22.9l2.65,1.82c1.14.78,2.45,1.65,3.91,2.6l4.58,3q2.37,1.55,4.63,3t4.19,2.55l.17.13a3,3,0,0,1,1.6,1.85,3.19,3.19,0,0,1-.79,2.38Z" transform="translate(-799.64 -59.49)"/><path class="cls-1" d="M1002.53,278.7a2.88,2.88,0,0,1-.94.17,2.6,2.6,0,0,1-2.23-1.45,10,10,0,0,1-.89-1.84,2,2,0,0,1-.07-1.34,2,2,0,0,1,.86-1,8.49,8.49,0,0,1,1.81-.81,20.61,20.61,0,0,0,3.63-1.62,12.39,12.39,0,0,0,4.58-4.36,10.51,10.51,0,0,0,1.41-5.26,11.37,11.37,0,0,0-2.44-7.33,11.12,11.12,0,0,0-6.92-3.91,65.78,65.78,0,0,1-1.73,10.13,45.84,45.84,0,0,1-2.93,8.33,20.36,20.36,0,0,1-3.74,5.64,5.92,5.92,0,0,1-4.21,2,7.07,7.07,0,0,1-3.59-1,11.18,11.18,0,0,1-3.18-2.89,14.51,14.51,0,0,1-2.27-4.42,18.34,18.34,0,0,1-.83-5.64,17.71,17.71,0,0,1,1.33-6.82,16.73,16.73,0,0,1,3.88-5.72,18.6,18.6,0,0,1,6.26-4,23,23,0,0,1,8.4-1.45,21,21,0,0,1,8,1.43,17.2,17.2,0,0,1,5.81,3.87,16.54,16.54,0,0,1,3.54,5.47,16.8,16.8,0,0,1,1.2,6.24v.13a16,16,0,0,1-4.31,11.32A23.37,23.37,0,0,1,1002.53,278.7Zm-14.24-9.87c.4,0,.92-.46,1.54-1.39a21,21,0,0,0,1.95-3.93,52.65,52.65,0,0,0,1.9-6,58.63,58.63,0,0,0,1.41-7.6,12.06,12.06,0,0,0-5.58,2.43,11.76,11.76,0,0,0-3.35,4.36,12.93,12.93,0,0,0-1.11,5.26,10.81,10.81,0,0,0,1,5C986.68,268.2,987.44,268.83,988.29,268.83Z" transform="translate(-799.64 -59.49)"/><path class="cls-1" d="M979.92,340.44a2.51,2.51,0,0,1-3.19-1.29,9.6,9.6,0,0,1-.9-1.86,2.09,2.09,0,0,1-.07-1.36,2,2,0,0,1,.86-1,8.3,8.3,0,0,1,1.84-.82,20.23,20.23,0,0,0,3.66-1.64,12.37,12.37,0,0,0,4.62-4.4,10.56,10.56,0,0,0,1.42-5.3,11.48,11.48,0,0,0-2.46-7.4,11.22,11.22,0,0,0-7-3.95A66.94,66.94,0,0,1,977,321.63a46.56,46.56,0,0,1-3,8.42,20.65,20.65,0,0,1-3.77,5.69,6,6,0,0,1-4.25,2.07,7,7,0,0,1-3.62-1,11.23,11.23,0,0,1-3.22-2.91,14.76,14.76,0,0,1-2.28-4.46,18.43,18.43,0,0,1-.84-5.7,18,18,0,0,1,1.33-6.88,17.06,17.06,0,0,1,3.93-5.78,18.74,18.74,0,0,1,6.32-4,22.93,22.93,0,0,1,8.47-1.46,21.12,21.12,0,0,1,8.11,1.44,17.18,17.18,0,0,1,5.87,3.9,16.75,16.75,0,0,1,3.58,5.53,16.92,16.92,0,0,1,1.21,6.3v.12a16.11,16.11,0,0,1-4.36,11.44A23.55,23.55,0,0,1,979.92,340.44Zm-14.36-10c.4,0,.92-.47,1.55-1.41a20.73,20.73,0,0,0,2-4,51.53,51.53,0,0,0,1.92-6.06,59.84,59.84,0,0,0,1.43-7.68,12,12,0,0,0-5.63,2.46,11.73,11.73,0,0,0-3.39,4.4,12.93,12.93,0,0,0-1.12,5.3,11,11,0,0,0,1,5C963.93,329.84,964.7,330.48,965.56,330.48Z" transform="translate(-799.64 -59.49)"/><path class="cls-1" d="M1000.8,318.17a2.87,2.87,0,0,1-1.21-1.93,2.62,2.62,0,0,1,.52-2.16,20.78,20.78,0,0,0,2.64-4.61,18.14,18.14,0,0,0,1.16-5.11,5.59,5.59,0,0,1,1.53-3.74,6.61,6.61,0,0,1,4-1.43c1.31-.1,2.74-.27,4.29-.52s2.87-.49,4-.72a3.05,3.05,0,0,1,2.17.32,2.33,2.33,0,0,1,1.18,1.71,2.56,2.56,0,0,1-.32,2,2.53,2.53,0,0,1-1.7,1.13c-.92.17-2,.34-3.25.52s-2.38.3-3.4.37-1.76.48-2,1.13H1021a2.31,2.31,0,0,1,1.82.72,2.71,2.71,0,0,1,0,3.5,2.34,2.34,0,0,1-1.82.71h-2.57v1.78a3.05,3.05,0,0,1-1,2.39,3.61,3.61,0,0,1-4.68,0,3.05,3.05,0,0,1-1-2.39v-1.78h-2.47a22.31,22.31,0,0,1-1.65,4,18.1,18.1,0,0,1-2.14,3.23,4,4,0,0,1-2.22,1.36A3.31,3.31,0,0,1,1000.8,318.17Zm6.76,25.73a4,4,0,0,1-2.81-.1,2.81,2.81,0,0,1-1.58-1.77,3.46,3.46,0,0,1,.07-2.42,2.56,2.56,0,0,1,2-1.48c1-.26,2.32-.62,3.82-1.08s2.87-.94,4.12-1.43a6.24,6.24,0,0,1-4.37-1.92c-.83-1.05-1.25-2.75-1.25-5.08v-6.11a10,10,0,0,1,.76-4.32,4.37,4.37,0,0,1,2.54-2.19,14.39,14.39,0,0,1,4.78-.64h6.51a2.43,2.43,0,0,1-1-1.88,2.47,2.47,0,0,1,.71-2,11,11,0,0,0,2.05-3.3,13.51,13.51,0,0,0,.81-4,5.08,5.08,0,0,1,1.43-3.55,6.1,6.1,0,0,1,3.75-1.38c.92-.07,1.94-.18,3.06-.32s2.24-.32,3.37-.52l3-.54a3.39,3.39,0,0,1,2.24.24,2.14,2.14,0,0,1,1.21,1.63,3.05,3.05,0,0,1-.27,2.14,2.47,2.47,0,0,1-1.8,1.16c-1.12.23-2.41.44-3.87.62s-2.71.3-3.73.37a3.68,3.68,0,0,0-1.33.34,1.74,1.74,0,0,0-.69.79h12.67a2.33,2.33,0,0,1,1.83.72,2.71,2.71,0,0,1,0,3.5,2.36,2.36,0,0,1-1.83.71h-4.34v2.17a3,3,0,0,1-1,2.37,3.68,3.68,0,0,1-4.68,0,3,3,0,0,1-1-2.37v-2.17H1030a15,15,0,0,1-1.31,2.79,13.45,13.45,0,0,1-1.7,2.24.63.63,0,0,0-.1.12.39.39,0,0,1-.15.13h4.69a14.28,14.28,0,0,1,4.8.64,4.36,4.36,0,0,1,2.52,2.19,10,10,0,0,1,.76,4.32v6.11c0,2.33-.42,4-1.25,5.08a6.24,6.24,0,0,1-4.37,1.92c1.25.49,2.62,1,4.12,1.43s2.75.82,3.77,1.08a2.62,2.62,0,0,1,2,1.48,3.52,3.52,0,0,1,.07,2.42,2.81,2.81,0,0,1-1.58,1.77,4,4,0,0,1-2.81.1c-1-.29-2.17-.68-3.47-1.16s-2.56-1-3.77-1.5-2.26-1-3.11-1.38a2.53,2.53,0,0,1-1.5-1.7,3.23,3.23,0,0,1,.32-2.15l.14-.29h-9.12l.15.29a3.23,3.23,0,0,1,.32,2.15,2.51,2.51,0,0,1-1.5,1.7c-.82.39-1.85.85-3.08,1.38s-2.5,1-3.8,1.5S1008.57,343.61,1007.56,343.9Zm7.1-17.65h17.69V325h-17.69Zm2.56,5h12.57a5.32,5.32,0,0,0,2-.24c.34-.17.53-.56.56-1.19h-17.64a1.31,1.31,0,0,0,.64,1.19A5.28,5.28,0,0,0,1017.22,331.23Zm-2.51-10h17.59c-.06-.62-.27-1-.61-1.15a5.4,5.4,0,0,0-1.9-.23h-12.57a5.4,5.4,0,0,0-1.9.23C1015,320.26,1014.77,320.65,1014.71,321.27Z" transform="translate(-799.64 -59.49)"/><path class="cls-1" d="M1056.56,344a3.44,3.44,0,0,1-2.44-.94,3.26,3.26,0,0,1-1-2.51v-34q0-4.14,1.92-5.84c1.29-1.13,3.4-1.7,6.36-1.7h3.7q4.44,0,6.36,1.7t1.92,5.84v2.71a8.87,8.87,0,0,1-.84,4.27,4.43,4.43,0,0,1-2.66,2.09,15.64,15.64,0,0,1-4.78.6H1060v24.35a3.31,3.31,0,0,1-1,2.51A3.37,3.37,0,0,1,1056.56,344Zm3.4-32.88h4.34a4.48,4.48,0,0,0,1.92-.27c.33-.18.51-.64.55-1.36H1060Zm0-5.52h6.71a1.54,1.54,0,0,0-.54-1.29,4.19,4.19,0,0,0-1.88-.29h-1.87a4,4,0,0,0-1.85.29A1.67,1.67,0,0,0,1060,305.6ZM1074.36,336a16.48,16.48,0,0,1-5.87-.83,5.26,5.26,0,0,1-3-2.67,11,11,0,0,1-.86-4.73,10.89,10.89,0,0,1,.86-4.71,5.24,5.24,0,0,1,3-2.63,20.93,20.93,0,0,1,11.74,0,5.27,5.27,0,0,1,3,2.63,11,11,0,0,1,.86,4.71,11.17,11.17,0,0,1-.86,4.73,5.3,5.3,0,0,1-3,2.67A16.48,16.48,0,0,1,1074.36,336Zm0-5.57a3.73,3.73,0,0,0,2.27-.49,2.79,2.79,0,0,0,.59-2.12,2.87,2.87,0,0,0-.59-2.17,5.5,5.5,0,0,0-4.54,0,2.87,2.87,0,0,0-.59,2.17,2.79,2.79,0,0,0,.59,2.12A3.73,3.73,0,0,0,1074.36,330.44Zm14.15,13.31a3.89,3.89,0,0,1-2.76-.91,3.73,3.73,0,0,1-1.14-2.49,3.22,3.22,0,0,1,.64-2.51,3.52,3.52,0,0,1,2.27-1.33,2.75,2.75,0,0,0,1.68-.69,2.9,2.9,0,0,0,.29-1.53V316.2h-5.27a15.64,15.64,0,0,1-4.78-.6,4.55,4.55,0,0,1-2.69-2.09,8.62,8.62,0,0,1-.86-4.27v-2.66q0-4.14,1.94-5.86t6.39-1.73h3.8q4.43,0,6.38,1.73t1.95,5.86v29.68q0,3.9-1.88,5.7C1093.22,343.15,1091.24,343.75,1088.51,343.75Zm-6-38.15h6.91q-.06-1-.57-1.26a4.41,4.41,0,0,0-1.85-.27h-2a4.42,4.42,0,0,0-1.88.27A1.54,1.54,0,0,0,1082.54,305.6Zm2.47,5.52h4.48v-1.63h-7c.07.72.27,1.18.59,1.36A4.42,4.42,0,0,0,1085,311.12Z" transform="translate(-799.64 -59.49)"/><path class="cls-1" d="M881.29,300.7a16.45,16.45,0,0,0-11.92-4.91,16.28,16.28,0,0,0-11.92,4.91,20.4,20.4,0,0,0-3.08,3.95,20.8,20.8,0,0,0-3.08-3.95,16.39,16.39,0,0,0-11.74-4.91h-.18a16.33,16.33,0,0,0-11.92,4.91c-4.61,4.58-7.12,11.78-7.06,20.21s2.45,15.7,7.07,20.28a16.33,16.33,0,0,0,11.72,4.9h.38a16.3,16.3,0,0,0,11.72-4.91,20.15,20.15,0,0,0,3.09-3.95,20.87,20.87,0,0,0,3.08,4,16.37,16.37,0,0,0,11.73,4.9h.38a16.3,16.3,0,0,0,11.72-4.91c4.61-4.57,7.12-11.76,7.06-20.24S885.89,305.27,881.29,300.7ZM849.3,321c0,6-1.56,11-4.39,13.8a7.37,7.37,0,0,1-5.48,2.28h-.13a7.26,7.26,0,0,1-5.48-2.28c-2.83-2.81-4.43-7.84-4.38-13.86s1.55-11,4.38-13.79a7.39,7.39,0,0,1,5.37-2.29h.36a7.41,7.41,0,0,1,5.37,2.29c2.83,2.81,4.42,7.83,4.38,13.79V321Zm30,0c0,6-1.56,11-4.39,13.8a7.37,7.37,0,0,1-5.48,2.28h-.13a7.3,7.3,0,0,1-5.48-2.28c-2.83-2.81-4.43-7.84-4.38-13.86s1.55-11,4.38-13.79a7.41,7.41,0,0,1,5.37-2.29h.36a7.42,7.42,0,0,1,5.37,2.29c2.82,2.8,4.42,7.83,4.38,13.79V321Z" transform="translate(-799.64 -59.49)"/><path class="cls-1" d="M809.16,345.35h-.07a4.52,4.52,0,0,1-4.46-4.58l.44-32.56a4.52,4.52,0,0,1-3-8.43l5.53-2.91a4.53,4.53,0,0,1,6.63,4.06l-.54,40A4.51,4.51,0,0,1,809.16,345.35Z" transform="translate(-799.64 -59.49)"/><circle class="cls-2" cx="121.5" cy="261.45" r="28.27"/><path class="cls-3" d="M920,317.12H915.7V312.8a4,4,0,1,0-7.94,0v4.32h-4.32a4,4,0,0,0,0,7.94h4.32v4.32a4,4,0,1,0,7.94,0v-4.32H920a4,4,0,1,0,0-7.94Z" transform="translate(-799.64 -59.49)"/><path class="cls-3" d="M936.36,306.54a4,4,0,0,0-3.9-.12l-5.38,2.83a4,4,0,0,0,3.25,7.23V332a4,4,0,0,0,7.95,0v-22A4,4,0,0,0,936.36,306.54Z" transform="translate(-799.64 -59.49)"/><path class="cls-1" d="M863.09,366.36a6.22,6.22,0,0,1,3.35,11.41l.93,1.49a.83.83,0,0,1-.28,1.14.81.81,0,0,1-1.11-.3l-1-1.63a6.53,6.53,0,0,1-1.88.28,6.2,6.2,0,0,1,0-12.39Zm0,10.57a4.82,4.82,0,0,0,.86-.09l-.81-1.31a.82.82,0,1,1,1.39-.86l1,1.52a4.33,4.33,0,1,0-6.63-3.63A4.28,4.28,0,0,0,863.09,376.93Z" transform="translate(-799.64 -59.49)"/><path class="cls-1" d="M879.68,377.75a.92.92,0,0,1-.93.91.9.9,0,0,1-.88-.91v-.4a2.82,2.82,0,0,1-2.5,1.4c-2,0-3.12-1.28-3.12-3.59v-4a.92.92,0,0,1,.93-.91.89.89,0,0,1,.87.91V375c0,1.3.67,2,1.72,2a2,2,0,0,0,2.1-2.19v-3.58a.92.92,0,0,1,.93-.91.9.9,0,0,1,.88.91Z" transform="translate(-799.64 -59.49)"/><path class="cls-1" d="M890.18,375.12h-5.69a2.36,2.36,0,0,0,2.5,2.05,2.77,2.77,0,0,0,2-.78.93.93,0,0,1,1.16-.08.79.79,0,0,1,0,1.14,4.46,4.46,0,0,1-3.23,1.3,4.27,4.27,0,0,1,0-8.54A4,4,0,0,1,891,374.3.83.83,0,0,1,890.18,375.12Zm-.94-1.31a2.23,2.23,0,0,0-2.34-2,2.29,2.29,0,0,0-2.41,2Z" transform="translate(-799.64 -59.49)"/><path class="cls-1" d="M893.9,375.91a.69.69,0,0,1,.91.35,1.91,1.91,0,0,0,1.77,1c.83,0,1.42-.36,1.42-1s-.51-.75-1.1-.89l-1.11-.26c-1.73-.48-2.36-1.42-2.26-2.74a2.77,2.77,0,0,1,2.93-2.16,3,3,0,0,1,2.63,1.22.78.78,0,0,1-.16,1.05.77.77,0,0,1-1-.11,2.16,2.16,0,0,0-1.4-.56,1.42,1.42,0,0,0-1.14.44.76.76,0,0,0-.07.7c.1.32.6.47,1,.6l1.27.31a2.42,2.42,0,0,1,2.13,2.42c0,1.58-1.38,2.47-3.26,2.47a3.1,3.1,0,0,1-3-1.86A.76.76,0,0,1,893.9,375.91Z" transform="translate(-799.64 -59.49)"/><path class="cls-1" d="M903.28,371.88h-.8a.74.74,0,0,1-.76-.72.76.76,0,0,1,.76-.77h.8v-2.28a.9.9,0,0,1,.88-.91.92.92,0,0,1,.93.91v2.28h1.07a.76.76,0,0,1,.75.77.74.74,0,0,1-.75.72h-1.07v5.87a.92.92,0,0,1-.93.91.9.9,0,0,1-.88-.91Z" transform="translate(-799.64 -59.49)"/><path class="cls-1" d="M910.31,365.94a1.14,1.14,0,1,1,0,2.28,1.14,1.14,0,1,1,0-2.28Zm.92,5.27a.92.92,0,0,0-.93-.91.9.9,0,0,0-.88.91v6.54a.9.9,0,0,0,.88.91.92.92,0,0,0,.93-.91Z" transform="translate(-799.64 -59.49)"/><path class="cls-1" d="M914.24,374.46a4.28,4.28,0,0,1,8.56,0,4.28,4.28,0,1,1-8.56,0Zm6.77,0A2.49,2.49,0,1,0,918.5,377,2.43,2.43,0,0,0,921,374.46Z" transform="translate(-799.64 -59.49)"/><path class="cls-1" d="M925.81,371.21a.92.92,0,0,1,.93-.91.9.9,0,0,1,.88.91v.41a2.84,2.84,0,0,1,2.51-1.41c2,0,3.12,1.28,3.12,3.6v3.94a.92.92,0,0,1-.93.91.9.9,0,0,1-.88-.91V374c0-1.3-.66-2-1.72-2a2,2,0,0,0-2.1,2.19v3.57a.92.92,0,0,1-.93.91.9.9,0,0,1-.88-.91Z" transform="translate(-799.64 -59.49)"/><path class="cls-1" d="M936.7,375.91a.7.7,0,0,1,.92.35,1.89,1.89,0,0,0,1.77,1c.82,0,1.42-.36,1.42-1s-.51-.75-1.11-.89l-1.1-.26c-1.74-.48-2.37-1.42-2.26-2.74a2.76,2.76,0,0,1,2.92-2.16,3,3,0,0,1,2.63,1.22.77.77,0,0,1-1.21.94,2.16,2.16,0,0,0-1.4-.56,1.44,1.44,0,0,0-1.14.44.76.76,0,0,0-.07.7c.11.32.6.47,1,.6l1.26.31a2.43,2.43,0,0,1,2.14,2.42c0,1.58-1.39,2.47-3.26,2.47a3.09,3.09,0,0,1-3-1.86A.75.75,0,0,1,936.7,375.91Z" transform="translate(-799.64 -59.49)"/><path class="cls-1" d="M953.27,371.88v5.87a.89.89,0,0,1-.87.91.92.92,0,0,1-.93-.91v-5.87h-.91a.74.74,0,0,1-.76-.72.76.76,0,0,1,.76-.77h.91v-.75c0-2.25,1-3.7,3.26-3.7h.14a.87.87,0,0,1,.88.84.88.88,0,0,1-.88.89h-.14c-1.19,0-1.46.93-1.46,2v.75h1.18a.76.76,0,0,1,.75.77.74.74,0,0,1-.75.72Z" transform="translate(-799.64 -59.49)"/><path class="cls-1" d="M957.08,374.46a4.28,4.28,0,0,1,8.55,0,4.28,4.28,0,1,1-8.55,0Zm6.77,0a2.49,2.49,0,1,0-2.51,2.54A2.43,2.43,0,0,0,963.85,374.46Z" transform="translate(-799.64 -59.49)"/><path class="cls-1" d="M970.46,375.63v2.12a.92.92,0,0,1-.93.91.9.9,0,0,1-.88-.91v-6.54a.9.9,0,0,1,.88-.91.92.92,0,0,1,.93.91v1.06c.42-1.46,1.23-2.06,2.24-2.06a3.19,3.19,0,0,1,.77.08.86.86,0,0,1,.65,1c-.16.79-1,.6-1.47.6C971.11,371.92,970.46,373.46,970.46,375.63Z" transform="translate(-799.64 -59.49)"/><path class="cls-1" d="M983.8,377.72a1,1,0,0,1-1,.94.93.93,0,0,1-.9-.94v-10.2a1,1,0,0,1,1-1h3.85a3.82,3.82,0,0,1,0,7.64h-3Zm0-9.5v4.22h2.88a2.12,2.12,0,0,0,.07-4.22Z" transform="translate(-799.64 -59.49)"/><path class="cls-1" d="M999.35,377.4a3.26,3.26,0,0,1-2.75,1.35,4.27,4.27,0,0,1,0-8.54,3.25,3.25,0,0,1,2.75,1.34v-.34a.9.9,0,0,1,.88-.91.92.92,0,0,1,.93.91v6.54a.92.92,0,0,1-.93.91.9.9,0,0,1-.88-.91Zm-2.54-.4a2.52,2.52,0,1,0-2.51-2.54A2.45,2.45,0,0,0,996.81,377Z" transform="translate(-799.64 -59.49)"/><path class="cls-1" d="M1006.44,375.63v2.12a.92.92,0,0,1-.93.91.9.9,0,0,1-.88-.91v-6.54a.9.9,0,0,1,.88-.91.92.92,0,0,1,.93.91v1.06c.42-1.46,1.23-2.06,2.24-2.06a3.19,3.19,0,0,1,.77.08.86.86,0,0,1,.65,1c-.16.79-.94.6-1.47.6C1007.09,371.92,1006.44,373.46,1006.44,375.63Z" transform="translate(-799.64 -59.49)"/><path class="cls-1" d="M1019.33,375.12h-5.7a2.37,2.37,0,0,0,2.51,2.05,2.74,2.74,0,0,0,1.94-.78.93.93,0,0,1,1.16-.08.79.79,0,0,1,0,1.14,4.44,4.44,0,0,1-3.22,1.3,4.27,4.27,0,0,1,0-8.54,4,4,0,0,1,4.1,4.09A.82.82,0,0,1,1019.33,375.12Zm-1-1.31a2.23,2.23,0,0,0-2.33-2,2.3,2.3,0,0,0-2.42,2Z" transform="translate(-799.64 -59.49)"/><path class="cls-1" d="M1023,371.21a.92.92,0,0,1,.93-.91.9.9,0,0,1,.88.91v.41a2.83,2.83,0,0,1,2.5-1.41c2,0,3.12,1.28,3.12,3.6v3.94a.92.92,0,0,1-.92.91.89.89,0,0,1-.88-.91V374c0-1.3-.67-2-1.72-2a2,2,0,0,0-2.1,2.19v3.57a.92.92,0,0,1-.93.91.9.9,0,0,1-.88-.91Z" transform="translate(-799.64 -59.49)"/><path class="cls-1" d="M1034.48,371.88h-.81a.74.74,0,0,1-.75-.72.76.76,0,0,1,.75-.77h.81v-2.28a.89.89,0,0,1,.87-.91.92.92,0,0,1,.93.91v2.28h1.07a.76.76,0,0,1,.76.77.74.74,0,0,1-.76.72h-1.07v5.87a.92.92,0,0,1-.93.91.89.89,0,0,1-.87-.91Z" transform="translate(-799.64 -59.49)"/><path class="cls-1" d="M1040.67,375.91a.69.69,0,0,1,.91.35,1.89,1.89,0,0,0,1.77,1c.82,0,1.42-.36,1.42-1s-.51-.75-1.1-.89l-1.11-.26c-1.73-.48-2.37-1.42-2.26-2.74a2.77,2.77,0,0,1,2.93-2.16,3,3,0,0,1,2.63,1.22.79.79,0,0,1-.16,1.05.77.77,0,0,1-1-.11,2.18,2.18,0,0,0-1.41-.56,1.41,1.41,0,0,0-1.13.44.79.79,0,0,0-.08.7c.11.32.6.47,1,.6l1.26.31a2.43,2.43,0,0,1,2.14,2.42c0,1.58-1.38,2.47-3.26,2.47a3.1,3.1,0,0,1-3-1.86A.75.75,0,0,1,1040.67,375.91Z" transform="translate(-799.64 -59.49)"/><path class="cls-4" d="M836.79,196.85a10.13,10.13,0,0,1-10.12-10.13V94.44a10.12,10.12,0,0,1-9.38-17l12.34-12.35a10.13,10.13,0,0,1,17.29,7.17v114.5A10.13,10.13,0,0,1,836.79,196.85Z" transform="translate(-799.64 -59.49)"/><path class="cls-4" d="M908.08,117.24a1.81,1.81,0,0,1-1.79-1.56c-.5-3.63,1.1-6.94,4-8.26s6.44-.34,8.84,2.42a1.8,1.8,0,1,1-2.72,2.37c-1.35-1.54-3.21-2.14-4.62-1.5s-2.18,2.45-1.9,4.47a1.8,1.8,0,0,1-1.54,2Z" transform="translate(-799.64 -59.49)"/><path class="cls-4" d="M941.84,109.79a1.82,1.82,0,0,1-1.75-1.33c-.54-2-2-3.32-3.51-3.36h-.06c-1.53,0-3,1.28-3.59,3.21a1.81,1.81,0,0,1-3.44-1.11c1.1-3.43,3.92-5.71,7-5.71h.14c3.17.07,6,2.48,6.92,6a1.8,1.8,0,0,1-1.26,2.22A1.64,1.64,0,0,1,941.84,109.79Z" transform="translate(-799.64 -59.49)"/><path class="cls-4" d="M930.24,138.69c-3.49,0-6.92-2.18-8.92-5.82a1.81,1.81,0,0,1,3.18-1.74c1.54,2.83,4.24,4.37,6.72,3.84s4.31-3,4.56-6.25a1.83,1.83,0,0,1,2-1.66,1.81,1.81,0,0,1,1.66,1.95c-.39,4.82-3.37,8.63-7.42,9.5A8.4,8.4,0,0,1,930.24,138.69Z" transform="translate(-799.64 -59.49)"/><path class="cls-4" d="M963.05,173.49a14.28,14.28,0,0,1-1.86-2.19q-2.12-2.52-4.15-5.23a49.79,49.79,0,1,1-33.75-86.39c24.46,0,45.37,15.54,56.06,40.22a55.36,55.36,0,0,1,14.93-15.43,90.81,90.81,0,0,0-17.73-23.36,77.42,77.42,0,0,0-53.26-21.62,70,70,0,1,0,47.16,121.69Q966.67,177.63,963.05,173.49Z" transform="translate(-799.64 -59.49)"/><path class="cls-2" d="M1014.44,140a1.39,1.39,0,0,1-1.38-1.23,2.06,2.06,0,0,0-1.43-2,2.08,2.08,0,0,0-2.06,1.32,1.38,1.38,0,0,1-2.45-1.27,4.5,4.5,0,0,1,8.69,1.64,1.37,1.37,0,0,1-1.23,1.51Z" transform="translate(-799.64 -59.49)"/><path class="cls-2" d="M1029.78,144.9l-.24,0a1.38,1.38,0,0,1-1.12-1.6,2.4,2.4,0,0,0-4.28-2.14,1.38,1.38,0,1,1-2-1.89,5.13,5.13,0,0,1,9,4.51A1.38,1.38,0,0,1,1029.78,144.9Z" transform="translate(-799.64 -59.49)"/><path class="cls-2" d="M1016.33,157.13a6.5,6.5,0,0,1-1.57-.2c-3.13-.79-5.34-3.84-5.5-7.6a1.38,1.38,0,1,1,2.76-.12c.11,2.53,1.48,4.56,3.41,5s4.1-.64,5.39-2.82a1.38,1.38,0,0,1,2.37,1.41A8.22,8.22,0,0,1,1016.33,157.13Z" transform="translate(-799.64 -59.49)"/><path class="cls-2" d="M1061,92.93a3.86,3.86,0,0,1-3.86,3.85h-4.61v4.62a3.63,3.63,0,0,1-.15,1,3.85,3.85,0,0,1-7.56-1V96.78h-4.61a3.86,3.86,0,0,1,0-7.71h4.61V84.46a3.86,3.86,0,0,1,7.71,0v4.61h4.61A3.86,3.86,0,0,1,1061,92.93Z" transform="translate(-799.64 -59.49)"/><path class="cls-2" d="M1075.54,81.54V104a3.85,3.85,0,1,1-7.7,0V87.92a3.85,3.85,0,0,1-3.43-6.9l5.49-2.89a3.85,3.85,0,0,1,5.64,3.41Z" transform="translate(-799.64 -59.49)"/><path class="cls-3" d="M1057.1,89.07h-4.61V84.46a3.86,3.86,0,0,0-7.71,0v4.61h-4.61a3.86,3.86,0,0,0,0,7.71h4.61v4.62a3.85,3.85,0,0,0,7.56,1,3.63,3.63,0,0,0,.15-1V96.78h4.61a3.86,3.86,0,1,0,0-7.71Z" transform="translate(-799.64 -59.49)"/><path class="cls-3" d="M1073.68,78.24a3.86,3.86,0,0,0-3.78-.11L1064.41,81a3.85,3.85,0,0,0,3.43,6.9V104a3.85,3.85,0,1,0,7.7,0V81.54A3.87,3.87,0,0,0,1073.68,78.24Z" transform="translate(-799.64 -59.49)"/><path class="cls-5" d="M992.82,168.56l-.66-.51Z" transform="translate(-799.64 -59.49)"/><path class="cls-5" d="M1014.31,179.18c-.37-.08-.74-.19-1.11-.28C1013.57,179,1013.94,179.1,1014.31,179.18Z" transform="translate(-799.64 -59.49)"/><path class="cls-5" d="M990.2,166.44l-.69-.61Z" transform="translate(-799.64 -59.49)"/><path class="cls-5" d="M988.12,164.59l-.69-.65Z" transform="translate(-799.64 -59.49)"/><path class="cls-5" d="M995.12,170.27c-.3-.21-.61-.43-.91-.66C994.51,169.84,994.82,170.06,995.12,170.27Z" transform="translate(-799.64 -59.49)"/><path class="cls-5" d="M1017.4,179.81l-1.24-.22Z" transform="translate(-799.64 -59.49)"/><path class="cls-5" d="M1002.36,174.7l-1.06-.56Z" transform="translate(-799.64 -59.49)"/><path class="cls-5" d="M1004.54,175.77l-1.09-.52Z" transform="translate(-799.64 -59.49)"/><path class="cls-5" d="M997.25,171.73l-1-.64Z" transform="translate(-799.64 -59.49)"/><path class="cls-5" d="M985.54,162.11c.11.12.22.22.34.33l-.34-.33Z" transform="translate(-799.64 -59.49)"/><path class="cls-5" d="M1009.79,177.87c-.36-.12-.73-.24-1.09-.38C1009.06,177.63,1009.43,177.75,1009.79,177.87Z" transform="translate(-799.64 -59.49)"/><path class="cls-5" d="M1000,173.38c-.47-.27-.93-.55-1.4-.84C999,172.83,999.48,173.11,1000,173.38Z" transform="translate(-799.64 -59.49)"/><path class="cls-5" d="M1012.06,178.58l-1.14-.34Z" transform="translate(-799.64 -59.49)"/><path class="cls-5" d="M1006.72,176.73c-.35-.14-.7-.3-1.05-.45C1006,176.43,1006.37,176.59,1006.72,176.73Z" transform="translate(-799.64 -59.49)"/><path class="cls-5" d="M1057.1,89.07h-4.61V84.46a3.86,3.86,0,0,0-7.71,0v4.61h-4.61a3.86,3.86,0,0,0,0,7.71h4.61v4.62a3.85,3.85,0,0,0,7.56,1,3.63,3.63,0,0,0,.15-1V96.78h4.61a3.86,3.86,0,1,0,0-7.71Z" transform="translate(-799.64 -59.49)"/><path class="cls-5" d="M970.61,143.05l-.47-.75Z" transform="translate(-799.64 -59.49)"/><path class="cls-5" d="M961.49,133.94a9,9,0,0,0-1.27-.18A9,9,0,0,1,961.49,133.94Z" transform="translate(-799.64 -59.49)"/><path class="cls-5" d="M1075.54,104V81.54a3.85,3.85,0,0,0-5.64-3.41L1064.41,81a3.85,3.85,0,0,0,3.43,6.9V104a3.85,3.85,0,1,0,7.7,0Z" transform="translate(-799.64 -59.49)"/><path class="cls-5" d="M1022.13,180.42l-1.1-.11Z" transform="translate(-799.64 -59.49)"/><path class="cls-5" d="M973.1,146.86h0c-.12-.18-.25-.36-.37-.55C972.85,146.48,973,146.68,973.1,146.86Z" transform="translate(-799.64 -59.49)"/><path class="cls-5" d="M1019.8,180.17c-.38,0-.76-.09-1.13-.15C1019,180.08,1019.42,180.13,1019.8,180.17Z" transform="translate(-799.64 -59.49)"/><path class="cls-2" d="M1028,95.92c-.49,3.1-2.76,4.45-5.92,4.55l.2.07a47.1,47.1,0,0,0-25.53,8.81,51.15,51.15,0,0,0-14.94,16.89,58.84,58.84,0,0,0-5.3,12.77c-.22.77-.45,1.48-.7,2.17a105.08,105.08,0,0,0,12.87,16.43,49.38,49.38,0,0,0,5-10.19c.37-1,.71-2.08,1-3.2a37.38,37.38,0,0,1,8.85-15.75,28.82,28.82,0,0,1,20.91-9.08c17.77,0,31.18,13.41,31.18,31.18a29.42,29.42,0,0,1-9.22,21.26,30.52,30.52,0,0,1-22,8.72c-.23,0-.47,0-.71,0-.51,0-1,0-1.54-.09l-1.1-.11c-.41,0-.82-.08-1.23-.14s-.76-.09-1.13-.15-.85-.13-1.27-.21l-1.24-.22c-.62-.13-1.23-.26-1.85-.41-.37-.08-.74-.19-1.11-.28l-1.14-.32c-.38-.1-.76-.22-1.14-.34l-1.13-.37c-.36-.12-.73-.24-1.09-.38-.66-.24-1.32-.49-2-.76-.35-.14-.7-.3-1.05-.45l-1.13-.51-1.09-.52-1.09-.55-1.06-.56c-.45-.24-.9-.5-1.35-.76s-.93-.55-1.4-.84l-1.3-.81-1-.64-1.18-.82c-.3-.21-.61-.43-.91-.66-.47-.34-.93-.69-1.39-1.05l-.66-.51c-.66-.52-1.31-1.06-2-1.61l-.69-.61-1.39-1.24-.69-.65c-.52-.49-1-1-1.55-1.5-.12-.11-.23-.21-.34-.33h0a105.53,105.53,0,0,1-12.44-15.26h0c-.13-.18-.25-.38-.37-.56-.71-1.06-1.42-2.14-2.12-3.25l-.47-.75c-.79-1.26-1.57-2.54-2.34-3.87a9.4,9.4,0,0,0-6.31-4.49,9,9,0,0,0-1.27-.18,9.43,9.43,0,0,0-5.34,1.27h0A9.44,9.44,0,0,0,951.49,148a145.58,145.58,0,0,0,9.36,14.21q2.25,3.06,4.62,5.87a10,10,0,0,0,1.51,1.76q3.56,4.08,7.3,7.61c14.68,13.89,31.4,21.39,49.44,22,.55,0,1.08,0,1.63,0a49.59,49.59,0,0,0,34.15-14,48.19,48.19,0,0,0,15-34.85,50.76,50.76,0,0,0-5.61-23.39,5.29,5.29,0,0,1,2.58-6.36c.17-.12.33-.21.49-.31h0A30.58,30.58,0,1,0,1028,93,21.88,21.88,0,0,1,1028,95.92Zm29.12.86h-4.61v4.62a3.63,3.63,0,0,1-.15,1,3.85,3.85,0,0,1-7.56-1V96.78h-4.61a3.86,3.86,0,0,1,0-7.71h4.61V84.46a3.86,3.86,0,0,1,7.71,0v4.61h4.61a3.86,3.86,0,1,1,0,7.71Zm18.44,7.24a3.85,3.85,0,1,1-7.7,0V87.92a3.85,3.85,0,0,1-3.43-6.9l5.49-2.89a3.85,3.85,0,0,1,5.64,3.41Z" transform="translate(-799.64 -59.49)"/><path class="cls-3" d="M1018.67,180c-.42-.06-.85-.13-1.27-.21C1017.82,179.89,1018.25,180,1018.67,180Z" transform="translate(-799.64 -59.49)"/><path class="cls-3" d="M1008.7,177.49c-.66-.24-1.32-.49-2-.76C1007.38,177,1008,177.25,1008.7,177.49Z" transform="translate(-799.64 -59.49)"/><path class="cls-3" d="M1010.92,178.24l-1.13-.37Z" transform="translate(-799.64 -59.49)"/><path class="cls-3" d="M1021,180.31c-.41,0-.82-.08-1.23-.14C1020.21,180.23,1020.62,180.27,1021,180.31Z" transform="translate(-799.64 -59.49)"/><path class="cls-3" d="M1016.16,179.59c-.62-.13-1.23-.26-1.85-.41C1014.93,179.33,1015.54,179.46,1016.16,179.59Z" transform="translate(-799.64 -59.49)"/><path class="cls-3" d="M1023.67,180.51c-.51,0-1,0-1.54-.09C1022.64,180.46,1023.16,180.49,1023.67,180.51Z" transform="translate(-799.64 -59.49)"/><path class="cls-3" d="M1013.2,178.9l-1.14-.32Z" transform="translate(-799.64 -59.49)"/><path class="cls-3" d="M1001.3,174.14c-.45-.24-.9-.5-1.35-.76C1000.4,173.64,1000.85,173.9,1001.3,174.14Z" transform="translate(-799.64 -59.49)"/><path class="cls-3" d="M972.73,146.3c-.71-1.06-1.42-2.14-2.12-3.25C971.31,144.16,972,145.24,972.73,146.3Z" transform="translate(-799.64 -59.49)"/><path class="cls-3" d="M987.43,163.94c-.52-.49-1-1-1.55-1.5C986.39,163,986.91,163.45,987.43,163.94Z" transform="translate(-799.64 -59.49)"/><path class="cls-3" d="M989.51,165.83l-1.39-1.24Z" transform="translate(-799.64 -59.49)"/><path class="cls-3" d="M1005.67,176.28l-1.13-.51Z" transform="translate(-799.64 -59.49)"/><path class="cls-3" d="M960.22,133.76a9.41,9.41,0,0,0-5.34,1.27h0A9.43,9.43,0,0,1,960.22,133.76Z" transform="translate(-799.64 -59.49)"/><path class="cls-3" d="M961.49,133.94a9.4,9.4,0,0,1,6.31,4.49c.77,1.33,1.55,2.61,2.34,3.87-.78-1.26-1.57-2.54-2.33-3.87A9.42,9.42,0,0,0,961.49,133.94Z" transform="translate(-799.64 -59.49)"/><path class="cls-3" d="M1003.45,175.25l-1.09-.55Z" transform="translate(-799.64 -59.49)"/><path class="cls-3" d="M998.55,172.54l-1.3-.81Z" transform="translate(-799.64 -59.49)"/><path class="cls-3" d="M996.3,171.09l-1.18-.82Z" transform="translate(-799.64 -59.49)"/><path class="cls-3" d="M992.16,168.05c-.66-.52-1.31-1.06-2-1.61C990.85,167,991.5,167.53,992.16,168.05Z" transform="translate(-799.64 -59.49)"/><path class="cls-3" d="M994.21,169.61c-.47-.34-.93-.69-1.39-1.05C993.28,168.92,993.74,169.27,994.21,169.61Z" transform="translate(-799.64 -59.49)"/></svg>