<svg xmlns="http://www.w3.org/2000/svg" viewBox="0 0 296.71 321.03"><defs><style>.cls-1{fill:#888;}.cls-2{fill:#89c3eb;}.cls-3{fill:#fff;}.cls-4{fill:#f7adc3;}.cls-5{fill:none;}</style></defs><g id="Layer_2" data-name="Layer 2"><g id="レイヤー_1" data-name="レイヤー 1"><path class="cls-1" d="M98.93,222.43a3.26,3.26,0,0,1-2.24-.81,2.89,2.89,0,0,1-.93-2.32v-7.47c-.65.91-1.31,1.81-2,2.69s-1.26,1.59-1.78,2.15a3.41,3.41,0,0,1-2.23,1.12,2.87,2.87,0,0,1-2.32-.73,2.93,2.93,0,0,1-.92-2,2.29,2.29,0,0,1,.73-2c.55-.55,1.2-1.26,1.93-2.12s1.47-1.78,2.22-2.74,1.38-1.81,1.9-2.56H90.63a2.77,2.77,0,0,1-2.15-.86,3,3,0,0,1-.78-2.07,2.86,2.86,0,0,1,.78-2.05,2.79,2.79,0,0,1,2.15-.83h5.13v-2.49H90a2.63,2.63,0,0,1-2-.81,2.7,2.7,0,0,1-.76-1.93,2.77,2.77,0,0,1,.76-1.95,2.58,2.58,0,0,1,2-.83h2c-.13-.39-.26-.77-.39-1.13l-.3-.83a2.2,2.2,0,0,1,.08-1.56,2.53,2.53,0,0,1,1-1.17H90.63a2.48,2.48,0,0,1-1.95-.81,2.71,2.71,0,0,1-.74-1.88,2.77,2.77,0,0,1,.74-1.93,2.47,2.47,0,0,1,1.95-.8h5v-1.91a2.79,2.79,0,0,1,1-2.29,3.7,3.7,0,0,1,4.67,0,2.83,2.83,0,0,1,1,2.29v1.91h4.4a2.56,2.56,0,0,1,2,.8,2.76,2.76,0,0,1,.73,1.93,2.7,2.7,0,0,1-.73,1.88,2.57,2.57,0,0,1-2,.81h-1a2.72,2.72,0,0,1,1,1.32,2.36,2.36,0,0,1-.07,1.8,3.29,3.29,0,0,1-.22.71c-.11.28-.24.56-.37.86H107a2.5,2.5,0,0,1,2,.83,2.83,2.83,0,0,1,.73,1.95,2.76,2.76,0,0,1-.73,1.93,2.56,2.56,0,0,1-2,.81h-4.93v2.49h4.34a2.79,2.79,0,0,1,2.15.83,2.86,2.86,0,0,1,.78,2.05,3,3,0,0,1-.78,2.07,2.77,2.77,0,0,1-2.15.86h-2.59c.56.62,1.23,1.29,2,2a26,26,0,0,0,2.13,1.79,2.8,2.8,0,0,1,.34,4.1,2.49,2.49,0,0,1-2,1,3.17,3.17,0,0,1-2.17-.83c-.23-.26-.53-.58-.91-1s-.75-.77-1.14-1.19v7.71a3,3,0,0,1-.91,2.32A3.27,3.27,0,0,1,98.93,222.43Zm-1-30.57h2c.16-.49.36-1.06.61-1.71s.43-1.14.56-1.47a3,3,0,0,1,1.12-1.51H95.85a2.91,2.91,0,0,1,.47.46,2.32,2.32,0,0,1,.37.66c.09.2.22.53.39,1l.48,1.42A10.29,10.29,0,0,1,97.91,191.86ZM109,221.8a3.89,3.89,0,0,1-2.76.14,2.94,2.94,0,0,1-1.88-1.76,2.86,2.86,0,0,1,0-2.37,3.43,3.43,0,0,1,1.81-1.58,10.42,10.42,0,0,0,4.93-3.81A13.48,13.48,0,0,0,113.1,206a4.66,4.66,0,0,1-2.23-2.51,13.08,13.08,0,0,1-.66-4.62V186.58a12.41,12.41,0,0,1,.76-4.86,4.45,4.45,0,0,1,2.59-2.44,14.32,14.32,0,0,1,5-.71h3.56a14.26,14.26,0,0,1,5,.71,4.43,4.43,0,0,1,2.56,2.44,12.41,12.41,0,0,1,.76,4.86v12.26a11.56,11.56,0,0,1-.93,5.23,4.77,4.77,0,0,1-3.27,2.34v7.86a.85.85,0,0,0,.2.66,1.1,1.1,0,0,0,.73.17.86.86,0,0,0,.76-.31,5.83,5.83,0,0,0,.51-1.25,2.43,2.43,0,0,1,1.29-1.54,3.31,3.31,0,0,1,2.37-.17,2.83,2.83,0,0,1,1.64,1.2,2.77,2.77,0,0,1,.41,2.22A7.89,7.89,0,0,1,132,220a6.42,6.42,0,0,1-4.47,1.51h-1.12a9.18,9.18,0,0,1-4.74-.93c-1-.62-1.46-1.87-1.46-3.76v-10h-1.27a18.81,18.81,0,0,1-2.93,9.52A14.67,14.67,0,0,1,109,221.8Zm7.77-35h7.08a3,3,0,0,0-.46-2,3.59,3.59,0,0,0-2.33-.49h-1.51a3.55,3.55,0,0,0-2.29.49A2.83,2.83,0,0,0,116.81,186.83Zm0,7h7.08v-2.39h-7.08Zm2.78,7.18h1.51c1.24,0,2-.17,2.33-.51a3.24,3.24,0,0,0,.46-2h-7.08a3.18,3.18,0,0,0,.46,2C117.58,200.87,118.35,201,119.59,201Z"/><path class="cls-1" d="M173.48,210.28A3.14,3.14,0,0,1,171,212a3.64,3.64,0,0,1-2-.77l-.81-.56c-1.37-.94-2.83-2-4.38-3.05l-4.66-3.31q-2.33-1.66-4.38-3.17t-3.5-2.6a.87.87,0,0,0-.52-.22.94.94,0,0,0-.6.26c-.37.37-.91.91-1.64,1.62s-1.53,1.49-2.42,2.31l-2.47,2.4a3.36,3.36,0,0,1-2.31,1.15A3.91,3.91,0,0,1,139,204.9l-.39-.34q-2.48-2.15,0-4.15l2-1.67c1.08-.85,2.17-1.72,3.25-2.6s2-1.67,2.91-2.35,1.46-1.17,1.83-1.46a3.13,3.13,0,0,1,1.58-.87l.6,0a3.68,3.68,0,0,1,2.22.89l2.65,1.82c1.14.78,2.45,1.65,3.91,2.61l4.58,3,4.63,3q2.26,1.43,4.19,2.54l.17.13a3.05,3.05,0,0,1,1.61,1.86,3.21,3.21,0,0,1-.8,2.37Z"/><path class="cls-1" d="M202.89,219.21a2.64,2.64,0,0,1-.94.17,2.6,2.6,0,0,1-2.23-1.45,9.71,9.71,0,0,1-.89-1.84,2.16,2.16,0,0,1-.07-1.34,2,2,0,0,1,.86-1,8.49,8.49,0,0,1,1.81-.81,20.33,20.33,0,0,0,3.64-1.62,12.43,12.43,0,0,0,4.57-4.36,10.45,10.45,0,0,0,1.41-5.26,11.37,11.37,0,0,0-2.44-7.33,11.17,11.17,0,0,0-6.92-3.91A65.78,65.78,0,0,1,200,200.58a45.84,45.84,0,0,1-2.93,8.33,20.36,20.36,0,0,1-3.74,5.65,6,6,0,0,1-4.21,2.05,7,7,0,0,1-3.59-1,11.12,11.12,0,0,1-3.18-2.88,14.8,14.8,0,0,1-2.27-4.43,18.34,18.34,0,0,1-.83-5.64,17.62,17.62,0,0,1,1.33-6.81,17,17,0,0,1,3.88-5.73,18.63,18.63,0,0,1,6.27-4,22.74,22.74,0,0,1,8.39-1.46,20.83,20.83,0,0,1,8,1.44,16.93,16.93,0,0,1,5.81,3.86,16.68,16.68,0,0,1,3.55,5.47,17.07,17.07,0,0,1,1.19,6.24v.13a16,16,0,0,1-4.31,11.33A23.36,23.36,0,0,1,202.89,219.21Zm-14.23-9.87c.39,0,.91-.46,1.53-1.39a20.39,20.39,0,0,0,1.95-3.93,51.81,51.81,0,0,0,1.9-6,59.11,59.11,0,0,0,1.41-7.61,12,12,0,0,0-5.58,2.44,11.68,11.68,0,0,0-3.35,4.36,12.89,12.89,0,0,0-1.11,5.25,11,11,0,0,0,1,5C187.05,208.71,187.8,209.34,188.66,209.34Z"/><path class="cls-1" d="M180.29,281a2.71,2.71,0,0,1-.95.18,2.63,2.63,0,0,1-2.25-1.47,9.85,9.85,0,0,1-.9-1.85,2.09,2.09,0,0,1-.07-1.36,2,2,0,0,1,.87-1,8.44,8.44,0,0,1,1.83-.82,20.66,20.66,0,0,0,3.67-1.64,12.41,12.41,0,0,0,4.61-4.4,10.51,10.51,0,0,0,1.42-5.3,11.55,11.55,0,0,0-2.45-7.4,11.27,11.27,0,0,0-7-4,67.07,67.07,0,0,1-1.75,10.23,46.74,46.74,0,0,1-3,8.41,20.89,20.89,0,0,1-3.78,5.69,6,6,0,0,1-4.25,2.07,7.09,7.09,0,0,1-3.62-1,11.38,11.38,0,0,1-3.22-2.91,14.7,14.7,0,0,1-2.28-4.47,18.32,18.32,0,0,1-.84-5.69,17.94,17.94,0,0,1,1.33-6.88,17,17,0,0,1,3.93-5.78,18.53,18.53,0,0,1,6.32-4,23,23,0,0,1,8.48-1.47,21.19,21.19,0,0,1,8.11,1.44,17.16,17.16,0,0,1,5.86,3.91A16.71,16.71,0,0,1,194,257a16.92,16.92,0,0,1,1.21,6.3v.13a16.1,16.1,0,0,1-4.36,11.43A23.57,23.57,0,0,1,180.29,281Zm-14.37-10c.4,0,.92-.47,1.55-1.4a21.12,21.12,0,0,0,2-4,54.9,54.9,0,0,0,1.92-6.06,61.68,61.68,0,0,0,1.42-7.68,12,12,0,0,0-5.63,2.46,11.81,11.81,0,0,0-3.39,4.4,13.13,13.13,0,0,0-1.12,5.3,11,11,0,0,0,1,5C164.3,270.35,165.06,271,165.92,271Z"/><path class="cls-1" d="M201.16,258.68a2.86,2.86,0,0,1-1.2-1.92,2.6,2.6,0,0,1,.51-2.17,20.56,20.56,0,0,0,2.64-4.61,17.81,17.81,0,0,0,1.16-5.1,5.62,5.62,0,0,1,1.53-3.75,6.61,6.61,0,0,1,4-1.43c1.32-.1,2.75-.27,4.29-.52s2.88-.48,4-.71a3,3,0,0,1,2.17.32,2.35,2.35,0,0,1,1.19,1.7,2.64,2.64,0,0,1-.32,2,2.57,2.57,0,0,1-1.7,1.13c-.93.17-2,.34-3.26.52s-2.38.31-3.4.37-1.76.48-2,1.14h10.6a2.3,2.3,0,0,1,1.82.71,2.71,2.71,0,0,1,0,3.5,2.31,2.31,0,0,1-1.82.72h-2.57v1.77a3,3,0,0,1-1,2.39,3.61,3.61,0,0,1-4.68,0,3,3,0,0,1-1-2.39V250.6h-2.47a21.79,21.79,0,0,1-1.65,4,17.74,17.74,0,0,1-2.14,3.23,4,4,0,0,1-2.22,1.36A3.27,3.27,0,0,1,201.16,258.68Zm6.76,25.74a4.09,4.09,0,0,1-2.81-.1,2.85,2.85,0,0,1-1.58-1.78,3.49,3.49,0,0,1,.07-2.41,2.58,2.58,0,0,1,2-1.48c1-.27,2.33-.63,3.82-1.09s2.87-.93,4.12-1.43c-2.07-.23-3.53-.87-4.36-1.92s-1.26-2.74-1.26-5.08V263a9.91,9.91,0,0,1,.76-4.31,4.35,4.35,0,0,1,2.54-2.2,14.7,14.7,0,0,1,4.78-.64h6.51a2.57,2.57,0,0,1-.29-3.84,11.13,11.13,0,0,0,2-3.31,13.5,13.5,0,0,0,.82-4,5,5,0,0,1,1.43-3.55,6,6,0,0,1,3.74-1.38c.92-.07,1.94-.17,3.06-.32s2.24-.32,3.38-.52l3-.54a3.45,3.45,0,0,1,2.24.24,2.14,2.14,0,0,1,1.21,1.63,3.09,3.09,0,0,1-.27,2.15,2.5,2.5,0,0,1-1.8,1.16c-1.12.23-2.41.43-3.87.61s-2.71.31-3.72.37a3.66,3.66,0,0,0-1.34.35,1.64,1.64,0,0,0-.69.79H244.1a2.32,2.32,0,0,1,1.83.71,2.71,2.71,0,0,1,0,3.5,2.33,2.33,0,0,1-1.83.72h-4.33v2.16a3,3,0,0,1-1,2.37,3.47,3.47,0,0,1-2.35.84,3.43,3.43,0,0,1-2.34-.84,3,3,0,0,1-1-2.37V250.6h-2.81a15.16,15.16,0,0,1-1.31,2.78,12.56,12.56,0,0,1-1.7,2.24l-.1.13a.33.33,0,0,1-.14.12h4.68a14.65,14.65,0,0,1,4.81.64,4.35,4.35,0,0,1,2.51,2.2,9.91,9.91,0,0,1,.76,4.31v6.11c0,2.34-.41,4-1.25,5.08s-2.29,1.69-4.37,1.92c1.25.5,2.62,1,4.12,1.43s2.75.82,3.77,1.09a2.58,2.58,0,0,1,2,1.48,3.43,3.43,0,0,1,.07,2.41,2.86,2.86,0,0,1-1.57,1.78,4.1,4.1,0,0,1-2.81.1c-1-.3-2.18-.69-3.48-1.16s-2.56-1-3.77-1.51-2.25-1-3.11-1.38a2.51,2.51,0,0,1-1.5-1.7,3.2,3.2,0,0,1,.32-2.14l.15-.3h-9.12l.14.3a3.14,3.14,0,0,1,.32,2.14,2.46,2.46,0,0,1-1.5,1.7c-.82.4-1.85.86-3.08,1.38s-2.5,1-3.8,1.51S208.94,284.12,207.92,284.42Zm7.1-17.65h17.7v-1.29H215Zm2.56,5h12.57a5.23,5.23,0,0,0,1.95-.25c.34-.17.53-.56.57-1.18H215a1.32,1.32,0,0,0,.64,1.18A5.23,5.23,0,0,0,217.58,271.75Zm-2.51-10h17.6c-.07-.63-.27-1-.62-1.16a5.43,5.43,0,0,0-1.9-.22H217.58a5.46,5.46,0,0,0-1.9.22C215.34,260.78,215.13,261.16,215.07,261.79Z"/><path class="cls-1" d="M256.92,284.51a3.49,3.49,0,0,1-2.44-.93,3.3,3.3,0,0,1-1-2.52v-34c0-2.77.64-4.71,1.93-5.85s3.4-1.7,6.35-1.7h3.7q4.44,0,6.36,1.7c1.28,1.14,1.92,3.08,1.92,5.85v2.71a9,9,0,0,1-.83,4.26,4.53,4.53,0,0,1-2.67,2.1,16,16,0,0,1-4.78.59h-5.13v24.35a3.31,3.31,0,0,1-1,2.52A3.39,3.39,0,0,1,256.92,284.51Zm3.4-32.88h4.34a4.57,4.57,0,0,0,1.93-.27c.32-.18.51-.63.54-1.36h-6.81Zm.05-5.52h6.71a1.48,1.48,0,0,0-.54-1.28,4,4,0,0,0-1.88-.3h-1.87a3.82,3.82,0,0,0-1.85.3A1.63,1.63,0,0,0,260.37,246.11Zm14.35,30.42a16.45,16.45,0,0,1-5.87-.84,5.31,5.31,0,0,1-3-2.66,11.25,11.25,0,0,1-.86-4.74,11,11,0,0,1,.86-4.7,5.32,5.32,0,0,1,3-2.64,20.93,20.93,0,0,1,11.74,0,5.32,5.32,0,0,1,3,2.64,10.87,10.87,0,0,1,.86,4.7,11.1,11.1,0,0,1-.86,4.74,5.31,5.31,0,0,1-3,2.66A16.45,16.45,0,0,1,274.72,276.53Zm0-5.57a3.71,3.71,0,0,0,2.27-.5,2.76,2.76,0,0,0,.59-2.12,2.88,2.88,0,0,0-.59-2.17,5.5,5.5,0,0,0-4.54,0,2.88,2.88,0,0,0-.59,2.17,2.76,2.76,0,0,0,.59,2.12A3.71,3.71,0,0,0,274.72,271Zm14.15,13.31a4,4,0,0,1-2.76-.91,3.73,3.73,0,0,1-1.14-2.49,3.25,3.25,0,0,1,.65-2.52,3.51,3.51,0,0,1,2.26-1.33q1.38-.24,1.68-.69a2.89,2.89,0,0,0,.3-1.53V256.71h-5.28a16,16,0,0,1-4.78-.59,4.64,4.64,0,0,1-2.69-2.1,8.69,8.69,0,0,1-.86-4.26v-2.67q0-4.14,1.95-5.86t6.38-1.73h3.8c3,0,5.08.58,6.38,1.73s1.95,3.1,1.95,5.86v29.68q0,3.9-1.88,5.7T288.87,284.27Zm-6-38.16h6.91q-.06-1-.57-1.26a4.41,4.41,0,0,0-1.85-.27h-2a4.33,4.33,0,0,0-1.87.27A1.52,1.52,0,0,0,282.9,246.11Zm2.47,5.52h4.49V250h-7c.07.73.27,1.18.6,1.36A4.33,4.33,0,0,0,285.37,251.63Z"/><path class="cls-1" d="M81.65,241.21a16.44,16.44,0,0,0-11.92-4.9,16.27,16.27,0,0,0-11.92,4.9,20.8,20.8,0,0,0-3.08,3.95,20.42,20.42,0,0,0-3.08-3.94,16.35,16.35,0,0,0-11.74-4.91h-.18a16.32,16.32,0,0,0-11.92,4.9c-4.61,4.58-7.11,11.78-7,20.21s2.44,15.71,7.06,20.28a16.33,16.33,0,0,0,11.72,4.9h.38a16.37,16.37,0,0,0,11.73-4.9,20.87,20.87,0,0,0,3.08-4,20.21,20.21,0,0,0,3.09,4,16.33,16.33,0,0,0,11.72,4.9h.38a16.37,16.37,0,0,0,11.73-4.9c4.6-4.57,7.11-11.76,7-20.25S86.25,245.78,81.65,241.21Zm-32,20.28c0,5.95-1.55,11-4.38,13.79a7.4,7.4,0,0,1-5.49,2.28h-.13a7.22,7.22,0,0,1-5.47-2.28c-2.83-2.8-4.43-7.83-4.39-13.86s1.55-11,4.38-13.79a7.4,7.4,0,0,1,5.37-2.28h.36a7.4,7.4,0,0,1,5.37,2.28c2.83,2.81,4.42,7.84,4.38,13.79v.07Zm30,0c0,5.95-1.55,11-4.38,13.79a7.41,7.41,0,0,1-5.48,2.28h-.14a7.26,7.26,0,0,1-5.48-2.28c-2.83-2.81-4.42-7.84-4.38-13.86s1.55-11,4.38-13.79a7.4,7.4,0,0,1,5.37-2.28h.36a7.4,7.4,0,0,1,5.37,2.28c2.83,2.81,4.42,7.83,4.38,13.79v.07Z"/><path class="cls-1" d="M9.52,285.86H9.46A4.51,4.51,0,0,1,5,281.28l.43-32.55a4.52,4.52,0,0,1-3-8.43L8,237.39a4.51,4.51,0,0,1,6.62,4.06L14,281.4A4.52,4.52,0,0,1,9.52,285.86Z"/><circle class="cls-2" cx="121.5" cy="261.45" r="28.27"/><path class="cls-3" d="M120.38,257.63h-4.32v-4.32a4,4,0,1,0-7.94,0v4.32H103.8a4,4,0,0,0,0,7.94h4.32v4.32a4,4,0,0,0,7.94,0v-4.32h4.32a4,4,0,0,0,0-7.94Z"/><path class="cls-3" d="M136.72,247.05a4,4,0,0,0-3.9-.12l-5.38,2.83a4,4,0,0,0,3.25,7.23v15.47a4,4,0,0,0,7.95,0v-22A4,4,0,0,0,136.72,247.05Z"/><path class="cls-1" d="M63.45,306.87a6.22,6.22,0,0,1,3.35,11.41l.93,1.49a.82.82,0,0,1-.28,1.14.79.79,0,0,1-1.1-.3l-1-1.63a6.53,6.53,0,0,1-1.88.28,6.2,6.2,0,0,1,0-12.39Zm0,10.57a4,4,0,0,0,.86-.09l-.8-1.31a.81.81,0,1,1,1.38-.86l1,1.53a4.36,4.36,0,0,0,1.87-3.63,4.25,4.25,0,1,0-4.26,4.36Z"/><path class="cls-1" d="M80,318.27a.92.92,0,0,1-.93.91.89.89,0,0,1-.87-.91v-.41a2.84,2.84,0,0,1-2.51,1.4c-2,0-3.12-1.27-3.12-3.59v-3.94a.92.92,0,0,1,.93-.91.89.89,0,0,1,.87.91v3.73c0,1.3.67,2,1.72,2a2,2,0,0,0,2.11-2.19v-3.57a.92.92,0,0,1,.92-.91.9.9,0,0,1,.88.91Z"/><path class="cls-1" d="M90.54,315.64H84.85a2.37,2.37,0,0,0,2.5,2.05,2.78,2.78,0,0,0,2-.79.92.92,0,0,1,1.16-.07.79.79,0,0,1,0,1.14,4.43,4.43,0,0,1-3.22,1.29A4.11,4.11,0,0,1,83.06,315a4.07,4.07,0,0,1,4.21-4.24,4,4,0,0,1,4.1,4.08A.83.83,0,0,1,90.54,315.64Zm-.94-1.32a2.22,2.22,0,0,0-2.33-2,2.29,2.29,0,0,0-2.42,2Z"/><path class="cls-1" d="M94.26,316.43a.67.67,0,0,1,.91.35,1.91,1.91,0,0,0,1.78,1c.82,0,1.42-.37,1.42-1s-.51-.76-1.11-.9l-1.1-.26c-1.74-.47-2.37-1.42-2.26-2.74a2.75,2.75,0,0,1,2.92-2.15,3,3,0,0,1,2.63,1.21.78.78,0,0,1-.16,1.05.76.76,0,0,1-1.05-.11,2.16,2.16,0,0,0-1.4-.56,1.43,1.43,0,0,0-1.14.44.76.76,0,0,0-.07.7c.11.32.6.48,1,.6l1.26.31a2.43,2.43,0,0,1,2.14,2.42c0,1.58-1.39,2.47-3.26,2.47a3.09,3.09,0,0,1-3-1.85A.75.75,0,0,1,94.26,316.43Z"/><path class="cls-1" d="M103.64,312.39h-.8a.75.75,0,0,1-.76-.72.77.77,0,0,1,.76-.77h.8v-2.27a.9.9,0,0,1,.88-.92.92.92,0,0,1,.93.92v2.27h1.07a.77.77,0,0,1,.75.77.74.74,0,0,1-.75.72h-1.07v5.88a.92.92,0,0,1-.93.91.9.9,0,0,1-.88-.91Z"/><path class="cls-1" d="M110.68,306.45a1.14,1.14,0,1,1,0,2.28,1.14,1.14,0,1,1,0-2.28Zm.91,5.28a.92.92,0,0,0-.93-.91.9.9,0,0,0-.88.91v6.54a.9.9,0,0,0,.88.91.92.92,0,0,0,.93-.91Z"/><path class="cls-1" d="M114.6,315a4.28,4.28,0,0,1,8.56,0,4.28,4.28,0,1,1-8.56,0Zm6.77,0a2.49,2.49,0,1,0-2.51,2.54A2.43,2.43,0,0,0,121.37,315Z"/><path class="cls-1" d="M126.18,311.73a.92.92,0,0,1,.93-.91.89.89,0,0,1,.87.91v.4a2.83,2.83,0,0,1,2.51-1.4c2,0,3.12,1.28,3.12,3.59v3.95a.92.92,0,0,1-.93.91.9.9,0,0,1-.88-.91v-3.74c0-1.3-.66-2-1.71-2a2,2,0,0,0-2.11,2.19v3.58a.92.92,0,0,1-.93.91.89.89,0,0,1-.87-.91Z"/><path class="cls-1" d="M137.07,316.43a.68.68,0,0,1,.91.35,1.89,1.89,0,0,0,1.77,1c.82,0,1.42-.37,1.42-1s-.51-.76-1.11-.9l-1.1-.26c-1.74-.47-2.37-1.42-2.26-2.74a2.76,2.76,0,0,1,2.93-2.15,2.94,2.94,0,0,1,2.62,1.21.78.78,0,0,1-.15,1.05.76.76,0,0,1-1-.11,2.2,2.2,0,0,0-1.41-.56,1.44,1.44,0,0,0-1.14.44.79.79,0,0,0-.07.7c.11.32.6.48,1,.6l1.26.31a2.43,2.43,0,0,1,2.14,2.42c0,1.58-1.39,2.47-3.26,2.47a3.11,3.11,0,0,1-3-1.85A.75.75,0,0,1,137.07,316.43Z"/><path class="cls-1" d="M153.64,312.39v5.88a.9.9,0,0,1-.88.91.92.92,0,0,1-.93-.91v-5.88h-.91a.74.74,0,0,1-.75-.72.77.77,0,0,1,.75-.77h.91v-.75c0-2.24,1-3.7,3.26-3.7h.14a.87.87,0,0,1,.88.84.89.89,0,0,1-.88.9h-.14c-1.19,0-1.45.93-1.45,2v.75h1.17a.77.77,0,0,1,.75.77.74.74,0,0,1-.75.72Z"/><path class="cls-1" d="M157.44,315a4.28,4.28,0,0,1,8.56,0,4.28,4.28,0,1,1-8.56,0Zm6.77,0a2.49,2.49,0,1,0-2.51,2.54A2.43,2.43,0,0,0,164.21,315Z"/><path class="cls-1" d="M170.82,316.14v2.13a.92.92,0,0,1-.93.91.9.9,0,0,1-.88-.91v-6.54a.9.9,0,0,1,.88-.91.92.92,0,0,1,.93.91v1c.42-1.46,1.23-2,2.24-2a3.8,3.8,0,0,1,.77.07.86.86,0,0,1,.65,1c-.15.79-.94.6-1.47.6C171.47,312.43,170.82,314,170.82,316.14Z"/><path class="cls-1" d="M184.16,318.23a1,1,0,0,1-1,.95.93.93,0,0,1-.89-.95V308a1,1,0,0,1,1-1h3.85a3.82,3.82,0,0,1,0,7.64h-3Zm0-9.5V313H187a2.12,2.12,0,0,0,.07-4.22Z"/><path class="cls-1" d="M199.72,317.91a3.29,3.29,0,0,1-2.76,1.35,4.27,4.27,0,0,1,0-8.53,3.27,3.27,0,0,1,2.76,1.33v-.33a.89.89,0,0,1,.87-.91.92.92,0,0,1,.93.91v6.54a.92.92,0,0,1-.93.91.89.89,0,0,1-.87-.91Zm-2.55-.4a2.52,2.52,0,1,0-2.5-2.54A2.44,2.44,0,0,0,197.17,317.51Z"/><path class="cls-1" d="M206.8,316.14v2.13a.92.92,0,0,1-.93.91.89.89,0,0,1-.87-.91v-6.54a.89.89,0,0,1,.87-.91.92.92,0,0,1,.93.91v1c.42-1.46,1.23-2,2.24-2a4,4,0,0,1,.78.07.86.86,0,0,1,.64,1c-.15.79-.94.6-1.47.6C207.45,312.43,206.8,314,206.8,316.14Z"/><path class="cls-1" d="M219.69,315.64H214a2.38,2.38,0,0,0,2.51,2.05,2.74,2.74,0,0,0,1.94-.79.92.92,0,0,1,1.16-.07.79.79,0,0,1,0,1.14,4.43,4.43,0,0,1-3.22,1.29A4.11,4.11,0,0,1,212.2,315a4.07,4.07,0,0,1,4.21-4.24,4,4,0,0,1,4.1,4.08A.82.82,0,0,1,219.69,315.64Zm-.95-1.32a2.21,2.21,0,0,0-2.33-2,2.3,2.3,0,0,0-2.42,2Z"/><path class="cls-1" d="M223.35,311.73a.92.92,0,0,1,.93-.91.9.9,0,0,1,.88.91v.4a2.82,2.82,0,0,1,2.51-1.4c2,0,3.12,1.28,3.12,3.59v3.95a.92.92,0,0,1-.93.91.9.9,0,0,1-.88-.91v-3.74c0-1.3-.67-2-1.72-2a2,2,0,0,0-2.1,2.19v3.58a.92.92,0,0,1-.93.91.9.9,0,0,1-.88-.91Z"/><path class="cls-1" d="M234.84,312.39H234a.74.74,0,0,1-.75-.72.77.77,0,0,1,.75-.77h.81v-2.27a.9.9,0,0,1,.88-.92.93.93,0,0,1,.93.92v2.27h1.06a.77.77,0,0,1,.76.77.74.74,0,0,1-.76.72h-1.06v5.88a.92.92,0,0,1-.93.91.9.9,0,0,1-.88-.91Z"/><path class="cls-1" d="M241,316.43a.67.67,0,0,1,.91.35,1.89,1.89,0,0,0,1.77,1c.82,0,1.42-.37,1.42-1s-.51-.76-1.1-.9l-1.11-.26c-1.73-.47-2.36-1.42-2.26-2.74a2.77,2.77,0,0,1,2.93-2.15,3,3,0,0,1,2.63,1.21.79.79,0,0,1-.16,1.05.76.76,0,0,1-1.05-.11,2.18,2.18,0,0,0-1.4-.56,1.42,1.42,0,0,0-1.14.44.76.76,0,0,0-.07.7c.1.32.59.48,1,.6l1.26.31a2.43,2.43,0,0,1,2.14,2.42c0,1.58-1.38,2.47-3.26,2.47a3.11,3.11,0,0,1-3-1.85A.75.75,0,0,1,241,316.43Z"/><path class="cls-4" d="M37.16,137.36A10.12,10.12,0,0,1,27,127.23V35a10.13,10.13,0,0,1-9.38-17L30,5.57a10.12,10.12,0,0,1,17.28,7.16v114.5A10.12,10.12,0,0,1,37.16,137.36Z"/><path class="cls-4" d="M108.44,57.75a1.8,1.8,0,0,1-1.79-1.56c-.5-3.62,1.1-6.94,4-8.25s6.44-.35,8.84,2.41a1.81,1.81,0,1,1-2.72,2.38c-1.35-1.55-3.21-2.15-4.62-1.5s-2.18,2.44-1.9,4.47a1.8,1.8,0,0,1-1.54,2A1.1,1.1,0,0,1,108.44,57.75Z"/><path class="cls-4" d="M142.2,50.3A1.79,1.79,0,0,1,140.46,49c-.55-2-2-3.32-3.52-3.35h-.05c-1.54,0-3,1.28-3.6,3.2A1.8,1.8,0,0,1,131,50a1.81,1.81,0,0,1-1.17-2.28c1.11-3.43,3.92-5.71,7-5.71H137c3.17.07,5.95,2.49,6.92,6a1.81,1.81,0,0,1-1.26,2.23A2,2,0,0,1,142.2,50.3Z"/><path class="cls-4" d="M130.61,79.2a10.47,10.47,0,0,1-8.92-5.82,1.81,1.81,0,1,1,3.17-1.74c1.54,2.83,4.24,4.37,6.72,3.84s4.31-3,4.56-6.25a1.84,1.84,0,0,1,2-1.66,1.81,1.81,0,0,1,1.66,2c-.38,4.82-3.36,8.64-7.41,9.5A8.54,8.54,0,0,1,130.61,79.2Z"/><path class="cls-4" d="M163.41,114a15.32,15.32,0,0,1-1.86-2.18q-2.12-2.53-4.15-5.23A49.79,49.79,0,1,1,123.65,20.2c24.46,0,45.37,15.53,56.06,40.21A55.64,55.64,0,0,1,194.64,45a90.92,90.92,0,0,0-17.73-23.36A77.42,77.42,0,0,0,123.65,0a70,70,0,1,0,47.16,121.69Q167,118.14,163.41,114Z"/><path class="cls-2" d="M214.8,80.53a1.38,1.38,0,0,1-1.37-1.24,1.78,1.78,0,0,0-3.5-.66,1.38,1.38,0,1,1-2.45-1.26A4.5,4.5,0,0,1,216.17,79a1.38,1.38,0,0,1-1.23,1.52Z"/><path class="cls-2" d="M230.15,85.41a1.1,1.1,0,0,1-.25,0,1.36,1.36,0,0,1-1.11-1.6,2.4,2.4,0,0,0-4.28-2.14,1.38,1.38,0,0,1-2-1.89,5.12,5.12,0,0,1,9,4.51A1.37,1.37,0,0,1,230.15,85.41Z"/><path class="cls-2" d="M216.7,97.64a6.52,6.52,0,0,1-1.58-.2c-3.13-.78-5.33-3.84-5.5-7.59a1.38,1.38,0,0,1,2.76-.13c.11,2.53,1.48,4.56,3.41,5s4.1-.65,5.39-2.83a1.38,1.38,0,0,1,2.38,1.41A8.22,8.22,0,0,1,216.7,97.64Z"/><path class="cls-2" d="M261.32,33.44a3.87,3.87,0,0,1-3.86,3.86h-4.61v4.61a3.63,3.63,0,0,1-.15,1,3.82,3.82,0,0,1-3.7,2.81,3.87,3.87,0,0,1-3.86-3.85V37.3h-4.61a3.86,3.86,0,0,1,0-7.71h4.61V25a3.86,3.86,0,0,1,7.71,0v4.62h4.61A3.85,3.85,0,0,1,261.32,33.44Z"/><path class="cls-2" d="M275.91,22.06V44.53a3.86,3.86,0,0,1-7.71,0V28.44a3.85,3.85,0,0,1-3.43-6.9l5.49-2.9a3.86,3.86,0,0,1,5.65,3.42Z"/><path class="cls-3" d="M257.46,29.59h-4.61V25a3.86,3.86,0,0,0-7.71,0v4.62h-4.61a3.86,3.86,0,0,0,0,7.71h4.61v4.61A3.87,3.87,0,0,0,249,45.76,3.82,3.82,0,0,0,252.7,43a3.63,3.63,0,0,0,.15-1V37.3h4.61a3.86,3.86,0,1,0,0-7.71Z"/><path class="cls-3" d="M274,18.75a3.86,3.86,0,0,0-3.78-.11l-5.49,2.9a3.85,3.85,0,0,0,3.43,6.9V44.53a3.86,3.86,0,0,0,7.71,0V22.06A3.89,3.89,0,0,0,274,18.75Z"/><path class="cls-5" d="M193.18,109.07l-.66-.5Z"/><path class="cls-5" d="M214.67,119.7l-1.1-.29Z"/><path class="cls-5" d="M190.57,107l-.7-.61Z"/><path class="cls-5" d="M188.49,105.1l-.7-.64Z"/><path class="cls-5" d="M195.48,110.79l-.91-.66Z"/><path class="cls-5" d="M217.76,120.33l-1.24-.23Z"/><path class="cls-5" d="M202.72,115.21l-1.06-.55Z"/><path class="cls-5" d="M204.91,116.29l-1.1-.53Z"/><path class="cls-5" d="M197.62,112.24l-1-.64Z"/><path class="cls-5" d="M185.9,102.63c.11.11.23.21.34.33-.11-.12-.23-.22-.34-.34Z"/><path class="cls-5" d="M210.16,118.38l-1.1-.37Z"/><path class="cls-5" d="M200.31,113.89l-1.4-.83Z"/><path class="cls-5" d="M212.42,119.1l-1.14-.34Z"/><path class="cls-5" d="M207.09,117.24c-.36-.14-.71-.3-1.06-.45C206.38,116.94,206.73,117.1,207.09,117.24Z"/><path class="cls-5" d="M257.46,29.59h-4.61V25a3.86,3.86,0,0,0-7.71,0v4.62h-4.61a3.86,3.86,0,0,0,0,7.71h4.61v4.61A3.87,3.87,0,0,0,249,45.76,3.82,3.82,0,0,0,252.7,43a3.63,3.63,0,0,0,.15-1V37.3h4.61a3.86,3.86,0,1,0,0-7.71Z"/><path class="cls-5" d="M171,83.56c-.16-.24-.31-.5-.47-.75Z"/><path class="cls-5" d="M161.85,74.45a9,9,0,0,0-1.27-.17A9,9,0,0,1,161.85,74.45Z"/><path class="cls-5" d="M275.91,44.53V22.06a3.86,3.86,0,0,0-5.65-3.42l-5.49,2.9a3.85,3.85,0,0,0,3.43,6.9V44.53a3.86,3.86,0,0,0,7.71,0Z"/><path class="cls-5" d="M222.5,120.93l-1.11-.1Z"/><path class="cls-5" d="M173.46,87.38v0c-.12-.18-.25-.36-.37-.55C173.21,87,173.33,87.19,173.46,87.38Z"/><path class="cls-5" d="M220.16,120.69l-1.13-.15Z"/><path class="cls-2" d="M228.35,36.44c-.49,3.09-2.77,4.44-5.93,4.54l.2.07a47.14,47.14,0,0,0-25.53,8.82,51.12,51.12,0,0,0-14.94,16.88,59.42,59.42,0,0,0-5.3,12.78q-.33,1.14-.69,2.16A105.05,105.05,0,0,0,189,98.12a49.13,49.13,0,0,0,5-10.19c.37-1,.72-2.07,1-3.2A37.38,37.38,0,0,1,203.86,69a28.83,28.83,0,0,1,20.91-9.08C242.55,59.9,256,73.31,256,91.09a29.39,29.39,0,0,1-9.22,21.25,30.52,30.52,0,0,1-22,8.73l-.72,0q-.76,0-1.53-.09l-1.11-.1-1.23-.14-1.13-.15-1.27-.21-1.24-.23c-.61-.12-1.23-.26-1.85-.4l-1.1-.29-1.15-.31-1.14-.34-1.12-.38-1.1-.37c-.66-.24-1.32-.5-2-.77-.36-.14-.71-.3-1.06-.45l-1.12-.5-1.1-.53-1.09-.55-1.06-.55-1.35-.77-1.4-.83-1.29-.82-1-.64-1.18-.81-.91-.66-1.39-1.06-.66-.5q-1-.79-2-1.62l-.7-.61c-.46-.4-.92-.82-1.38-1.24l-.7-.64c-.52-.49-1-1-1.55-1.5-.11-.12-.23-.22-.34-.33h0a105.53,105.53,0,0,1-12.44-15.26v0c-.13-.19-.25-.38-.37-.57-.71-1.06-1.42-2.14-2.12-3.25l-.47-.75c-.78-1.26-1.57-2.54-2.34-3.86a9.41,9.41,0,0,0-6.31-4.5,9,9,0,0,0-1.27-.17,9.35,9.35,0,0,0-5.34,1.27h0a9.46,9.46,0,0,0-3.39,12.93,144.21,144.21,0,0,0,9.36,14.2q2.25,3.06,4.62,5.87a9.64,9.64,0,0,0,1.51,1.76q3.56,4.1,7.3,7.61c14.68,13.89,31.41,21.4,49.44,22l1.63,0a49.54,49.54,0,0,0,34.15-14,48.16,48.16,0,0,0,15-34.84,50.77,50.77,0,0,0-5.61-23.4,5.29,5.29,0,0,1,2.58-6.36c.17-.12.34-.21.49-.3h0a30.58,30.58,0,1,0-43.93-27.52A23.87,23.87,0,0,1,228.35,36.44Zm29.11.86h-4.61v4.61a3.63,3.63,0,0,1-.15,1,3.82,3.82,0,0,1-3.7,2.81,3.87,3.87,0,0,1-3.86-3.85V37.3h-4.61a3.86,3.86,0,0,1,0-7.71h4.61V25a3.86,3.86,0,0,1,7.71,0v4.62h4.61a3.86,3.86,0,1,1,0,7.71Zm18.45,7.23a3.86,3.86,0,0,1-7.71,0V28.44a3.85,3.85,0,0,1-3.43-6.9l5.49-2.9a3.86,3.86,0,0,1,5.65,3.42Z"/><path class="cls-3" d="M219,120.54l-1.27-.21Z"/><path class="cls-3" d="M209.06,118c-.66-.25-1.32-.5-2-.77C207.74,117.51,208.4,117.76,209.06,118Z"/><path class="cls-3" d="M211.28,118.76l-1.12-.38Z"/><path class="cls-3" d="M221.39,120.83l-1.23-.14Z"/><path class="cls-3" d="M216.52,120.1c-.61-.12-1.23-.26-1.85-.4C215.29,119.84,215.91,120,216.52,120.1Z"/><path class="cls-3" d="M224,121q-.76,0-1.53-.09Q223.27,121,224,121Z"/><path class="cls-3" d="M213.57,119.41l-1.15-.31Z"/><path class="cls-3" d="M201.66,114.66l-1.35-.77Z"/><path class="cls-3" d="M173.09,86.81c-.71-1.06-1.42-2.14-2.12-3.25C171.67,84.67,172.38,85.75,173.09,86.81Z"/><path class="cls-3" d="M187.79,104.46c-.52-.49-1-1-1.55-1.5C186.75,103.47,187.27,104,187.79,104.46Z"/><path class="cls-3" d="M189.87,106.34c-.46-.4-.92-.82-1.38-1.24C189,105.52,189.41,105.94,189.87,106.34Z"/><path class="cls-3" d="M206,116.79l-1.12-.5Z"/><path class="cls-3" d="M160.58,74.28a9.34,9.34,0,0,0-5.34,1.26h0A9.35,9.35,0,0,1,160.58,74.28Z"/><path class="cls-3" d="M161.85,74.45a9.41,9.41,0,0,1,6.31,4.5c.77,1.32,1.56,2.6,2.34,3.86-.78-1.26-1.56-2.54-2.33-3.87A9.42,9.42,0,0,0,161.85,74.45Z"/><path class="cls-3" d="M203.81,115.76l-1.09-.55Z"/><path class="cls-3" d="M198.91,113.06l-1.29-.82Z"/><path class="cls-3" d="M196.66,111.6l-1.18-.81Z"/><path class="cls-3" d="M192.52,108.57q-1-.79-2-1.62Q191.53,107.78,192.52,108.57Z"/><path class="cls-3" d="M194.57,110.13l-1.39-1.06Z"/></g></g></svg>