<svg xmlns="http://www.w3.org/2000/svg" width="194.804" height="199.769" viewBox="0 0 194.804 199.769">
  <g id="Group_170" data-name="Group 170" transform="translate(-2394.742 -398.9)">
    <g id="Group_67" data-name="Group 67" transform="translate(2394.742 503.923)">
      <g id="Group_58" data-name="Group 58" transform="translate(56.802)">
        <g id="Group_57" data-name="Group 57">
          <path id="Path_134" data-name="Path 134" d="M2487.921,602.591a2.173,2.173,0,0,1-1.475-.529,1.91,1.91,0,0,1-.609-1.523v-4.906q-.642.9-1.3,1.764a17.792,17.792,0,0,1-1.17,1.411,2.216,2.216,0,0,1-1.459.737,1.877,1.877,0,0,1-1.523-.481,1.933,1.933,0,0,1-.609-1.3,1.523,1.523,0,0,1,.481-1.3q.545-.545,1.267-1.4t1.459-1.8q.737-.945,1.25-1.684h-1.764a1.816,1.816,0,0,1-1.411-.56,1.948,1.948,0,0,1-.513-1.363,1.892,1.892,0,0,1,.513-1.346,1.844,1.844,0,0,1,1.411-.546h3.367v-1.635h-3.784a1.739,1.739,0,0,1-1.331-.529,1.785,1.785,0,0,1-.5-1.267,1.843,1.843,0,0,1,.5-1.283,1.713,1.713,0,0,1,1.331-.546h1.282c-.085-.256-.172-.5-.256-.737s-.15-.417-.192-.546a1.461,1.461,0,0,1,.049-1.025,1.7,1.7,0,0,1,.657-.77h-1.122a1.649,1.649,0,0,1-1.282-.529,1.776,1.776,0,0,1-.48-1.234,1.817,1.817,0,0,1,.48-1.267,1.649,1.649,0,0,1,1.282-.529h3.271v-1.25a1.851,1.851,0,0,1,.657-1.507,2.423,2.423,0,0,1,3.062,0,1.872,1.872,0,0,1,.641,1.507v1.25h2.886a1.687,1.687,0,0,1,1.315.529,1.815,1.815,0,0,1,.481,1.267,1.775,1.775,0,0,1-.481,1.234,1.687,1.687,0,0,1-1.315.529h-.673a1.848,1.848,0,0,1,.656.866,1.587,1.587,0,0,1-.047,1.186,2.263,2.263,0,0,1-.145.465q-.112.273-.24.561h.7a1.662,1.662,0,0,1,1.315.546,1.877,1.877,0,0,1,.482,1.283,1.818,1.818,0,0,1-.482,1.267,1.687,1.687,0,0,1-1.315.529h-3.238v1.635h2.853a1.844,1.844,0,0,1,1.411.546,1.892,1.892,0,0,1,.513,1.346,1.948,1.948,0,0,1-.513,1.363,1.816,1.816,0,0,1-1.411.56h-1.7q.545.61,1.331,1.331a17.263,17.263,0,0,0,1.395,1.17,1.832,1.832,0,0,1,.225,2.694,1.626,1.626,0,0,1-1.331.641,2.073,2.073,0,0,1-1.427-.545q-.224-.256-.593-.625t-.753-.786v5.066a1.936,1.936,0,0,1-.594,1.523A2.158,2.158,0,0,1,2487.921,602.591Zm-.673-20.074h1.314q.16-.48.4-1.122t.369-.962a1.946,1.946,0,0,1,.738-.994H2485.9a2.022,2.022,0,0,1,.3.3,1.493,1.493,0,0,1,.24.432,6.159,6.159,0,0,1,.257.658c.107.31.214.621.321.929A7.683,7.683,0,0,1,2487.249,582.518Zm7.31,19.657a2.538,2.538,0,0,1-1.812.1,1.924,1.924,0,0,1-1.235-1.154,1.867,1.867,0,0,1,.032-1.555,2.253,2.253,0,0,1,1.187-1.042,6.86,6.86,0,0,0,3.238-2.5,8.768,8.768,0,0,0,1.25-4.233,3.073,3.073,0,0,1-1.459-1.651,8.545,8.545,0,0,1-.433-3.03v-8.048a8.192,8.192,0,0,1,.5-3.191,2.928,2.928,0,0,1,1.7-1.6,9.372,9.372,0,0,1,3.287-.465h2.341a9.352,9.352,0,0,1,3.3.465,2.93,2.93,0,0,1,1.683,1.6,8.21,8.21,0,0,1,.5,3.191V587.1a7.571,7.571,0,0,1-.609,3.43,3.128,3.128,0,0,1-2.148,1.54v5.162a.563.563,0,0,0,.129.433.75.75,0,0,0,.48.112.562.562,0,0,0,.5-.208,3.493,3.493,0,0,0,.336-.818,1.593,1.593,0,0,1,.85-1.01,2.175,2.175,0,0,1,1.555-.112,1.912,1.912,0,0,1,1.347,2.245,5.226,5.226,0,0,1-1.46,3.142,4.226,4.226,0,0,1-2.933.994h-.738a6.032,6.032,0,0,1-3.11-.609,2.716,2.716,0,0,1-.962-2.469v-6.573h-.834a12.377,12.377,0,0,1-1.924,6.253A9.575,9.575,0,0,1,2494.559,602.175Zm5.1-22.959h4.649a1.934,1.934,0,0,0-.3-1.283,2.321,2.321,0,0,0-1.524-.321h-.994a2.324,2.324,0,0,0-1.507.321A1.856,1.856,0,0,0,2499.657,579.216Zm0,4.617h4.649v-1.571h-4.649Zm1.828,4.714h.994q1.218,0,1.524-.337a2.073,2.073,0,0,0,.3-1.331h-4.649a2.067,2.067,0,0,0,.3,1.331Q2500.266,588.547,2501.485,588.547Z" transform="translate(-2479.77 -572.578)" fill="#505050"/>
          <path id="Path_135" data-name="Path 135" d="M2553.452,599.419a2.071,2.071,0,0,1-1.627,1.094,2.369,2.369,0,0,1-1.291-.5l-.533-.365q-1.347-.927-2.876-2.006t-3.058-2.175q-1.529-1.094-2.876-2.076t-2.3-1.712a.526.526,0,0,0-.337-.14.607.607,0,0,0-.393.168q-.365.365-1.08,1.067t-1.585,1.514l-1.627,1.572a2.184,2.184,0,0,1-1.516.758,2.575,2.575,0,0,1-1.571-.729l-.253-.225q-1.627-1.4.028-2.721l1.319-1.095q1.066-.842,2.132-1.712t1.908-1.543q.842-.673,1.207-.954a2.07,2.07,0,0,1,1.037-.575l.393-.015a2.407,2.407,0,0,1,1.459.589q.617.421,1.739,1.192t2.567,1.712l3,1.95q1.558,1.01,3.044,1.95t2.75,1.669l.112.084a1.989,1.989,0,0,1,1.052,1.22,2.1,2.1,0,0,1-.519,1.557Z" transform="translate(-2496.353 -577.381)" fill="#505050"/>
          <path id="Path_136" data-name="Path 136" d="M2586.416,603.08a1.81,1.81,0,0,1-.616.112,1.707,1.707,0,0,1-1.46-.954,6.336,6.336,0,0,1-.589-1.206,1.387,1.387,0,0,1-.042-.885,1.283,1.283,0,0,1,.561-.659,5.393,5.393,0,0,1,1.192-.533,13.581,13.581,0,0,0,2.384-1.066,8.083,8.083,0,0,0,3-2.863,6.868,6.868,0,0,0,.926-3.451,7.482,7.482,0,0,0-1.6-4.812,7.323,7.323,0,0,0-4.545-2.567,43.239,43.239,0,0,1-1.137,6.65,30.267,30.267,0,0,1-1.921,5.471,13.488,13.488,0,0,1-2.455,3.7,3.9,3.9,0,0,1-2.764,1.347A4.609,4.609,0,0,1,2575,600.7a7.335,7.335,0,0,1-2.091-1.894,9.558,9.558,0,0,1-1.487-2.9,11.933,11.933,0,0,1-.547-3.7,11.655,11.655,0,0,1,.871-4.475,11.094,11.094,0,0,1,2.552-3.76,12.2,12.2,0,0,1,4.11-2.6,14.994,14.994,0,0,1,5.514-.953,13.717,13.717,0,0,1,5.275.94,11.14,11.14,0,0,1,3.816,2.539,10.886,10.886,0,0,1,2.328,3.591,11.073,11.073,0,0,1,.786,4.1v.084a10.477,10.477,0,0,1-2.834,7.435A15.32,15.32,0,0,1,2586.416,603.08Zm-9.343-6.481q.393,0,1.01-.911a13.754,13.754,0,0,0,1.277-2.582,34.148,34.148,0,0,0,1.249-3.942,39,39,0,0,0,.926-4.994,7.862,7.862,0,0,0-3.661,1.6,7.674,7.674,0,0,0-2.2,2.862,8.473,8.473,0,0,0-.729,3.451,7.119,7.119,0,0,0,.646,3.269Q2576.231,596.6,2577.073,596.6Z" transform="translate(-2510.013 -575.178)" fill="#505050"/>
        </g>
      </g>
      <g id="Group_64" data-name="Group 64" transform="translate(0 37.075)">
        <g id="Group_59" data-name="Group 59" transform="translate(102.676 3.349)">
          <path id="Path_137" data-name="Path 137" d="M2564.131,663.652a1.821,1.821,0,0,1-.623.114,1.722,1.722,0,0,1-1.473-.963,6.378,6.378,0,0,1-.594-1.218,1.393,1.393,0,0,1-.042-.892,1.3,1.3,0,0,1,.566-.666,5.429,5.429,0,0,1,1.2-.538,13.673,13.673,0,0,0,2.408-1.076,8.156,8.156,0,0,0,3.03-2.889,6.941,6.941,0,0,0,.935-3.484,7.552,7.552,0,0,0-1.615-4.858,7.388,7.388,0,0,0-4.588-2.591,43.571,43.571,0,0,1-1.147,6.712,30.482,30.482,0,0,1-1.94,5.523,13.6,13.6,0,0,1-2.478,3.738,3.941,3.941,0,0,1-2.791,1.359,4.646,4.646,0,0,1-2.378-.68,7.381,7.381,0,0,1-2.111-1.911,9.644,9.644,0,0,1-1.5-2.932,12.056,12.056,0,0,1-.552-3.738,11.772,11.772,0,0,1,.878-4.518,11.193,11.193,0,0,1,2.577-3.8,12.321,12.321,0,0,1,4.149-2.62,15.118,15.118,0,0,1,5.565-.963,13.863,13.863,0,0,1,5.325.949,11.235,11.235,0,0,1,3.851,2.563,11,11,0,0,1,2.352,3.625,11.184,11.184,0,0,1,.792,4.135v.085a10.577,10.577,0,0,1-2.861,7.505A15.466,15.466,0,0,1,2564.131,663.652Zm-9.432-6.542q.4,0,1.02-.921a13.892,13.892,0,0,0,1.288-2.605,34.317,34.317,0,0,0,1.26-3.98,39.32,39.32,0,0,0,.935-5.041,7.931,7.931,0,0,0-3.7,1.615,7.749,7.749,0,0,0-2.223,2.889,8.561,8.561,0,0,0-.736,3.484,7.2,7.2,0,0,0,.651,3.3Q2553.85,657.11,2554.7,657.11Z" transform="translate(-2548.44 -635.639)" fill="#505050"/>
          <path id="Path_138" data-name="Path 138" d="M2592.036,646.479a1.884,1.884,0,0,1-.793-1.262,1.709,1.709,0,0,1,.339-1.424,13.415,13.415,0,0,0,1.732-3.027,11.85,11.85,0,0,0,.761-3.349,3.707,3.707,0,0,1,1-2.46,4.383,4.383,0,0,1,2.622-.939q1.293-.1,2.815-.34t2.622-.469a1.961,1.961,0,0,1,1.424.21,1.533,1.533,0,0,1,.777,1.117,1.7,1.7,0,0,1-.21,1.327,1.683,1.683,0,0,1-1.116.744q-.907.162-2.136.34t-2.233.242q-1.069.1-1.328.745h6.959a1.527,1.527,0,0,1,1.2.469,1.779,1.779,0,0,1,0,2.3,1.525,1.525,0,0,1-1.2.469h-1.683v1.165a2,2,0,0,1-.631,1.571,2.371,2.371,0,0,1-3.075,0,2,2,0,0,1-.631-1.571v-1.165h-1.619a14.566,14.566,0,0,1-1.084,2.638,11.8,11.8,0,0,1-1.408,2.12,2.6,2.6,0,0,1-1.456.89A2.144,2.144,0,0,1,2592.036,646.479Zm4.435,16.9a2.663,2.663,0,0,1-1.845-.065,1.853,1.853,0,0,1-1.036-1.165,2.28,2.28,0,0,1,.049-1.586,1.679,1.679,0,0,1,1.279-.971q1.035-.26,2.508-.712t2.7-.939a4.077,4.077,0,0,1-2.865-1.263,5.36,5.36,0,0,1-.825-3.333v-4.014a6.51,6.51,0,0,1,.5-2.832,2.843,2.843,0,0,1,1.667-1.441,9.515,9.515,0,0,1,3.14-.421h4.273a1.574,1.574,0,0,1-.664-1.229,1.6,1.6,0,0,1,.469-1.3,7.252,7.252,0,0,0,1.343-2.168,8.92,8.92,0,0,0,.534-2.655,3.316,3.316,0,0,1,.939-2.33,3.994,3.994,0,0,1,2.46-.906q.9-.065,2.007-.211t2.217-.34q1.118-.193,1.991-.356a2.267,2.267,0,0,1,1.472.162,1.388,1.388,0,0,1,.793,1.069,1.981,1.981,0,0,1-.177,1.408,1.616,1.616,0,0,1-1.182.76q-1.1.227-2.541.4t-2.444.242a2.418,2.418,0,0,0-.873.227,1.077,1.077,0,0,0-.454.518h8.318a1.527,1.527,0,0,1,1.2.469,1.78,1.78,0,0,1,0,2.3,1.525,1.525,0,0,1-1.2.469h-2.848V642.6a1.95,1.95,0,0,1-.631,1.554,2.425,2.425,0,0,1-3.075,0,1.951,1.951,0,0,1-.631-1.554v-1.424H2611.2a9.9,9.9,0,0,1-.858,1.828,8.7,8.7,0,0,1-1.116,1.473.481.481,0,0,0-.065.081.241.241,0,0,1-.1.081h3.075a9.494,9.494,0,0,1,3.156.421,2.846,2.846,0,0,1,1.65,1.441,6.521,6.521,0,0,1,.5,2.832v4.014a5.36,5.36,0,0,1-.825,3.333,4.077,4.077,0,0,1-2.865,1.263q1.23.485,2.7.939t2.477.712a1.7,1.7,0,0,1,1.311.971,2.284,2.284,0,0,1,.048,1.586,1.852,1.852,0,0,1-1.036,1.165,2.662,2.662,0,0,1-1.845.065q-1-.292-2.282-.761t-2.477-.987q-1.2-.518-2.039-.906a1.655,1.655,0,0,1-.988-1.117,2.111,2.111,0,0,1,.21-1.408l.1-.194h-5.988l.1.194a2.112,2.112,0,0,1,.21,1.408,1.657,1.657,0,0,1-.987,1.117q-.811.388-2.023.906t-2.493.987Q2597.473,663.084,2596.471,663.376Zm4.661-11.588h11.621v-.841h-11.621Zm1.684,3.269h8.253a3.376,3.376,0,0,0,1.279-.162q.339-.161.372-.777h-11.588a.871.871,0,0,0,.421.777A3.4,3.4,0,0,0,2602.815,655.057Zm-1.651-6.538h11.555c-.043-.41-.178-.663-.4-.761a3.6,3.6,0,0,0-1.247-.146h-8.253a3.594,3.594,0,0,0-1.246.146Q2601.228,647.9,2601.164,648.519Z" transform="translate(-2562.638 -633.09)" fill="#505050"/>
          <path id="Path_139" data-name="Path 139" d="M2646.122,663.838a2.274,2.274,0,0,1-1.6-.615,2.143,2.143,0,0,1-.664-1.651V639.238q0-2.72,1.263-3.837a6.262,6.262,0,0,1,4.175-1.116h2.427a6.264,6.264,0,0,1,4.176,1.116q1.261,1.117,1.262,3.837v1.78a5.822,5.822,0,0,1-.55,2.8,2.947,2.947,0,0,1-1.748,1.376,10.45,10.45,0,0,1-3.14.388h-3.366v15.99a2.173,2.173,0,0,1-.647,1.651A2.22,2.22,0,0,1,2646.122,663.838Zm2.233-21.59h2.848a2.973,2.973,0,0,0,1.263-.178q.322-.177.355-.89h-4.467Zm.032-3.625h4.4a.975.975,0,0,0-.356-.842,2.658,2.658,0,0,0-1.23-.194h-1.23a2.545,2.545,0,0,0-1.213.194A1.067,1.067,0,0,0,2648.387,638.623Zm9.419,19.971a10.8,10.8,0,0,1-3.852-.55A3.461,3.461,0,0,1,2652,656.3a7.3,7.3,0,0,1-.566-3.108A7.19,7.19,0,0,1,2652,650.1a3.475,3.475,0,0,1,1.958-1.732,13.756,13.756,0,0,1,7.7,0,3.478,3.478,0,0,1,1.957,1.732,7.186,7.186,0,0,1,.567,3.091,7.294,7.294,0,0,1-.567,3.108,3.464,3.464,0,0,1-1.957,1.748A10.807,10.807,0,0,1,2657.807,658.594Zm0-3.657a2.445,2.445,0,0,0,1.49-.324,1.818,1.818,0,0,0,.388-1.392,1.878,1.878,0,0,0-.388-1.424,3.591,3.591,0,0,0-2.978,0,1.872,1.872,0,0,0-.389,1.424,1.812,1.812,0,0,0,.389,1.392A2.437,2.437,0,0,0,2657.807,654.936Zm9.29,8.74a2.57,2.57,0,0,1-1.813-.6,2.45,2.45,0,0,1-.744-1.635,2.116,2.116,0,0,1,.421-1.651,2.306,2.306,0,0,1,1.49-.874q.9-.162,1.1-.453a1.909,1.909,0,0,0,.194-1V645.582h-3.464a10.447,10.447,0,0,1-3.139-.388,3.01,3.01,0,0,1-1.763-1.376,5.665,5.665,0,0,1-.567-2.8V639.27a4.94,4.94,0,0,1,1.279-3.851,6.264,6.264,0,0,1,4.191-1.132h2.493a6.266,6.266,0,0,1,4.191,1.132,4.942,4.942,0,0,1,1.278,3.851v19.486a4.988,4.988,0,0,1-1.23,3.739A5.5,5.5,0,0,1,2667.1,663.676Zm-3.917-25.053h4.532q-.033-.647-.372-.826a2.887,2.887,0,0,0-1.214-.178H2664.8a2.871,2.871,0,0,0-1.23.178A.987.987,0,0,0,2663.18,638.623Zm1.619,3.625h2.945V641.18h-4.564c.042.475.173.771.389.89A2.86,2.86,0,0,0,2664.8,642.248Z" transform="translate(-2580.115 -633.487)" fill="#505050"/>
        </g>
        <g id="Group_60" data-name="Group 60" transform="translate(0 2.048)">
          <path id="Path_140" data-name="Path 140" d="M2455.12,634.365a11.116,11.116,0,0,0-15.652,0,2.084,2.084,0,1,1-4.044,0,10.74,10.74,0,0,0-7.705-3.223h-.121a10.725,10.725,0,0,0-7.826,3.221c-3.026,3-4.671,7.731-4.631,13.268-.038,5.581,1.608,10.31,4.636,13.315a10.734,10.734,0,0,0,7.695,3.218h.25a10.738,10.738,0,0,0,7.7-3.221,2.088,2.088,0,1,1,4.052,0,10.733,10.733,0,0,0,7.7,3.22h.25a10.737,10.737,0,0,0,7.7-3.221c3.024-3,4.668-7.72,4.633-13.291C2459.785,642.084,2458.142,637.365,2455.12,634.365Zm-21,13.309c.027,3.911-1.022,7.213-2.88,9.057a4.843,4.843,0,0,1-3.6,1.5h-.087a4.753,4.753,0,0,1-3.6-1.494c-1.859-1.844-2.909-5.147-2.882-9.1-.027-3.912,1.021-7.212,2.879-9.056a4.866,4.866,0,0,1,3.524-1.5h.236a4.87,4.87,0,0,1,3.527,1.5c1.856,1.844,2.9,5.144,2.877,9.055v.041Zm19.7,0c.027,3.912-1.021,7.213-2.88,9.058a4.852,4.852,0,0,1-3.6,1.5h-.087a4.764,4.764,0,0,1-3.6-1.5c-1.858-1.844-2.908-5.147-2.88-9.1-.028-3.911,1.021-7.211,2.877-9.055a4.868,4.868,0,0,1,3.524-1.5h.237a4.867,4.867,0,0,1,3.525,1.5c1.857,1.843,2.906,5.143,2.878,9.055v.041Z" transform="translate(-2401.513 -631.142)" fill="#505050"/>
          <path id="Path_141" data-name="Path 141" d="M2400.99,663.863h-.04a2.968,2.968,0,0,1-2.928-3.008l.286-21.375a2.969,2.969,0,0,1-1.98-5.535l3.631-1.911a2.968,2.968,0,0,1,4.35,2.667l-.351,26.234A2.969,2.969,0,0,1,2400.99,663.863Z" transform="translate(-2394.742 -631.325)" fill="#505050"/>
        </g>
        <g id="Group_63" data-name="Group 63" transform="translate(61.208)">
          <g id="Group_61" data-name="Group 61">
            <circle id="Ellipse_3" data-name="Ellipse 3" cx="18.56" cy="18.56" r="18.56" fill="#89c3eb"/>
          </g>
          <g id="Group_62" data-name="Group 62" transform="translate(4.335 8.728)">
            <path id="Path_142" data-name="Path 142" d="M2506.348,649.4h-2.836v-2.836a2.607,2.607,0,1,0-5.215,0V649.4h-2.836a2.608,2.608,0,1,0,0,5.215h2.836v2.836a2.607,2.607,0,1,0,5.215,0V654.61h2.836a2.608,2.608,0,1,0,0-5.215Z" transform="translate(-2492.854 -642.074)" fill="#fff"/>
            <path id="Path_143" data-name="Path 143" d="M2525.391,641.516a2.612,2.612,0,0,0-2.562-.076L2519.3,643.3a2.607,2.607,0,0,0,2.134,4.747V658.2a2.608,2.608,0,0,0,5.215,0V643.748A2.608,2.608,0,0,0,2525.391,641.516Z" transform="translate(-2501.171 -641.141)" fill="#fff"/>
          </g>
        </g>
      </g>
      <g id="Group_66" data-name="Group 66" transform="translate(37.655 85.177)">
        <g id="Group_65" data-name="Group 65">
          <path id="Path_144" data-name="Path 144" d="M2455.114,700.495a4.086,4.086,0,0,1,2.2,7.493l.61.978a.537.537,0,0,1-.184.748.527.527,0,0,1-.725-.2l-.667-1.07a4.352,4.352,0,0,1-1.232.184,4.069,4.069,0,0,1,0-8.137Zm0,6.94a3,3,0,0,0,.564-.057l-.529-.863a.541.541,0,0,1,.149-.736.551.551,0,0,1,.76.172l.621,1a2.855,2.855,0,0,0,1.232-2.383,2.792,2.792,0,1,0-2.8,2.866Z" transform="translate(-2451.109 -700.219)" fill="#888"/>
          <path id="Path_145" data-name="Path 145" d="M2470.981,709.263a.6.6,0,0,1-.61.6.589.589,0,0,1-.575-.6V709a1.863,1.863,0,0,1-1.646.921c-1.3,0-2.049-.84-2.049-2.359v-2.589a.6.6,0,0,1,.61-.6.59.59,0,0,1,.576.6v2.451c0,.852.437,1.335,1.127,1.335a1.294,1.294,0,0,0,1.382-1.438v-2.348a.6.6,0,0,1,.61-.6.59.59,0,0,1,.575.6Z" transform="translate(-2456.086 -701.506)" fill="#888"/>
          <path id="Path_146" data-name="Path 146" d="M2481.288,707.509h-3.74a1.56,1.56,0,0,0,1.645,1.346,1.813,1.813,0,0,0,1.278-.518.6.6,0,0,1,.759-.046.518.518,0,0,1,.023.748,2.927,2.927,0,0,1-2.118.851,2.7,2.7,0,0,1-2.762-2.82,2.671,2.671,0,0,1,2.762-2.784,2.608,2.608,0,0,1,2.693,2.682A.541.541,0,0,1,2481.288,707.509Zm-.622-.863a1.459,1.459,0,0,0-1.53-1.324,1.508,1.508,0,0,0-1.588,1.324Z" transform="translate(-2459.496 -701.478)" fill="#888"/>
          <path id="Path_147" data-name="Path 147" d="M2487.227,708.026a.446.446,0,0,1,.6.23,1.242,1.242,0,0,0,1.162.645c.541,0,.933-.242.933-.645,0-.345-.334-.494-.725-.586l-.725-.173c-1.139-.311-1.553-.932-1.484-1.795a1.816,1.816,0,0,1,1.922-1.416,1.94,1.94,0,0,1,1.726.794.514.514,0,0,1-.1.69.5.5,0,0,1-.69-.069,1.415,1.415,0,0,0-.921-.368.933.933,0,0,0-.748.288.5.5,0,0,0-.047.46c.07.208.391.311.679.391l.828.208a1.59,1.59,0,0,1,1.4,1.587c0,1.036-.909,1.623-2.14,1.623a2.043,2.043,0,0,1-1.957-1.219A.494.494,0,0,1,2487.227,708.026Z" transform="translate(-2462.993 -701.478)" fill="#888"/>
          <path id="Path_148" data-name="Path 148" d="M2496.1,704.4h-.53a.486.486,0,0,1-.494-.472.5.5,0,0,1,.494-.506h.53v-1.5a.59.59,0,0,1,.576-.6.6.6,0,0,1,.61.6v1.5h.7a.5.5,0,0,1,.5.506.486.486,0,0,1-.5.472h-.7v3.856a.6.6,0,0,1-.61.6.589.589,0,0,1-.576-.6Z" transform="translate(-2465.703 -700.494)" fill="#888"/>
          <path id="Path_149" data-name="Path 149" d="M2503.121,700.082a.749.749,0,1,1,0,1.5.75.75,0,1,1,0-1.5Zm.6,3.464a.6.6,0,0,0-.61-.6.589.589,0,0,0-.575.6v4.293a.589.589,0,0,0,.575.6.6.6,0,0,0,.61-.6Z" transform="translate(-2468.112 -700.082)" fill="#888"/>
          <path id="Path_150" data-name="Path 150" d="M2507.376,707.07a2.808,2.808,0,0,1,5.615,0,2.808,2.808,0,1,1-5.615,0Zm4.442,0a1.634,1.634,0,1,0-1.646,1.669A1.593,1.593,0,0,0,2511.818,707.07Z" transform="translate(-2469.788 -701.478)" fill="#888"/>
          <path id="Path_151" data-name="Path 151" d="M2518.749,704.942a.6.6,0,0,1,.61-.6.59.59,0,0,1,.575.6v.265a1.864,1.864,0,0,1,1.646-.921c1.3,0,2.049.84,2.049,2.359v2.589a.6.6,0,0,1-.611.6.589.589,0,0,1-.575-.6v-2.452c0-.852-.437-1.335-1.128-1.335a1.294,1.294,0,0,0-1.382,1.438v2.348a.6.6,0,0,1-.61.6.589.589,0,0,1-.575-.6Z" transform="translate(-2473.563 -701.478)" fill="#888"/>
          <path id="Path_152" data-name="Path 152" d="M2529.293,708.026a.445.445,0,0,1,.6.23,1.244,1.244,0,0,0,1.163.645c.541,0,.932-.242.932-.645,0-.345-.334-.494-.725-.586l-.726-.173c-1.139-.311-1.553-.932-1.483-1.795a1.815,1.815,0,0,1,1.922-1.416,1.942,1.942,0,0,1,1.726.794.514.514,0,0,1-.1.69.5.5,0,0,1-.69-.069,1.413,1.413,0,0,0-.921-.368.932.932,0,0,0-.747.288.5.5,0,0,0-.046.46c.069.208.392.311.679.391l.829.208a1.59,1.59,0,0,1,1.4,1.587c0,1.036-.909,1.623-2.141,1.623a2.043,2.043,0,0,1-1.957-1.219A.494.494,0,0,1,2529.293,708.026Z" transform="translate(-2476.958 -701.478)" fill="#888"/>
          <path id="Path_153" data-name="Path 153" d="M2544.6,703.983v3.856a.589.589,0,0,1-.575.6.6.6,0,0,1-.61-.6v-3.856h-.6a.486.486,0,0,1-.495-.472.5.5,0,0,1,.495-.506h.6v-.5c0-1.473.667-2.428,2.141-2.428h.092a.566.566,0,0,1,.575.553.579.579,0,0,1-.575.587h-.092c-.782,0-.956.61-.956,1.289v.5h.771a.5.5,0,0,1,.5.506.486.486,0,0,1-.5.472Z" transform="translate(-2481.389 -700.082)" fill="#888"/>
          <path id="Path_154" data-name="Path 154" d="M2549.477,707.07a2.808,2.808,0,0,1,5.616,0,2.808,2.808,0,1,1-5.616,0Zm4.442,0a1.635,1.635,0,1,0-1.646,1.669A1.593,1.593,0,0,0,2553.919,707.07Z" transform="translate(-2483.764 -701.478)" fill="#888"/>
          <path id="Path_155" data-name="Path 155" d="M2562.036,707.842v1.393a.6.6,0,0,1-.61.6.589.589,0,0,1-.576-.6v-4.293a.59.59,0,0,1,.576-.6.6.6,0,0,1,.61.6v.69c.277-.955.806-1.346,1.473-1.346a2.425,2.425,0,0,1,.506.046.568.568,0,0,1,.426.679c-.1.518-.621.391-.967.391C2562.461,705.4,2562.036,706.415,2562.036,707.842Z" transform="translate(-2487.539 -701.478)" fill="#888"/>
          <path id="Path_156" data-name="Path 156" d="M2575.134,708a.629.629,0,0,1-.633.621.611.611,0,0,1-.586-.621v-6.7a.622.622,0,0,1,.645-.667h2.532a2.511,2.511,0,0,1,0,5.018h-1.957Zm0-6.238v2.774h1.887a1.4,1.4,0,0,0,.046-2.774Z" transform="translate(-2491.876 -700.265)" fill="#888"/>
          <path id="Path_157" data-name="Path 157" d="M2588.77,709a2.157,2.157,0,0,1-1.807.886,2.8,2.8,0,0,1,0-5.6,2.133,2.133,0,0,1,1.807.874v-.218a.59.59,0,0,1,.576-.6.6.6,0,0,1,.61.6v4.293a.6.6,0,0,1-.61.6.589.589,0,0,1-.576-.6Zm-1.669-.265a1.652,1.652,0,1,0-1.646-1.669A1.622,1.622,0,0,0,2587.1,708.74Z" transform="translate(-2495.302 -701.478)" fill="#888"/>
          <path id="Path_158" data-name="Path 158" d="M2597.4,707.842v1.393a.6.6,0,0,1-.61.6.589.589,0,0,1-.575-.6v-4.293a.59.59,0,0,1,.575-.6.6.6,0,0,1,.61.6v.69c.276-.955.806-1.346,1.473-1.346a2.422,2.422,0,0,1,.506.046.569.569,0,0,1,.426.679c-.1.518-.622.391-.967.391C2597.824,705.4,2597.4,706.415,2597.4,707.842Z" transform="translate(-2499.279 -701.478)" fill="#888"/>
          <path id="Path_159" data-name="Path 159" d="M2608.21,707.509h-3.74a1.559,1.559,0,0,0,1.646,1.346,1.81,1.81,0,0,0,1.277-.518.6.6,0,0,1,.759-.046.517.517,0,0,1,.023.748,2.926,2.926,0,0,1-2.118.851,2.7,2.7,0,0,1-2.761-2.82,2.67,2.67,0,0,1,2.761-2.784,2.608,2.608,0,0,1,2.693,2.682A.54.54,0,0,1,2608.21,707.509Zm-.621-.863a1.459,1.459,0,0,0-1.531-1.324,1.507,1.507,0,0,0-1.587,1.324Z" transform="translate(-2501.63 -701.478)" fill="#888"/>
          <path id="Path_160" data-name="Path 160" d="M2614.256,704.942a.6.6,0,0,1,.61-.6.59.59,0,0,1,.575.6v.265a1.863,1.863,0,0,1,1.646-.921c1.3,0,2.048.84,2.048,2.359v2.589a.6.6,0,0,1-.61.6.589.589,0,0,1-.575-.6v-2.452c0-.852-.437-1.335-1.128-1.335a1.294,1.294,0,0,0-1.381,1.438v2.348a.6.6,0,0,1-.61.6.589.589,0,0,1-.575-.6Z" transform="translate(-2505.268 -701.478)" fill="#888"/>
          <path id="Path_161" data-name="Path 161" d="M2625.035,704.4h-.53a.486.486,0,0,1-.494-.472.5.5,0,0,1,.494-.506h.53v-1.5a.59.59,0,0,1,.575-.6.6.6,0,0,1,.61.6v1.5h.7a.5.5,0,0,1,.5.506.487.487,0,0,1-.5.472h-.7v3.856a.6.6,0,0,1-.61.6.589.589,0,0,1-.575-.6Z" transform="translate(-2508.507 -700.494)" fill="#888"/>
          <path id="Path_162" data-name="Path 162" d="M2631.469,708.026a.445.445,0,0,1,.6.23,1.242,1.242,0,0,0,1.162.645c.541,0,.933-.242.933-.645,0-.345-.334-.494-.725-.586l-.725-.173c-1.139-.311-1.553-.932-1.485-1.795a1.816,1.816,0,0,1,1.922-1.416,1.941,1.941,0,0,1,1.726.794.514.514,0,0,1-.1.69.5.5,0,0,1-.69-.069,1.414,1.414,0,0,0-.921-.368.933.933,0,0,0-.748.288.5.5,0,0,0-.047.46c.069.208.392.311.679.391l.828.208a1.59,1.59,0,0,1,1.4,1.587c0,1.036-.909,1.623-2.141,1.623a2.043,2.043,0,0,1-1.957-1.219A.494.494,0,0,1,2631.469,708.026Z" transform="translate(-2510.877 -701.478)" fill="#888"/>
        </g>
      </g>
    </g>
    <g id="Group_78" data-name="Group 78" transform="translate(2404.38 398.9)">
      <path id="Path_163" data-name="Path 163" d="M2423.926,489.933a6.649,6.649,0,0,1-6.65-6.65V422.7a6.65,6.65,0,0,1-6.159-11.19l8.107-8.107a6.649,6.649,0,0,1,11.35,4.7v75.178A6.649,6.649,0,0,1,2423.926,489.933Z" transform="translate(-2409.169 -399.749)" fill="#f7adc3"/>
      <g id="Group_68" data-name="Group 68" transform="translate(60.322 31.093)">
        <path id="Path_164" data-name="Path 164" d="M2500.7,452.268a1.188,1.188,0,0,1-1.175-1.025,4.705,4.705,0,0,1,8.421-3.836,1.187,1.187,0,0,1-1.788,1.562,2.36,2.36,0,0,0-4.279,1.949,1.188,1.188,0,0,1-1.014,1.339A1.149,1.149,0,0,1,2500.7,452.268Z" transform="translate(-2499.468 -445.444)" fill="#f7adc3"/>
      </g>
      <g id="Group_69" data-name="Group 69" transform="translate(75.558 27.576)">
        <path id="Path_165" data-name="Path 165" d="M2530.438,445.628a1.186,1.186,0,0,1-1.144-.872,2.7,2.7,0,0,0-2.3-2.2h-.039a2.714,2.714,0,0,0-2.359,2.1,1.187,1.187,0,1,1-2.259-.729,5.045,5.045,0,0,1,4.618-3.748h.089a5.027,5.027,0,0,1,4.543,3.945,1.186,1.186,0,0,1-.829,1.46A1.149,1.149,0,0,1,2530.438,445.628Z" transform="translate(-2522.275 -440.179)" fill="#f7adc3"/>
      </g>
      <g id="Group_70" data-name="Group 70" transform="translate(70.109 44.362)">
        <path id="Path_166" data-name="Path 166" d="M2520.119,472.947a6.881,6.881,0,0,1-5.856-3.825,1.187,1.187,0,1,1,2.083-1.139c1.014,1.855,2.788,2.869,4.413,2.522s2.829-2,3-4.105a1.187,1.187,0,1,1,2.367.188c-.253,3.164-2.21,5.671-4.869,6.239A5.4,5.4,0,0,1,2520.119,472.947Z" transform="translate(-2514.117 -465.307)" fill="#f7adc3"/>
      </g>
      <g id="Group_71" data-name="Group 71" transform="translate(25.6)">
        <path id="Path_167" data-name="Path 167" d="M2519.541,473.746a9.665,9.665,0,0,1-1.222-1.432c-.927-1.106-1.83-2.251-2.725-3.434a32.688,32.688,0,1,1-22.159-56.721c16.062,0,29.788,10.2,36.8,26.4a36.54,36.54,0,0,1,9.8-10.129,59.607,59.607,0,0,0-11.64-15.338,50.833,50.833,0,0,0-34.966-14.194,45.948,45.948,0,1,0,30.965,79.9Q2521.911,476.463,2519.541,473.746Z" transform="translate(-2447.49 -398.9)" fill="#f7adc3"/>
      </g>
      <g id="Group_75" data-name="Group 75" transform="translate(126.481 48.932)">
        <g id="Group_72" data-name="Group 72">
          <path id="Path_168" data-name="Path 168" d="M2603.408,476.086a.905.905,0,0,1-.9-.812,1.169,1.169,0,0,0-2.294-.431.906.906,0,1,1-1.611-.83,2.957,2.957,0,0,1,5.706,1.073.906.906,0,0,1-.807,1C2603.472,476.083,2603.44,476.086,2603.408,476.086Z" transform="translate(-2598.503 -472.148)" fill="#89c3eb"/>
        </g>
        <g id="Group_73" data-name="Group 73" transform="translate(9.714 2.14)">
          <path id="Path_169" data-name="Path 169" d="M2618.313,480.358a.852.852,0,0,1-.158-.015.9.9,0,0,1-.735-1.049,1.576,1.576,0,0,0-2.81-1.408.906.906,0,1,1-1.32-1.241,3.365,3.365,0,0,1,5.913,2.963A.9.9,0,0,1,2618.313,480.358Z" transform="translate(-2613.043 -475.352)" fill="#89c3eb"/>
        </g>
        <g id="Group_74" data-name="Group 74" transform="translate(1.508 9.111)">
          <path id="Path_170" data-name="Path 170" d="M2605.4,491.847a4.2,4.2,0,0,1-1.035-.128,5.145,5.145,0,0,1-3.608-4.988.906.906,0,0,1,1.81-.079,3,3,0,0,0,5.781,1.456.906.906,0,1,1,1.557.926A5.389,5.389,0,0,1,2605.4,491.847Z" transform="translate(-2600.76 -485.787)" fill="#89c3eb"/>
        </g>
      </g>
      <path id="Path_171" data-name="Path 171" d="M2643.528,427.747a2.536,2.536,0,0,1-2.531,2.531h-3.028v3.028a2.247,2.247,0,0,1-.1.685,2.527,2.527,0,0,1-4.959-.685v-3.028h-3.029a2.531,2.531,0,0,1,0-5.061h3.029v-3.029a2.531,2.531,0,0,1,5.061,0v3.029H2641A2.531,2.531,0,0,1,2643.528,427.747Z" transform="translate(-2481.597 -405.791)" fill="#89c3eb"/>
      <path id="Path_172" data-name="Path 172" d="M2661.6,419.32v14.754a2.531,2.531,0,1,1-5.061,0V423.509a2.531,2.531,0,0,1-2.25-4.532l3.6-1.9a2.527,2.527,0,0,1,3.706,2.243Z" transform="translate(-2490.091 -404.838)" fill="#89c3eb"/>
      <g id="Group_76" data-name="Group 76" transform="translate(145.752 11.949)">
        <path id="Path_173" data-name="Path 173" d="M2641,425.217h-3.028v-3.029a2.531,2.531,0,0,0-5.061,0v3.029h-3.029a2.531,2.531,0,0,0,0,5.061h3.029v3.028a2.527,2.527,0,0,0,4.959.685,2.247,2.247,0,0,0,.1-.685v-3.028H2641a2.531,2.531,0,0,0,0-5.061Z" transform="translate(-2627.349 -417.74)" fill="#fff"/>
        <path id="Path_174" data-name="Path 174" d="M2660.376,417.148a2.544,2.544,0,0,0-2.484-.071l-3.6,1.9a2.531,2.531,0,0,0,2.25,4.532v10.565a2.531,2.531,0,1,0,5.061,0V419.32A2.547,2.547,0,0,0,2660.376,417.148Z" transform="translate(-2635.843 -416.787)" fill="#fff"/>
      </g>
      <g id="Group_77" data-name="Group 77" transform="translate(89.211 1.931)">
        <path id="Path_175" data-name="Path 175" d="M2584.383,505.93c-.144-.111-.288-.218-.431-.331C2584.095,505.713,2584.239,505.819,2584.383,505.93Z" transform="translate(-2556.402 -436.251)" fill="none"/>
        <path id="Path_176" data-name="Path 176" d="M2605.364,516.446c-.244-.058-.486-.124-.728-.188C2604.878,516.321,2605.12,516.388,2605.364,516.446Z" transform="translate(-2563.268 -439.789)" fill="none"/>
        <path id="Path_177" data-name="Path 177" d="M2581.8,503.813c-.153-.131-.305-.267-.458-.4C2581.5,503.547,2581.652,503.683,2581.8,503.813Z" transform="translate(-2555.537 -435.526)" fill="none"/>
        <path id="Path_178" data-name="Path 178" d="M2579.76,501.984c-.153-.14-.305-.281-.458-.425C2579.454,501.7,2579.607,501.844,2579.76,501.984Z" transform="translate(-2554.858 -434.91)" fill="none"/>
        <path id="Path_179" data-name="Path 179" d="M2586.566,507.566c-.2-.143-.4-.286-.6-.433C2586.164,507.28,2586.365,507.423,2586.566,507.566Z" transform="translate(-2557.07 -436.76)" fill="none"/>
        <path id="Path_180" data-name="Path 180" d="M2608.356,517.085c-.271-.047-.543-.094-.813-.148C2607.813,516.99,2608.085,517.037,2608.356,517.085Z" transform="translate(-2564.233 -440.015)" fill="none"/>
        <path id="Path_181" data-name="Path 181" d="M2593.629,511.948c-.23-.12-.462-.238-.691-.363C2593.168,511.711,2593.4,511.829,2593.629,511.948Z" transform="translate(-2559.385 -438.238)" fill="none"/>
        <path id="Path_182" data-name="Path 182" d="M2595.768,513.015q-.36-.166-.718-.343Q2595.408,512.848,2595.768,513.015Z" transform="translate(-2560.086 -438.599)" fill="none"/>
        <path id="Path_183" data-name="Path 183" d="M2588.648,509c-.21-.137-.42-.279-.629-.42C2588.228,508.723,2588.437,508.864,2588.648,509Z" transform="translate(-2557.752 -437.241)" fill="none"/>
        <path id="Path_184" data-name="Path 184" d="M2577.443,499.761c.074.075.15.143.224.217-.074-.073-.149-.145-.223-.219Z" transform="translate(-2554.241 -434.312)" fill="none"/>
        <path id="Path_185" data-name="Path 185" d="M2600.926,515.125c-.24-.082-.482-.162-.721-.249C2600.444,514.964,2600.685,515.043,2600.926,515.125Z" transform="translate(-2561.797 -439.331)" fill="none"/>
        <path id="Path_186" data-name="Path 186" d="M2591.152,510.56q-.459-.266-.915-.547Q2590.693,510.294,2591.152,510.56Z" transform="translate(-2558.488 -437.716)" fill="none"/>
        <path id="Path_187" data-name="Path 187" d="M2603.14,515.838q-.375-.108-.748-.225Q2602.765,515.73,2603.14,515.838Z" transform="translate(-2562.523 -439.575)" fill="none"/>
        <path id="Path_188" data-name="Path 188" d="M2597.924,513.979c-.231-.095-.46-.2-.69-.3C2597.463,513.78,2597.693,513.884,2597.924,513.979Z" transform="translate(-2560.811 -438.934)" fill="none"/>
        <path id="Path_189" data-name="Path 189" d="M2641,425.217h-3.028v-3.029a2.531,2.531,0,0,0-5.061,0v3.029h-3.029a2.531,2.531,0,0,0,0,5.061h3.029v3.028a2.527,2.527,0,0,0,4.959.685,2.247,2.247,0,0,0,.1-.685v-3.028H2641a2.531,2.531,0,0,0,0-5.061Z" transform="translate(-2570.808 -407.722)" fill="none"/>
        <path id="Path_190" data-name="Path 190" d="M2562.619,480.781c-.1-.162-.2-.328-.306-.491C2562.415,480.454,2562.517,480.619,2562.619,480.781Z" transform="translate(-2549.219 -427.849)" fill="none"/>
        <path id="Path_191" data-name="Path 191" d="M2553.4,472.015a6.152,6.152,0,0,0-.836-.115A6.152,6.152,0,0,1,2553.4,472.015Z" transform="translate(-2545.981 -425.064)" fill="none"/>
        <path id="Path_192" data-name="Path 192" d="M2661.6,434.074V419.32a2.527,2.527,0,0,0-3.706-2.243l-3.6,1.9a2.531,2.531,0,0,0,2.25,4.532v10.565a2.531,2.531,0,1,0,5.061,0Z" transform="translate(-2579.302 -406.769)" fill="none"/>
        <path id="Path_193" data-name="Path 193" d="M2613.052,517.717c-.242-.019-.483-.044-.724-.068C2612.569,517.673,2612.81,517.7,2613.052,517.717Z" transform="translate(-2565.822 -440.251)" fill="none"/>
        <path id="Path_194" data-name="Path 194" d="M2565.1,484.589l0-.008c-.081-.12-.164-.24-.245-.361C2564.937,484.341,2565.016,484.47,2565.1,484.589Z" transform="translate(-2550.063 -429.154)" fill="none"/>
        <path id="Path_195" data-name="Path 195" d="M2610.747,517.464c-.247-.031-.493-.063-.739-.1C2610.254,517.4,2610.5,517.432,2610.747,517.464Z" transform="translate(-2565.052 -440.157)" fill="none"/>
        <path id="Path_196" data-name="Path 196" d="M2593.783,423.782c-.322,2.033-1.816,2.92-3.889,2.986l.132.046a30.9,30.9,0,0,0-16.763,5.785,33.587,33.587,0,0,0-9.81,11.087,39.028,39.028,0,0,0-3.48,8.385c-.143.5-.3.972-.454,1.421a68.814,68.814,0,0,0,8.443,10.788,32.29,32.29,0,0,0,3.261-6.689c.242-.669.468-1.362.677-2.1a24.5,24.5,0,0,1,5.809-10.339,18.912,18.912,0,0,1,13.727-5.964,20.025,20.025,0,0,1,20.469,20.477,19.292,19.292,0,0,1-6.049,13.952,20.036,20.036,0,0,1-14.436,5.73c-.157-.005-.311-.021-.468-.028-.337-.017-.674-.035-1.009-.061-.243-.019-.483-.044-.724-.068q-.406-.041-.811-.091c-.247-.031-.493-.063-.739-.1-.279-.041-.557-.09-.834-.138s-.543-.094-.813-.148q-.609-.122-1.214-.266c-.244-.058-.486-.124-.728-.188s-.5-.134-.751-.206-.5-.147-.748-.225-.494-.16-.74-.243-.481-.162-.721-.249c-.434-.158-.865-.324-1.295-.5-.231-.1-.46-.2-.689-.3-.248-.108-.5-.216-.741-.33s-.479-.226-.718-.343-.48-.239-.719-.363-.462-.238-.691-.363c-.3-.162-.593-.332-.889-.5s-.611-.36-.915-.547c-.285-.176-.57-.352-.853-.536-.21-.137-.419-.279-.628-.42-.257-.175-.515-.353-.771-.534-.2-.143-.4-.286-.6-.433-.306-.224-.609-.458-.913-.693-.144-.111-.288-.218-.431-.331-.43-.342-.858-.7-1.283-1.06-.152-.131-.3-.266-.457-.4q-.456-.4-.908-.814c-.153-.14-.305-.281-.458-.425q-.511-.48-1.018-.983c-.075-.074-.15-.142-.224-.217v0a69.26,69.26,0,0,1-8.165-10.019l0,.008c-.082-.12-.161-.248-.241-.369q-.7-1.044-1.393-2.134c-.1-.162-.2-.327-.306-.491-.516-.828-1.03-1.671-1.536-2.54a6.2,6.2,0,0,0-8.482-2.232v0a6.2,6.2,0,0,0-2.227,8.486,96.637,96.637,0,0,0,6.143,9.327q1.483,2.009,3.036,3.855a6.3,6.3,0,0,0,.989,1.152q2.336,2.686,4.8,5c9.639,9.117,20.617,14.045,32.46,14.466.358.008.708.015,1.066.015a32.527,32.527,0,0,0,22.423-9.218,31.609,31.609,0,0,0,9.834-22.875,33.319,33.319,0,0,0-3.683-15.362,3.464,3.464,0,0,1,1.7-4.173c.109-.078.218-.14.319-.2h-.016a20.075,20.075,0,1,0-28.839-18.063A15.347,15.347,0,0,1,2593.783,423.782Zm19.118.565h-3.028v3.028a2.24,2.24,0,0,1-.1.685,2.527,2.527,0,0,1-4.959-.685v-3.028h-3.029a2.531,2.531,0,0,1,0-5.061h3.029v-3.029a2.531,2.531,0,0,1,5.061,0v3.029h3.028a2.531,2.531,0,0,1,0,5.061Zm12.107,4.749a2.531,2.531,0,0,1-5.061,0V418.53A2.531,2.531,0,0,1,2617.7,414l3.6-1.9a2.527,2.527,0,0,1,3.706,2.243Z" transform="translate(-2542.711 -401.79)" fill="#89c3eb"/>
        <path id="Path_197" data-name="Path 197" d="M2609.594,517.3c-.279-.041-.557-.09-.834-.138C2609.037,517.206,2609.315,517.254,2609.594,517.3Z" transform="translate(-2564.637 -440.088)" fill="#fff"/>
        <path id="Path_198" data-name="Path 198" d="M2599.561,514.628q-.65-.236-1.294-.5Q2598.91,514.393,2599.561,514.628Z" transform="translate(-2561.154 -439.082)" fill="#fff"/>
        <path id="Path_199" data-name="Path 199" d="M2602.024,515.492c-.248-.078-.494-.16-.74-.243C2601.531,515.332,2601.776,515.415,2602.024,515.492Z" transform="translate(-2562.156 -439.455)" fill="#fff"/>
        <path id="Path_200" data-name="Path 200" d="M2611.925,517.6q-.406-.041-.811-.091Q2611.519,517.563,2611.925,517.6Z" transform="translate(-2565.419 -440.206)" fill="#fff"/>
        <path id="Path_201" data-name="Path 201" d="M2606.94,516.8q-.609-.122-1.214-.266Q2606.33,516.683,2606.94,516.8Z" transform="translate(-2563.63 -439.883)" fill="#fff"/>
        <path id="Path_202" data-name="Path 202" d="M2614.421,517.812c-.337-.017-.674-.035-1.009-.061C2613.748,517.778,2614.084,517.8,2614.421,517.812Z" transform="translate(-2566.182 -440.285)" fill="#fff"/>
        <path id="Path_203" data-name="Path 203" d="M2604.262,516.156c-.251-.066-.5-.134-.751-.206C2603.761,516.022,2604.011,516.09,2604.262,516.156Z" transform="translate(-2562.895 -439.687)" fill="#fff"/>
        <path id="Path_204" data-name="Path 204" d="M2592.5,511.335c-.3-.162-.593-.331-.889-.5C2591.9,511,2592.2,511.173,2592.5,511.335Z" transform="translate(-2558.943 -437.988)" fill="#fff"/>
        <path id="Path_205" data-name="Path 205" d="M2564.164,483.159c-.468-.7-.933-1.406-1.393-2.134Q2563.461,482.117,2564.164,483.159Z" transform="translate(-2549.371 -428.093)" fill="#fff"/>
        <path id="Path_206" data-name="Path 206" d="M2578.8,501.07q-.511-.481-1.017-.983Q2578.285,500.589,2578.8,501.07Z" transform="translate(-2554.353 -434.421)" fill="#fff"/>
        <path id="Path_207" data-name="Path 207" d="M2580.9,503.009q-.456-.4-.908-.814Q2580.44,502.611,2580.9,503.009Z" transform="translate(-2555.086 -435.121)" fill="#fff"/>
        <path id="Path_208" data-name="Path 208" d="M2596.865,513.516c-.248-.108-.495-.216-.741-.33C2596.371,513.3,2596.618,513.408,2596.865,513.516Z" transform="translate(-2560.443 -438.77)" fill="#fff"/>
        <path id="Path_209" data-name="Path 209" d="M2550.819,471.894a6.177,6.177,0,0,0-3.5.83h0l0,0A6.172,6.172,0,0,1,2550.819,471.894Z" transform="translate(-2544.239 -425.058)" fill="#fff"/>
        <path id="Path_210" data-name="Path 210" d="M2553.812,472.072a6.182,6.182,0,0,1,4.143,2.95c.506.869,1.02,1.712,1.536,2.54-.516-.829-1.028-1.671-1.532-2.541A6.188,6.188,0,0,0,2553.812,472.072Z" transform="translate(-2546.396 -425.121)" fill="#fff"/>
        <path id="Path_211" data-name="Path 211" d="M2594.692,512.492c-.24-.118-.48-.239-.719-.363C2594.212,512.253,2594.452,512.374,2594.692,512.492Z" transform="translate(-2559.729 -438.419)" fill="#fff"/>
        <path id="Path_212" data-name="Path 212" d="M2589.813,509.746c-.285-.176-.57-.352-.853-.536C2589.243,509.394,2589.528,509.571,2589.813,509.746Z" transform="translate(-2558.064 -437.45)" fill="#fff"/>
        <path id="Path_213" data-name="Path 213" d="M2587.636,508.315c-.257-.175-.515-.353-.771-.534C2587.121,507.963,2587.379,508.14,2587.636,508.315Z" transform="translate(-2557.369 -436.975)" fill="#fff"/>
        <path id="Path_214" data-name="Path 214" d="M2583.314,505.072q-.645-.514-1.282-1.06C2582.457,504.375,2582.885,504.73,2583.314,505.072Z" transform="translate(-2555.764 -435.724)" fill="#fff"/>
        <path id="Path_215" data-name="Path 215" d="M2585.511,506.788c-.307-.225-.61-.458-.913-.693C2584.9,506.331,2585.2,506.564,2585.511,506.788Z" transform="translate(-2556.616 -436.416)" fill="#fff"/>
      </g>
    </g>
  </g>
</svg>
