<svg xmlns="http://www.w3.org/2000/svg" width="174.905" height="277.04" viewBox="0 0 174.905 277.04">
  <g id="Group_181" data-name="Group 181" transform="translate(-300 -1441.516)">
    <path id="Path_234" data-name="Path 234" d="M82.049,32.93c8.409,31.037-8.4,57.2-5.361,88.919s23.89,35.173,18.605,55.944-27,27.978-39.745,27.142C31.6,203.363,9.388,155.7,5.937,98.472,4.281,71,7.838,24.51,26.866,8.125S77.676,16.791,82.049,32.93Z" transform="translate(383.587 1667.657) rotate(-152)" fill="#fad4de"/>
    <path id="Path_235" data-name="Path 235" d="M78.793,30.778c7.206,31.62-9.97,59.178-8.009,91.7s22.138,35.289,16.344,56.864-27.152,29.814-39.522,29.436c-23.251-.71-43.364-48.918-44.923-107.675-.748-28.2,4.173-76.182,23.2-93.765S75.046,14.336,78.793,30.778Z" transform="translate(400.721 1720.302) rotate(-169)" fill="#d4dbec"/>
  </g>
</svg>
