<svg xmlns="http://www.w3.org/2000/svg" xmlns:xlink="http://www.w3.org/1999/xlink" width="288" height="235.339" viewBox="0 0 288 235.339">
  <defs>
    <linearGradient id="linear-gradient" x1="0.002" y1="0.481" x2="1.004" y2="0.481" gradientUnits="objectBoundingBox">
      <stop offset="0" stop-color="#ffe2e4"/>
      <stop offset="1" stop-color="#a4b8ea"/>
    </linearGradient>
    <linearGradient id="linear-gradient-2" x1="0.5" y1="1.856" x2="0.5" y2="-0.719" gradientUnits="objectBoundingBox">
      <stop offset="0" stop-color="#435ac2"/>
      <stop offset="1" stop-color="#0f24a4"/>
    </linearGradient>
    <linearGradient id="linear-gradient-3" x1="-0.241" y1="-0.434" x2="0.852" y2="1.105" gradientUnits="objectBoundingBox">
      <stop offset="0" stop-color="#ffc1c2"/>
      <stop offset="1" stop-color="#fe958f"/>
    </linearGradient>
    <linearGradient id="linear-gradient-4" x1="0.069" y1="0.215" x2="1.618" y2="1.441" xlink:href="#linear-gradient-3"/>
    <linearGradient id="linear-gradient-5" x1="0.5" y1="-0.659" x2="0.5" y2="1.912" gradientUnits="objectBoundingBox">
      <stop offset="0" stop-color="#ffe2e4"/>
      <stop offset="1" stop-color="#ffc1c2"/>
    </linearGradient>
    <linearGradient id="linear-gradient-6" x1="0.5" y1="-6.124" x2="0.5" y2="12.511" xlink:href="#linear-gradient-5"/>
    <linearGradient id="linear-gradient-7" x1="0.5" y1="-0.675" x2="0.5" y2="1.788" xlink:href="#linear-gradient-5"/>
    <linearGradient id="linear-gradient-8" y1="0.5" x2="1" y2="0.5" gradientUnits="objectBoundingBox">
      <stop offset="0" stop-color="#7a8fd8"/>
      <stop offset="1" stop-color="#435ac2"/>
    </linearGradient>
    <linearGradient id="linear-gradient-9" x1="0.5" y1="0.946" x2="0.5" y2="-0.649" gradientUnits="objectBoundingBox">
      <stop offset="0" stop-color="#fffbfc"/>
      <stop offset="1" stop-color="#ffe2e4"/>
    </linearGradient>
    <linearGradient id="linear-gradient-11" x1="0" y1="0.5" x2="1" y2="0.5" xlink:href="#linear-gradient-2"/>
    <linearGradient id="linear-gradient-12" x1="1.434" y1="0.479" x2="-0.303" y2="0.519" xlink:href="#linear-gradient-3"/>
    <linearGradient id="linear-gradient-13" x1="-0.044" y1="0.347" x2="1.264" y2="0.739" xlink:href="#linear-gradient-5"/>
    <linearGradient id="linear-gradient-14" x1="0.277" y1="0.125" x2="0.892" y2="1.099" gradientUnits="objectBoundingBox">
      <stop offset="0" stop-color="#ffe2e4"/>
      <stop offset="0.665" stop-color="#ffc1c2"/>
    </linearGradient>
    <linearGradient id="linear-gradient-15" x1="-0.252" y1="-10.526" x2="0.557" y2="-9.956" xlink:href="#linear-gradient-5"/>
    <linearGradient id="linear-gradient-16" x1="0.639" y1="0.093" x2="3.057" y2="0.213" xlink:href="#linear-gradient-3"/>
    <linearGradient id="linear-gradient-17" x1="0.713" y1="-2.108" x2="1.776" y2="-0.039" xlink:href="#linear-gradient-3"/>
    <linearGradient id="linear-gradient-18" x1="-0.187" y1="0.293" x2="1.054" y2="0.656" xlink:href="#linear-gradient-5"/>
    <linearGradient id="linear-gradient-19" x1="-0.016" y1="0.594" x2="1.994" y2="0.194" xlink:href="#linear-gradient-3"/>
    <linearGradient id="linear-gradient-20" x1="0.287" y1="0.061" x2="1.128" y2="1.592" xlink:href="#linear-gradient-3"/>
    <linearGradient id="linear-gradient-21" x1="4.446" y1="-4.643" x2="5.537" y2="-3.486" xlink:href="#linear-gradient-3"/>
    <linearGradient id="linear-gradient-22" x1="20.54" y1="-3.989" x2="20.457" y2="-2.441" xlink:href="#linear-gradient-3"/>
    <linearGradient id="linear-gradient-23" x1="14.061" y1="-25.156" x2="13.983" y2="-23.532" xlink:href="#linear-gradient-5"/>
    <linearGradient id="linear-gradient-24" x1="4.17" y1="-26.834" x2="4.078" y2="-25.415" xlink:href="#linear-gradient-3"/>
    <linearGradient id="linear-gradient-25" x1="15.932" y1="-33.6" x2="15.856" y2="-31.94" xlink:href="#linear-gradient-5"/>
    <linearGradient id="linear-gradient-26" x1="-32.736" y1="-1.204" x2="-32.928" y2="0.261" xlink:href="#linear-gradient-5"/>
    <linearGradient id="linear-gradient-27" x1="-27" y1="-16.522" x2="-27.127" y2="-14.087" xlink:href="#linear-gradient-5"/>
    <linearGradient id="linear-gradient-28" x1="0.5" y1="-3.205" x2="0.5" y2="10.52" gradientUnits="objectBoundingBox">
      <stop offset="0" stop-color="#08136d"/>
      <stop offset="1" stop-color="#03053e"/>
    </linearGradient>
    <linearGradient id="linear-gradient-29" x1="0.5" y1="-0.149" x2="0.5" y2="18.26" xlink:href="#linear-gradient-28"/>
    <linearGradient id="linear-gradient-30" x1="0.5" y1="-0.115" x2="0.5" y2="17.755" xlink:href="#linear-gradient-28"/>
    <linearGradient id="linear-gradient-31" y1="0.5" x2="1" y2="0.5" gradientUnits="objectBoundingBox">
      <stop offset="0" stop-color="#7a8dd6"/>
      <stop offset="1" stop-color="#445ac0"/>
    </linearGradient>
    <linearGradient id="linear-gradient-33" x1="1.519" y1="0.575" x2="0.547" y2="0.525" xlink:href="#linear-gradient-2"/>
    <linearGradient id="linear-gradient-34" x1="2.02" y1="1.032" x2="1.108" y2="0.318" xlink:href="#linear-gradient-2"/>
    <linearGradient id="linear-gradient-35" x1="0.87" y1="0.255" x2="0.242" y2="0.587" xlink:href="#linear-gradient-3"/>
    <linearGradient id="linear-gradient-36" x1="1.083" y1="0.566" x2="0.129" y2="0.483" gradientUnits="objectBoundingBox">
      <stop offset="0" stop-color="#fe958f"/>
      <stop offset="1" stop-color="#f77c77"/>
    </linearGradient>
    <linearGradient id="linear-gradient-37" x1="0.637" y1="0.54" x2="0.051" y2="0.452" xlink:href="#linear-gradient-3"/>
    <linearGradient id="linear-gradient-38" x1="0" y1="0.5" x2="1" y2="0.5" xlink:href="#linear-gradient-3"/>
    <linearGradient id="linear-gradient-39" x1="0" y1="0.5" x2="1" y2="0.5" xlink:href="#linear-gradient-36"/>
    <linearGradient id="linear-gradient-40" x1="16.339" y1="0.371" x2="15.557" y2="0.586" xlink:href="#linear-gradient-3"/>
    <linearGradient id="linear-gradient-41" x1="-102.177" y1="0.259" x2="-100.855" y2="0.526" xlink:href="#linear-gradient-2"/>
    <linearGradient id="linear-gradient-42" x1="-151.239" y1="0.776" x2="-150.157" y2="0.337" xlink:href="#linear-gradient-2"/>
    <linearGradient id="linear-gradient-43" x1="14.558" y1="0.469" x2="13.546" y2="0.524" xlink:href="#linear-gradient-36"/>
    <linearGradient id="linear-gradient-44" x1="-141.936" y1="0.536" x2="-141.182" y2="0.48" xlink:href="#linear-gradient-3"/>
    <linearGradient id="linear-gradient-47" x1="-0.664" y1="-1.883" x2="0.172" y2="-0.154" xlink:href="#linear-gradient-2"/>
    <linearGradient id="linear-gradient-48" x1="-35.496" y1="-0.575" x2="-36.7" y2="0.819" xlink:href="#linear-gradient-2"/>
    <linearGradient id="linear-gradient-49" x1="-43.306" y1="0.196" x2="-43.803" y2="0.409" xlink:href="#linear-gradient-2"/>
    <linearGradient id="linear-gradient-50" x1="-44.865" y1="0.45" x2="-45.167" y2="0.506" xlink:href="#linear-gradient-3"/>
    <linearGradient id="linear-gradient-51" x1="-42.803" y1="0.611" x2="-43.794" y2="0.454" xlink:href="#linear-gradient-8"/>
    <linearGradient id="linear-gradient-52" x1="-56.681" y1="0.535" x2="-57.466" y2="0.701" xlink:href="#linear-gradient-2"/>
    <linearGradient id="linear-gradient-55" x1="0.818" y1="-1.641" x2="0.369" y2="1.455" xlink:href="#linear-gradient-36"/>
    <linearGradient id="linear-gradient-56" x1="1.011" y1="-2.549" x2="0.346" y2="1.535" xlink:href="#linear-gradient-3"/>
    <linearGradient id="linear-gradient-57" x1="1.011" y1="0.469" x2="0.39" y2="0.504" xlink:href="#linear-gradient-2"/>
    <linearGradient id="linear-gradient-58" x1="1.07" y1="0.612" x2="0.072" y2="0.46" xlink:href="#linear-gradient-2"/>
    <linearGradient id="linear-gradient-59" x1="-1.879" y1="0.554" x2="-2.479" y2="0.446" xlink:href="#linear-gradient-2"/>
    <linearGradient id="linear-gradient-62" x1="-0.227" y1="0.585" x2="0.532" y2="0.494" xlink:href="#linear-gradient-31"/>
    <linearGradient id="linear-gradient-63" x1="-0.226" y1="0.922" x2="0.885" y2="0.274" xlink:href="#linear-gradient-31"/>
    <linearGradient id="linear-gradient-64" x1="0.316" y1="0.274" x2="0.746" y2="0.672" xlink:href="#linear-gradient-31"/>
    <linearGradient id="linear-gradient-65" x1="0.05" y1="0.551" x2="0.967" y2="0.474" xlink:href="#linear-gradient-2"/>
    <linearGradient id="linear-gradient-66" x1="0.263" y1="0.558" x2="0.947" y2="0.451" xlink:href="#linear-gradient-31"/>
    <linearGradient id="linear-gradient-69" x1="1.005" y1="0.427" x2="0.027" y2="0.595" gradientUnits="objectBoundingBox">
      <stop offset="0" stop-color="#445ac0"/>
      <stop offset="1" stop-color="#0e24a2"/>
    </linearGradient>
    <linearGradient id="linear-gradient-70" x1="0.477" y1="0.459" x2="0.237" y2="0.605" xlink:href="#linear-gradient-69"/>
    <linearGradient id="linear-gradient-71" x1="1.081" y1="0.552" x2="0.481" y2="0.507" gradientUnits="objectBoundingBox">
      <stop offset="0" stop-color="#fdbfc0"/>
      <stop offset="1" stop-color="#fc938d"/>
    </linearGradient>
    <linearGradient id="linear-gradient-72" x1="1.061" y1="0.593" x2="0.018" y2="0.43" xlink:href="#linear-gradient-31"/>
    <linearGradient id="linear-gradient-73" x1="0.796" y1="0.56" x2="0.11" y2="0.435" xlink:href="#linear-gradient-69"/>
    <linearGradient id="linear-gradient-76" x1="0.993" y1="0.5" x2="0.615" y2="0.5" xlink:href="#linear-gradient-8"/>
    <linearGradient id="linear-gradient-77" x1="0.911" y1="0.5" x2="0.048" y2="0.5" xlink:href="#linear-gradient-8"/>
    <linearGradient id="linear-gradient-78" x1="0.985" y1="0.656" x2="0.342" y2="0.42" xlink:href="#linear-gradient-31"/>
    <linearGradient id="linear-gradient-79" x1="0.841" y1="0.471" x2="0.062" y2="0.531" xlink:href="#linear-gradient-3"/>
    <linearGradient id="linear-gradient-80" x1="0.939" y1="0.533" x2="-0.064" y2="0.461" xlink:href="#linear-gradient-69"/>
    <linearGradient id="linear-gradient-81" x1="3.144" y1="4.993" x2="2.162" y2="4.844" xlink:href="#linear-gradient-31"/>
    <linearGradient id="linear-gradient-82" x1="0.789" y1="-0.115" x2="0.015" y2="1.36" gradientUnits="objectBoundingBox">
      <stop offset="0" stop-color="#a4b8ea"/>
      <stop offset="0.998" stop-color="#7a8fd8"/>
    </linearGradient>
    <linearGradient id="linear-gradient-83" x1="0.226" y1="1.942" x2="1.226" y2="1.942" xlink:href="#linear-gradient"/>
    <linearGradient id="linear-gradient-84" x1="-0.049" y1="6.667" x2="0.214" y2="6.667" xlink:href="#linear-gradient-2"/>
    <linearGradient id="linear-gradient-86" x1="-0.652" y1="29.565" x2="0.393" y2="29.565" xlink:href="#linear-gradient-5"/>
    <linearGradient id="linear-gradient-87" x1="-1.09" y1="29.091" x2="-0.036" y2="29.091" xlink:href="#linear-gradient-5"/>
    <linearGradient id="linear-gradient-88" x1="-0.342" y1="0.519" x2="0.401" y2="0.504" xlink:href="#linear-gradient-2"/>
    <linearGradient id="linear-gradient-89" x1="0.103" y1="0.569" x2="0.762" y2="0.445" xlink:href="#linear-gradient-2"/>
    <linearGradient id="linear-gradient-90" x1="0.261" y1="-0.23" x2="0.952" y2="0.292" xlink:href="#linear-gradient-3"/>
    <linearGradient id="linear-gradient-91" x1="0.045" y1="0.567" x2="0.966" y2="0.47" xlink:href="#linear-gradient-36"/>
    <linearGradient id="linear-gradient-92" x1="0.326" y1="0.537" x2="0.914" y2="0.462" xlink:href="#linear-gradient-3"/>
    <linearGradient id="linear-gradient-93" x1="0.934" y1="-0.062" x2="0.737" y2="0.129" xlink:href="#linear-gradient-2"/>
    <linearGradient id="linear-gradient-94" x1="0.933" y1="0.185" x2="0.397" y2="0.571" xlink:href="#linear-gradient-2"/>
    <linearGradient id="linear-gradient-95" x1="0.948" y1="0.443" x2="0.182" y2="0.539" xlink:href="#linear-gradient-3"/>
    <linearGradient id="linear-gradient-96" x1="0.979" y1="0.562" x2="-0.002" y2="0.464" xlink:href="#linear-gradient-36"/>
    <linearGradient id="linear-gradient-97" x1="0.632" y1="0.538" x2="0.06" y2="0.444" xlink:href="#linear-gradient-3"/>
  </defs>
  <g id="_饑1" data-name="ﾑ饑1" transform="translate(-411.106 -80.22)">
    <g id="Group_52" data-name="Group 52" transform="translate(400.106 76)">
      <path id="Path_1" data-name="Path 1" d="M686.145,257.579c-5.722-23.6-22.992-41.543-44.875-49.866a5.034,5.034,0,0,1-3.085-5.992q.1-.379.194-.76c7.645-30.841-9.8-61.7-38.976-68.936-22.044-5.465-44.474,4.13-57.417,22.454a29.333,29.333,0,0,1-29.867,11.861,93.121,93.121,0,0,0-40.693.774c-50.023,12.128-80.778,62.362-68.695,112.2s62.43,80.408,112.453,68.28a93.577,93.577,0,0,0,23.977-9.442,31.03,31.03,0,0,1,30.962.32,79.058,79.058,0,0,0,58.308,8.1C669.791,336.539,695.63,296.7,686.145,257.579Z" transform="translate(-389.106 -110.688)" opacity="0.4" fill="url(#linear-gradient)"/>
      <g id="Group_6" data-name="Group 6" transform="translate(77.119 4.22)">
        <g id="Group_2" data-name="Group 2">
          <path id="Path_5" data-name="Path 5" d="M1673.253,930.6l14.224-6.5h-2.756l-7.8,2.824,6.1-6.109-1.879-1.443-16.1,14.081-.907-5.223h-1.29l.671,6.557-5.917,5.176-1.085-16.579h-9.444l-.939,14.355-7.329-5.994-1.656-6.462h-1.41l.576,4.426-15.34-12.544-1.426,1.146,11.091,9.962-10.32-2.579-2.6.318,15.875,4.912,12.268,11.019-1.1,16.815h14.075l-.842-12.864Z" transform="translate(-1600.542 -856.245)" fill="url(#linear-gradient-2)"/>
          <path id="Path_6" data-name="Path 6" d="M1492.563,162.785a8.222,8.222,0,0,1-3.983-5.7A26.458,26.458,0,0,0,1454.9,136.3a8.271,8.271,0,0,1-7.187-1.215,24.694,24.694,0,0,0-39.034,20.2q0,.934.075,1.851a8.182,8.182,0,0,1-3.794,7.514,19.424,19.424,0,0,0,15.314,35.182,18.858,18.858,0,0,1,14.709,2.211,26.448,26.448,0,0,0,28.824-.617,18.823,18.823,0,0,1,14.726-2.9,19.423,19.423,0,0,0,14.029-35.742Z" transform="translate(-1395.968 -130.496)" fill="url(#linear-gradient-3)"/>
          <g id="Group_1" data-name="Group 1">
            <path id="Path_7" data-name="Path 7" d="M1403.671,188.5a19.4,19.4,0,0,1,8.99-16.15,8.182,8.182,0,0,0,3.794-7.514q-.071-.916-.075-1.851a24.694,24.694,0,0,1,39.034-20.2A8.271,8.271,0,0,0,1462.6,144a26.492,26.492,0,0,1,22.072,3.169A26.466,26.466,0,0,0,1454.9,136.3a8.271,8.271,0,0,1-7.187-1.215,24.694,24.694,0,0,0-39.034,20.2q0,.934.075,1.851a8.182,8.182,0,0,1-3.794,7.514,19.435,19.435,0,0,0,1.089,33.427A19.394,19.394,0,0,1,1403.671,188.5Z" transform="translate(-1395.968 -130.496)" fill="url(#linear-gradient-4)"/>
          </g>
        </g>
        <g id="Group_5" data-name="Group 5" transform="translate(14.922 28.226)">
          <g id="Group_4" data-name="Group 4">
            <path id="Path_12" data-name="Path 12" d="M1616.518,377.682q.976-1.64,1.656-3.015a21.76,21.76,0,0,0,.992-2.258,4.437,4.437,0,0,0,.313-1.3,1.683,1.683,0,0,0-.867-1.711,5.585,5.585,0,0,0-2.3-.4,34.859,34.859,0,0,0-5.234.437q-2.859.438-5.133.969a20.405,20.405,0,0,0-2.7.734,4.86,4.86,0,0,0-1.937,1.679,10.819,10.819,0,0,0-1.211,2.25,5.959,5.959,0,0,0-.43,1.383.984.984,0,0,0,.234.664.747.747,0,0,0,.594.273,3.861,3.861,0,0,0,.883-.3,14.51,14.51,0,0,1,1.492-.516q.781-.219,1.656-.414t.875-.32q0-.282-1.25-.281-.8,0-1.953.063a3.039,3.039,0,0,1,.578-.359,11.732,11.732,0,0,1,1.617-.633,24.244,24.244,0,0,1,3.055-.742q2.124-.422,4.391-.727t3.156-.383q1.531,0,1.531.891a8.132,8.132,0,0,1-1.07,2.687,37.277,37.277,0,0,1-3.117,4.8h-2.359a7.76,7.76,0,0,0-1.609.3l-2.875.7a3.7,3.7,0,0,0-.852.25,1.665,1.665,0,0,0-.4.547,9.227,9.227,0,0,0-.484,1.094.471.471,0,0,0,.289.508,3.245,3.245,0,0,0,1.054.07l4.7-.234-1.3,1.523q-.844.992-1.3,1.516t-1.1,1.2a5.076,5.076,0,0,0-2.812,1.062,8.134,8.134,0,0,0-1.929,2.047,4.272,4.272,0,0,0-.7,1.359.649.649,0,0,0,.219.508.749.749,0,0,0,.516.2,5.762,5.762,0,0,0,2.555-1.328,37.568,37.568,0,0,0,4.062-3.531,45.288,45.288,0,0,0,4.164-4.7q.75-.031,1.383-.047t1.055-.047l2.078-2.984h-2.406Q1615.541,379.322,1616.518,377.682Z" transform="translate(-1599.667 -368.995)" fill="url(#linear-gradient-5)"/>
            <path id="Path_13" data-name="Path 13" d="M2293.873,431.64a1.136,1.136,0,0,0,.742.3,1.784,1.784,0,0,0,1.375-.812,2.488,2.488,0,0,0,.64-1.484,1.083,1.083,0,0,0-.312-.836,1.107,1.107,0,0,0-.781-.289,1.793,1.793,0,0,0-1.359.844,2.593,2.593,0,0,0-.656,1.531A.939.939,0,0,0,2293.873,431.64Z" transform="translate(-2239.79 -423.906)" fill="url(#linear-gradient-6)"/>
            <path id="Path_14" data-name="Path 14" d="M1882.7,398.746q-.656.586-1.672,1.555t-1.93,1.859q-.914.891-.961.938,1.062-2.047,2.086-3.68t2.055-3.156q1.031-1.524,1.406-2.156a2.208,2.208,0,0,0,.375-1.055,2.246,2.246,0,0,0-.219-1.109.585.585,0,0,0-.609-.328.81.81,0,0,0-.461.266,8.045,8.045,0,0,0-.648.742q-.391.492-.875,1.054t-1.219,1.3a25.974,25.974,0,0,1-3.508,2.984,5.881,5.881,0,0,1-2.054,1.109.373.373,0,0,1-.422-.422,1.006,1.006,0,0,1,.125-.438l.3-.859a30.292,30.292,0,0,0,2.586-2.414,13.8,13.8,0,0,0,1.359-1.664,2.144,2.144,0,0,0,.43-.953,1.341,1.341,0,0,0-.4-.906,1.128,1.128,0,0,0-.82-.437,2.1,2.1,0,0,0-.937.508,13.232,13.232,0,0,0-1.547,1.43,21.442,21.442,0,0,0-1.828,2.25,10.85,10.85,0,0,0-.945,1.6,3.412,3.412,0,0,0-.261,1.158q-.855.788-1.215,1.115a8.5,8.5,0,0,1-.953.758,1.537,1.537,0,0,1-.844.3,1.371,1.371,0,0,1-1.2-.625,2.812,2.812,0,0,1-.429-1.625,7.137,7.137,0,0,1,.156-1.25,32.168,32.168,0,0,0,4.922-6.461,11.545,11.545,0,0,0,1.765-5.336,3.129,3.129,0,0,0-.109-.992.424.424,0,0,0-.437-.289,1.6,1.6,0,0,0-.734.281,9.756,9.756,0,0,0-2.508,2.351,28.036,28.036,0,0,0-2.609,3.937,27.332,27.332,0,0,0-2.008,4.453,13.4,13.4,0,0,0-.719,3.141,18.111,18.111,0,0,1-1.961,1.453,3.163,3.163,0,0,1-1.617.539,1.583,1.583,0,0,1-1.093-.375,1.2,1.2,0,0,1-.422-.938,1.82,1.82,0,0,1,.414-1.172,24.615,24.615,0,0,1,1.773-1.828,6.874,6.874,0,0,0,1.1-1.516,3.7,3.7,0,0,0,.617-1.562q0-.734-.953-.734-1.844,0-4.062,3.453-.469.766-.641,1.125a4.386,4.386,0,0,0-.3.914c-.035.154-.061.312-.081.472q-1.212,1.067-1.8,1.5a1.953,1.953,0,0,1-1.086.469.96.96,0,0,1-.672-.258.879.879,0,0,1-.281-.68,2.257,2.257,0,0,1,.492-1.375q.491-.656,1.484-1.758t.992-1.4a3.279,3.279,0,0,0-.328-1.211q-.328-.758-.687-.742a2.289,2.289,0,0,0-.859.563q-.672.562-1.555,1.375t-2.43,2.226q-1.547,1.414-3.7,3.32,1.422-1.875,2.32-3.2a23.194,23.194,0,0,0,1.367-2.219,3.422,3.422,0,0,0,.469-1.242,1.277,1.277,0,0,0-.3-.867.979.979,0,0,0-.773-.352,3.313,3.313,0,0,0-1.867.851,25.594,25.594,0,0,0-2.39,2.141q-1.289,1.289-2.367,2.383t-1.343,1.094q-.328,0-.328-.422a2.207,2.207,0,0,1,.422-.961,6.1,6.1,0,0,1,.89-1.117,11.715,11.715,0,0,0,1.445-1.547,2.3,2.3,0,0,0,.57-1.078.549.549,0,0,0-.312-.492,1.518,1.518,0,0,0-.766-.18,1.992,1.992,0,0,0-1.4.648,15.626,15.626,0,0,0-1.711,2.164,14.622,14.622,0,0,0-.992,1.75,3.391,3.391,0,0,0-.246.8q-2.087,1.773-3.106,1.774-1.063,0-1.062-1.156a2.188,2.188,0,0,1,.3-1.188q.3-.484,1.063-1.508a3.292,3.292,0,0,0,.758-1.4,1.209,1.209,0,0,0-.094-.43q-.094-.242-.266-.633l-.281-.64a4.377,4.377,0,0,0,.766-.32.45.45,0,0,0,.219-.414,1.473,1.473,0,0,0-.164-.531,2.079,2.079,0,0,0-.445-.633.863.863,0,0,0-.609-.274,9.014,9.014,0,0,0-3.453,1.047,18.98,18.98,0,0,0-4.609,3.2,13.921,13.921,0,0,0-1.3,1.359,2.972,2.972,0,0,0-.547,1.008,4.54,4.54,0,0,0-.141,1.227,5,5,0,0,0,.4,1.961,5.715,5.715,0,0,0,.914,1.539q.516.594.859.594a3.056,3.056,0,0,0,1.828-1.07q1.109-1.07,3.391-3.6a11.131,11.131,0,0,0-.891,3.578,2.191,2.191,0,0,0,.258,1.18.954.954,0,0,0,.867.4q1.619,0,5.271-3.968a5.15,5.15,0,0,0,.479,2.093q.484,1,1.047,1a.781.781,0,0,0,.562-.312,15.022,15.022,0,0,0,.929-1.242,16.434,16.434,0,0,1,1.164-1.508q1.859-2.062,2.508-2.711t.992-.648a.276.276,0,0,1,.312.313.655.655,0,0,1-.094.391q-1.125,1.875-1.734,3.086a4.722,4.722,0,0,0-.609,1.68q0,1.156.813,1.156a2.37,2.37,0,0,0,1.625-.969q.453-.515,1.234-1.414t2.016-2.1q1.233-1.2,2.828-2.5l-1.172,1.929q-.641,1.055-1.031,1.8a9.692,9.692,0,0,0-.578,1.3,3.311,3.311,0,0,0-.187,1.078,1.322,1.322,0,0,0,.328.914,1.048,1.048,0,0,0,.813.367,2.967,2.967,0,0,0,1.367-.461,13.28,13.28,0,0,0,1.93-1.391q1.018-.853,2.249-2a6.757,6.757,0,0,0,.611,2.481,2.022,2.022,0,0,0,1.906,1.344,3.994,3.994,0,0,0,2.235-.992,14.911,14.911,0,0,0,2.489-2.518,6.251,6.251,0,0,0,.612,2.534,1.928,1.928,0,0,0,1.742,1.211q1.845,0,4.681-3.518a7.446,7.446,0,0,0,.552,1.51q.672,1.4,1.281,1.4.672,0,2.656-1.734l2.781-2.359a85.9,85.9,0,0,0-5.047,8.8,1.755,1.755,0,0,0-.172.8,3.167,3.167,0,0,0,.258,1.148q.258.648.586.648.14,0,.367-.258t.563-.734q.335-.477.758-1.023.156-.2,1.086-1.422t2.64-3.25q1.711-2.031,3.82-4.3v-1.047Q1883.357,398.16,1882.7,398.746Zm-12.843-8.906a10.2,10.2,0,0,1,2.141-3.054.91.91,0,0,1,.359-.172q.25,0,.25.359a4.067,4.067,0,0,1-.383,1.391,17.878,17.878,0,0,1-1.055,2.078,22.673,22.673,0,0,1-1.43,2.172,15.569,15.569,0,0,1-1.57,1.812A18.194,18.194,0,0,1,1869.858,389.84Zm-36.4,7.281a12.279,12.279,0,0,1-3,2.523,1.71,1.71,0,0,1-.609.219.521.521,0,0,1-.469-.32,1.722,1.722,0,0,1-.172-.82,3.521,3.521,0,0,1,1.726-2.672,33.819,33.819,0,0,1,5.789-3.156Q1834.813,395.566,1833.454,397.121Z" transform="translate(-1809.627 -382.395)" fill="url(#linear-gradient-7)"/>
          </g>
        </g>
      </g>
      <g id="Group_43" data-name="Group 43" transform="translate(39.861 87.154)">
        <g id="Group_14" data-name="Group 14">
          <g id="Group_13" data-name="Group 13">
            <g id="Group_12" data-name="Group 12">
              <g id="Group_11" data-name="Group 11">
                <g id="Group_10" data-name="Group 10">
                  <g id="Group_9" data-name="Group 9">
                    <g id="Group_8" data-name="Group 8">
                      <g id="Group_7" data-name="Group 7">
                        <path id="Rectangle_2" data-name="Rectangle 2" d="M65.8,0H117.52a65.8,65.8,0,0,1,65.8,65.8v0a65.8,65.8,0,0,1-65.8,65.8H65.8A65.8,65.8,0,0,1,0,65.8v0A65.8,65.8,0,0,1,65.8,0Z" transform="translate(20.823)" fill="url(#linear-gradient-8)"/>
                        <path id="Path_20" data-name="Path 20" d="M1447.241,1292.031v98.209a10.915,10.915,0,0,1-.3,2.529,11.057,11.057,0,0,1-10.775,8.461H1289.679a11.029,11.029,0,0,1-11.069-10.99v-98.209a11.029,11.029,0,0,1,11.069-10.99H1436.17A11.031,11.031,0,0,1,1447.241,1292.031Z" transform="translate(-1250.441 -1274.878)" fill="url(#linear-gradient-9)"/>
                        <path id="Path_21" data-name="Path 21" d="M914.849,2697.549v3.713c0,6.646,6.612,12.034,14.768,12.034H1125.05c8.156,0,14.768-5.388,14.768-12.034v-3.712Z" transform="translate(-914.849 -2581.693)" fill="url(#linear-gradient-8)"/>
                      </g>
                    </g>
                    <path id="Path_22" data-name="Path 22" d="M2019.188,2697.549v1.337c0,2.393,1.585,4.333,3.54,4.333h46.851c1.955,0,3.54-1.94,3.54-4.333v-1.337Z" transform="translate(-1933.669 -2581.693)" fill="url(#linear-gradient-11)"/>
                  </g>
                </g>
              </g>
            </g>
          </g>
        </g>
        <path id="Path_23" data-name="Path 23" d="M1484.622,1831.684a4.8,4.8,0,1,1-4.038,7.922c-4.329-2.207-5.82-7.957-5.82-7.957S1480.293,1829.477,1484.622,1831.684Z" transform="translate(-1431.405 -1781.966)" fill="url(#linear-gradient-12)"/>
        <path id="Path_24" data-name="Path 24" d="M1687.348,1820.125a3.639,3.639,0,1,1-6.671.94c-.514-3.646,2.405-7.072,2.405-7.072S1686.834,1816.479,1687.348,1820.125Z" transform="translate(-1621.316 -1766.558)" fill="url(#linear-gradient-13)"/>
        <path id="Path_25" data-name="Path 25" d="M1562.714,1979.787a4.4,4.4,0,1,1,.68,8.113c-4.434.371-8.368-3.384-8.368-3.384S1558.279,1980.159,1562.714,1979.787Z" transform="translate(-1505.45 -1919.491)" fill="url(#linear-gradient-14)"/>
        <path id="Path_26" data-name="Path 26" d="M3094.539,1851.23a4.985,4.985,0,1,1-4.127-8.255c4.511-2.255,10.232.044,10.232.044S3099.051,1848.974,3094.539,1851.23Z" transform="translate(-2918.163 -1792.381)" fill="url(#linear-gradient-15)"/>
        <path id="Path_27" data-name="Path 27" d="M2965.917,1797.9a4.238,4.238,0,1,1-7.352-2.741c1.5-4.018,6.388-5.9,6.388-5.9S2967.415,1793.882,2965.917,1797.9Z" transform="translate(-2799.928 -1743.735)" fill="url(#linear-gradient-16)"/>
        <path id="Path_28" data-name="Path 28" d="M2974.46,2007.5a3.922,3.922,0,1,1,1.617-7.08c3.869.884,6.2,5.14,6.2,5.14S2978.329,2008.385,2974.46,2007.5Z" transform="translate(-2810.851 -1938.408)" fill="url(#linear-gradient-17)"/>
        <path id="Path_29" data-name="Path 29" d="M2356.765,1802.6a5.252,5.252,0,1,1-9.582-1.656c.9-5.237,6.429-8.654,6.429-8.654S2357.669,1797.361,2356.765,1802.6Z" transform="translate(-2236.153 -1746.534)" fill="url(#linear-gradient-18)"/>
        <path id="Path_30" data-name="Path 30" d="M2238.808,1931a4.677,4.677,0,1,1-7.71,3.942c-2.154-4.214-.045-9.6-.045-9.6S2236.654,1926.789,2238.808,1931Z" transform="translate(-2128.274 -1869.286)" fill="url(#linear-gradient-19)"/>
        <path id="Path_31" data-name="Path 31" d="M2385.633,2041.205a4.6,4.6,0,1,1-5.241-6.715c3.67-2.864,9.265-1.829,9.265-1.829S2389.3,2038.342,2385.633,2041.205Z" transform="translate(-2264.505 -1968.126)" fill="url(#linear-gradient-20)"/>
        <path id="Path_32" data-name="Path 32" d="M2580.075,2259.93a3.21,3.21,0,1,1,5.41-2.462c1.346,2.957-.268,6.585-.268,6.585S2581.421,2262.888,2580.075,2259.93Z" transform="translate(-2450.722 -2173.111)" fill="url(#linear-gradient-21)"/>
        <path id="Path_33" data-name="Path 33" d="M3178.917,1343.43a3.05,3.05,0,1,1-2.332-5.142c2.811-1.274,6.255.264,6.255.264S3181.727,1342.156,3178.917,1343.43Z" transform="translate(-2998.981 -1327.225)" fill="url(#linear-gradient-22)"/>
        <path id="Path_34" data-name="Path 34" d="M3183.006,1463.768a4.086,4.086,0,1,1,1.8-7.347c4.015.986,6.368,5.458,6.368,5.458S3187.02,1464.753,3183.006,1463.768Z" transform="translate(-3003.149 -1436.507)" fill="url(#linear-gradient-23)"/>
        <path id="Path_35" data-name="Path 35" d="M1451.778,1338.757a4.044,4.044,0,1,1-4.4,6.055c-3.309-2.407-3.789-7.386-3.789-7.386S1448.469,1336.349,1451.778,1338.757Z" transform="translate(-1402.639 -1326.675)" fill="url(#linear-gradient-24)"/>
        <path id="Path_36" data-name="Path 36" d="M1456.122,1483.46a3.063,3.063,0,1,1-.182,5.669c-3.1-.1-5.519-3.014-5.519-3.014S1453.024,1483.361,1456.122,1483.46Z" transform="translate(-1408.948 -1461.619)" fill="url(#linear-gradient-25)"/>
        <path id="Path_37" data-name="Path 37" d="M2077.481,2303.536a3.887,3.887,0,1,1,7.015,1.61c-.88,3.834-5.1,6.136-5.1,6.136S2076.6,2307.37,2077.481,2303.536Z" transform="translate(-1987.29 -2214.118)" fill="url(#linear-gradient-26)"/>
        <path id="Path_38" data-name="Path 38" d="M1965.224,2262.093a2.944,2.944,0,1,1,2.094,5.031c-2.75,1.145-6.026-.443-6.026-.443S1962.474,2263.238,1965.224,2262.093Z" transform="translate(-1880.256 -2179.643)" fill="url(#linear-gradient-27)"/>
        <g id="Group_42" data-name="Group 42" transform="translate(54.036 10.58)">
          <g id="Group_15" data-name="Group 15" transform="translate(6.39 27.274)">
            <path id="Path_39" data-name="Path 39" d="M2015.027,2125.661c-11.85,0-22.97-3.11-29.02-8.115l-.558.674a34.47,34.47,0,0,0,12.366,6.036,63.245,63.245,0,0,0,16.774,2.276v1.632h.875v-1.632a63.247,63.247,0,0,0,16.774-2.276,34.467,34.467,0,0,0,12.366-6.036l-.558-.674C2038,2122.551,2026.877,2125.661,2015.027,2125.661Z" transform="translate(-1962.968 -2084.458)" fill="url(#linear-gradient-28)"/>
            <path id="Path_40" data-name="Path 40" d="M2533.957,1694.028l-.558-.674c-4.3,3.561-12.223,5.773-20.667,5.773s-16.362-2.212-20.666-5.773l-.558.674a24.766,24.766,0,0,0,8.885,4.339,45.488,45.488,0,0,0,12.338,1.635l.259,0v1.271h.875v-1.283a44.923,44.923,0,0,0,11.2-1.62A24.772,24.772,0,0,0,2533.957,1694.028Z" transform="translate(-2429.839 -1693.115)" fill="url(#linear-gradient-29)"/>
            <path id="Path_41" data-name="Path 41" d="M1728.706,1695.288a24.773,24.773,0,0,0,8.886-4.339l-.558-.674c-4.3,3.561-12.223,5.773-20.667,5.773s-16.362-2.212-20.666-5.773l-.558.674a24.774,24.774,0,0,0,8.886,4.339,45.272,45.272,0,0,0,11.9,1.631v1.511h.875v-1.511A45.275,45.275,0,0,0,1728.706,1695.288Z" transform="translate(-1695.143 -1690.274)" fill="url(#linear-gradient-30)"/>
          </g>
          <g id="Group_18" data-name="Group 18" transform="translate(14.911 35.43)">
            <g id="Group_16" data-name="Group 16">
              <rect id="Rectangle_3" data-name="Rectangle 3" width="25.405" height="31.012" fill="url(#linear-gradient-31)"/>
              <rect id="Rectangle_4" data-name="Rectangle 4" width="22.889" height="29.745" transform="translate(1.258 1.267)" fill="#fff"/>
              <rect id="Rectangle_5" data-name="Rectangle 5" width="25.405" height="5.603" transform="translate(0 25.41)" fill="url(#linear-gradient-11)"/>
            </g>
            <g id="Group_17" data-name="Group 17" transform="translate(4.173 2.327)">
              <path id="Path_42" data-name="Path 42" d="M1915.137,1893.1h-2.224v-4.256h1.36Z" transform="translate(-1908.744 -1883.952)" fill="#efbc90"/>
              <path id="Path_43" data-name="Path 43" d="M1904.823,1833.86c.376,1.747.1,3.508-.957,3.89-.989.359-2.706-.589-3.491-2.316-.827-1.818-.423-3.177,1.042-3.683C1902.973,1831.213,1904.411,1831.945,1904.823,1833.86Z" transform="translate(-1896.787 -1831.119)" fill="#f4caab"/>
              <path id="Path_44" data-name="Path 44" d="M1893.993,1825.654a2.719,2.719,0,0,0-2.408,3.043,2.891,2.891,0,0,0,1.545,2.077s.477-1.375,1.26-1.594c1.092-.306.62-1.282,1.13-1.387.532-.11,1.688-.532,1.669-1.306C1896.439,1826.515,1895.81,1825.512,1893.993,1825.654Z" transform="translate(-1889.06 -1825.641)" fill="#03053e"/>
              <path id="Path_45" data-name="Path 45" d="M1913.628,1870.672a.492.492,0,1,1-.678-.332A.538.538,0,0,1,1913.628,1870.672Z" transform="translate(-1908.535 -1866.846)" fill="#f4caab"/>
              <path id="Path_46" data-name="Path 46" d="M1922.784,1871.016a9.984,9.984,0,0,0,.482,2.605,1.336,1.336,0,0,0,2.431-.212s-.756.157-.67-.162c.1-.377.878-.381.878-.381a.194.194,0,0,0,.179-.147,1.475,1.475,0,0,0-.061-.544,6.865,6.865,0,0,1-1.473.367c-.5,0-.959-.355-1.384-1.525Z" transform="translate(-1917.851 -1867.502)" fill="#03053e"/>
              <path id="Path_47" data-name="Path 47" d="M1891.015,2092.938l-.164-.663-.475-1.92-4.01,1.28.514,1.3Z" transform="translate(-1884.252 -2069.855)" fill="#efbc90"/>
              <path id="Path_48" data-name="Path 48" d="M1912.572,2093.5l.41-1.927-4.158-.609-.16,1.971-.046.565Z" transform="translate(-1904.783 -2070.415)" fill="#efbc90"/>
              <path id="Path_49" data-name="Path 49" d="M1886.5,2078.974l-.24-2.3-7.5-1.456,1.136,3.755Z" transform="translate(-1877.242 -2055.892)" fill="url(#linear-gradient-33)"/>
              <path id="Path_50" data-name="Path 50" d="M1881.252,2084.2c.225-1.943.339-3.317.339-3.317l-7.564,1.056s.1.92.241,2.261Z" transform="translate(-1872.869 -2061.113)" fill="url(#linear-gradient-34)"/>
              <path id="Path_51" data-name="Path 51" d="M1913.66,1940.722l4.957,7.084-.9-.251,5.847-2.22.531-.2.422,1.017-.518.234-5.7,2.571a.729.729,0,0,1-.877-.219l-.024-.032-5.272-6.854-.581-.756,1.571-1.153Z" transform="translate(-1907.479 -1931.09)" fill="#efbc90"/>
              <path id="Path_52" data-name="Path 52" d="M1904.965,1944.941c.729,1.909,4.164,6.15,6.819,6.92,1.576.458,4.994-1.94,4.994-1.94l-.5-1.539s-2.591,1.721-3.983.4-3.86-5.556-5.117-5.79C1906.072,1942.784,1904.637,1944.083,1904.965,1944.941Z" transform="translate(-1901.368 -1933.883)" fill="url(#linear-gradient-35)"/>
              <path id="Path_53" data-name="Path 53" d="M1876.823,1932.191a2.145,2.145,0,0,0,2.334.341,46.407,46.407,0,0,0,.921,6c.522,1.74,1.957,6.219,1.957,6.219l-8.383.091C1873.425,1940.952,1874.9,1936.531,1876.823,1932.191Z" transform="translate(-1872.502 -1923.94)" fill="#dbc6af"/>
              <path id="Path_54" data-name="Path 54" d="M1869.87,1927.674s-4.055,6.064-3.229,12.533c0,0-.348,1.271,4.253,1.1s4.864-.808,4.864-.808a44.363,44.363,0,0,1-3.15-12.131A5.088,5.088,0,0,1,1869.87,1927.674Z" transform="translate(-1865.953 -1919.773)" fill="url(#linear-gradient-36)"/>
              <path id="Path_55" data-name="Path 55" d="M1865.138,1957.571c.058-.856.128-1.713.211-2.564.059-.584.124-1.166.2-1.741.039-.288.084-.572.131-.854l.078-.416c.026-.126.056-.249.093-.378a13.609,13.609,0,0,1,.576-1.572c.225-.527.471-1.052.728-1.573.514-1.039,1.074-2.08,1.651-3.078l.477-.825-1.712-.945-.434.849c-.556,1.087-1.065,2.164-1.547,3.278-.239.556-.469,1.118-.68,1.695a15.15,15.15,0,0,0-.553,1.8c-.035.158-.067.326-.093.492l-.06.463c-.033.305-.063.609-.086.911-.047.6-.08,1.2-.106,1.8-.035.889-.057,1.772-.066,2.657Z" transform="translate(-1863.571 -1934.488)" fill="#f4caab"/>
              <path id="Path_56" data-name="Path 56" d="M1860.952,1952.831a25.572,25.572,0,0,1,.753-5.861c.66-1.8,3.564-5.75,3.28-7-.25-1.1-2.013-1.9-2.67-1.257-1.462,1.428-2.3,4.67-2.926,7.363a24.1,24.1,0,0,0-.12,6.752Z" transform="translate(-1859.079 -1929.749)" fill="url(#linear-gradient-37)"/>
              <path id="Path_57" data-name="Path 57" d="M2073.748,1999.69c.129.368-.315,1.032-1.133,1.429-.754.366-1.432.172-1.586-.192C2070.685,2000.116,2073.548,1999.12,2073.748,1999.69Z" transform="translate(-2054.589 -1986.056)" fill="#efbc90"/>
              <path id="Path_58" data-name="Path 58" d="M2073.943,1995.436c-.114-.128-.57-.015-1.048.334-.44.322-.607.7-.5.841C2072.62,1996.924,2074.119,1995.635,2073.943,1995.436Z" transform="translate(-2055.845 -1982.24)" fill="#efbc90"/>
            </g>
          </g>
          <g id="Group_21" data-name="Group 21" transform="translate(76.581 35.43)">
            <g id="Group_19" data-name="Group 19">
              <rect id="Rectangle_6" data-name="Rectangle 6" width="25.405" height="31.012" fill="url(#linear-gradient-38)"/>
              <rect id="Rectangle_7" data-name="Rectangle 7" width="22.889" height="29.745" transform="translate(1.258 1.267)" fill="#fff"/>
              <rect id="Rectangle_8" data-name="Rectangle 8" width="25.405" height="5.603" transform="translate(0 25.41)" fill="url(#linear-gradient-39)"/>
            </g>
            <g id="Group_20" data-name="Group 20" transform="translate(1.869 2.817)">
              <path id="Path_59" data-name="Path 59" d="M2677.562,1937.458l-2.743,8.348.8-.51-6.34-.442-.576-.041-.112,1.113.572.075,6.3.828a.741.741,0,0,0,.789-.471l.015-.038,3.116-8.216.343-.906-1.867-.66Z" transform="translate(-2665.272 -1928.44)" fill="#efbc90"/>
              <path id="Path_60" data-name="Path 60" d="M2625.683,2042.907c-.015.4.794.924,1.962,1.086,1.076.15,1.837-.228,1.885-.626C2629.638,2042.478,2625.707,2042.293,2625.683,2042.907Z" transform="translate(-2625.683 -2026.241)" fill="#efbc90"/>
              <path id="Path_61" data-name="Path 61" d="M2648.124,2036.882c.073-.158.55-.182,1.118.018.523.184.8.5.737.67C2649.848,2037.94,2648.01,2037.127,2648.124,2036.882Z" transform="translate(-2646.381 -2020.898)" fill="#efbc90"/>
              <path id="Path_62" data-name="Path 62" d="M2707.019,1948.1l-.227,3.53s3.973-.234,5.265-1.8c1.811-2.195,4.17-8.436,2.185-9.385-2.2-1.053-2.33,4.336-3.964,6.768C2709.576,1948.258,2707.019,1948.1,2707.019,1948.1Z" transform="translate(-2700.511 -1931.923)" fill="url(#linear-gradient-40)"/>
              <path id="Path_63" data-name="Path 63" d="M2758.575,1832.558c1.734-1.243,3.822-.4,4.1,1.4.36,2.329-.095,4.2.484,5.749a11.633,11.633,0,0,1,.648,4.748c-2.366-3.225-4.811-1.89-6.161-5.13C2757.212,1838.283,2756.915,1833.749,2758.575,1832.558Z" transform="translate(-2747.114 -1831.97)" fill="#03053e"/>
              <path id="Path_64" data-name="Path 64" d="M2782.61,1893.7h2.07v-3.96h-1.265Z" transform="translate(-2770.458 -1885.27)" fill="#efbc90"/>
              <path id="Path_65" data-name="Path 65" d="M2761.1,1838.573c-.35,1.625-.091,3.265.89,3.62.921.333,2.518-.549,3.249-2.156.77-1.692.394-2.956-.969-3.427A2.318,2.318,0,0,0,2761.1,1838.573Z" transform="translate(-2750.478 -1836.104)" fill="#f4caab"/>
              <path id="Path_66" data-name="Path 66" d="M2766.773,2093.931l.482-1.673-3.834-.827-.265,1.822-.1.679Z" transform="translate(-2752.418 -2071.338)" fill="#efbc90"/>
              <path id="Path_67" data-name="Path 67" d="M2786.149,2093.928h3.629l-.023-.661-.064-1.839-3.892.389.3,1.815Z" transform="translate(-2773.4 -2071.336)" fill="#efbc90"/>
              <path id="Path_68" data-name="Path 68" d="M2757.405,2089.885l.677-2.839h-5.43l-.352,2.839Z" transform="translate(-2742.495 -2067.293)" fill="url(#linear-gradient-41)"/>
              <path id="Path_69" data-name="Path 69" d="M2784.014,2089.885c.015-1.639.047-2.839.047-2.839h-5.217s.094,1.177.245,2.839Z" transform="translate(-2766.983 -2067.293)" fill="url(#linear-gradient-42)"/>
              <path id="Path_70" data-name="Path 70" d="M2751.5,1936.537a2.052,2.052,0,0,1-2.232.326,44.383,44.383,0,0,1-.881,5.741c-.5,1.664-1.8,5.9-1.8,5.9l7.942.14C2754.749,1944.917,2753.342,1940.688,2751.5,1936.537Z" transform="translate(-2737.227 -1928.44)" fill="#76d3f4"/>
              <path id="Path_71" data-name="Path 71" d="M2795.97,1954.5c.229.507.447,1.016.645,1.527a13,13,0,0,1,.5,1.521c.031.125.055.243.077.364l.061.4c.036.271.07.544.1.821.057.552.1,1.111.138,1.671.054.834.093,1.675.121,2.513h1.135c.02-.853.029-1.7.023-2.56-.006-.573-.018-1.147-.044-1.726-.013-.289-.032-.581-.054-.874l-.042-.444c-.02-.16-.044-.321-.074-.473a14.433,14.433,0,0,0-.471-1.737c-.184-.558-.386-1.1-.6-1.641-.425-1.08-.878-2.126-1.375-3.182l-.388-.825-1.667.849.43.8C2795.009,1952.482,2795.512,1953.5,2795.97,1954.5Z" transform="translate(-2781.021 -1940.729)" fill="#f4caab"/>
              <path id="Path_72" data-name="Path 72" d="M2746.517,1930.4s3.878,5.8,3.088,11.987c0,0,.333,1.215-4.067,1.05s-4.652-.773-4.652-.773a42.437,42.437,0,0,0,3.013-11.6A4.868,4.868,0,0,0,2746.517,1930.4Z" transform="translate(-2731.964 -1922.78)" fill="url(#linear-gradient-43)"/>
              <path id="Path_73" data-name="Path 73" d="M2793.3,1958.66l3.39.42a42.558,42.558,0,0,0-.637-6.062c-.632-2.775-1.811-6.909-3.938-6.346-2.78.736,1.253,6.3,1.544,7.832A16.31,16.31,0,0,1,2793.3,1958.66Z" transform="translate(-2778.334 -1937.741)" fill="url(#linear-gradient-44)"/>
              <path id="Path_74" data-name="Path 74" d="M2769.84,1832.792a2.319,2.319,0,0,1,1.194.25,3.391,3.391,0,0,1,1.664,2.94c.158,1.686-.517,2.511.923,4.1,1.62,1.23,4.507,1.02,4.174,3.78s-3.994,2.4-4.864,1.02-.772-2.61-1.256-3.48-1.324-.36-1.744-1.32c-.493-.9.363-2.929.516-3.278a1.067,1.067,0,0,0-.787-.863,3.335,3.335,0,0,1-2.16-1.8A2.617,2.617,0,0,1,2769.84,1832.792Z" transform="translate(-2756.518 -1832.728)" fill="#03053e"/>
              <path id="Path_75" data-name="Path 75" d="M2797.564,1872.831a.457.457,0,1,0,.631-.309A.5.5,0,0,0,2797.564,1872.831Z" transform="translate(-2784.203 -1869.351)" fill="#f4caab"/>
            </g>
          </g>
          <g id="Group_25" data-name="Group 25" transform="translate(91.492)">
            <g id="Group_22" data-name="Group 22">
              <rect id="Rectangle_9" data-name="Rectangle 9" width="25.405" height="31.012" fill="url(#linear-gradient-31)"/>
              <rect id="Rectangle_10" data-name="Rectangle 10" width="22.889" height="29.745" transform="translate(1.258 1.267)" fill="#fff"/>
              <rect id="Rectangle_11" data-name="Rectangle 11" width="25.405" height="5.603" transform="translate(0 25.41)" fill="url(#linear-gradient-11)"/>
            </g>
            <g id="Group_24" data-name="Group 24" transform="translate(5.103 2.511)">
              <g id="Group_23" data-name="Group 23">
                <path id="Path_76" data-name="Path 76" d="M2983.789,1435.026l2.134-.218-.417-4.082-1.3.133Z" transform="translate(-2974.204 -1426.062)" fill="#efbc90"/>
                <path id="Path_77" data-name="Path 77" d="M2954.825,1379.876c-.189,1.712.249,3.375,1.3,3.638.984.247,2.538-.83,3.122-2.563.615-1.825.095-3.089-1.359-3.431A2.4,2.4,0,0,0,2954.825,1379.876Z" transform="translate(-2947.443 -1376.9)" fill="#f4caab"/>
                <path id="Path_78" data-name="Path 78" d="M2955.377,1375.687l-.234-.069s.007-.8-.158-.99c-.212-.242-1.143-.12-1.143-.12s-.126-.882-.5-1.083a3.215,3.215,0,0,0-2.125.123,2.559,2.559,0,0,1-.007-1.628,2.246,2.246,0,0,1,2.01-1.372c.944-.144,1.972-.082,2.291.957,0,0,.829.094.943,1.213S2955.377,1375.687,2955.377,1375.687Z" transform="translate(-2944.02 -1370.491)" fill="#777da0"/>
                <path id="Path_79" data-name="Path 79" d="M2991.323,1415.46a.474.474,0,1,0,.618-.385A.519.519,0,0,0,2991.323,1415.46Z" transform="translate(-2981.123 -1411.604)" fill="#f4caab"/>
                <path id="Path_80" data-name="Path 80" d="M2922.761,1641.6l-.461-2.064-1.832.529-5.309,1.534Z" transform="translate(-2910.889 -1618.705)" fill="#efbc90"/>
                <path id="Path_81" data-name="Path 81" d="M2956.657,1652.1l-.245-1.183-1.839.5-2.479.679Z" transform="translate(-2944.964 -1629.2)" fill="#f4caab"/>
                <path id="Path_82" data-name="Path 82" d="M2889.033,1639.347a6.963,6.963,0,0,0-.276-2.253h-5.571c-1.086,1.021-3.849,1.634-6.314,2.253Z" transform="translate(-2875.566 -1616.449)" fill="url(#linear-gradient-47)"/>
                <path id="Path_83" data-name="Path 83" d="M2914.747,1639.347a6.833,6.833,0,0,0-.2-2.253h-5.571c-.6.962-2.8,1.62-5.107,2.253Z" transform="translate(-2900.47 -1616.449)" fill="url(#linear-gradient-48)"/>
                <path id="Path_84" data-name="Path 84" d="M2897.374,1489.844l-2.289,7.874.745-.509L2889.9,1497l-.548-.019-.07,1.058.545.053,5.9.575a.7.7,0,0,0,.733-.472l.013-.038,2.647-7.761.3-.87-1.793-.566Z" transform="translate(-2887.019 -1479.787)" fill="#efbc90"/>
                <path id="Path_85" data-name="Path 85" d="M2920.939,1491.865c-.072,1.937-1.782,6.739-3.931,8.24-1.276.891-5.158-.168-5.158-.168l-.022-1.533s2.958.537,3.805-1.075,1.666-5.947,2.723-6.54C2919.287,1490.266,2920.972,1490.995,2920.939,1491.865Z" transform="translate(-2907.815 -1481.311)" fill="url(#linear-gradient-49)"/>
                <path id="Path_86" data-name="Path 86" d="M2946.732,1472.83s3.909,5.847,3.114,12.084c0,0,.336,1.225-4.1,1.058s-4.69-.78-4.69-.78a42.77,42.77,0,0,0,3.037-11.7A4.9,4.9,0,0,0,2946.732,1472.83Z" transform="translate(-2934.779 -1464.905)" fill="url(#linear-gradient-50)"/>
                <path id="Path_87" data-name="Path 87" d="M2860.008,1590c-.034.375.486.884,1.27,1.053.724.156,1.264-.192,1.321-.568C2862.725,1589.648,2860.061,1589.423,2860.008,1590Z" transform="translate(-2860.007 -1572.707)" fill="#efbc90"/>
                <path id="Path_88" data-name="Path 88" d="M2868.427,1584.2c.076-.147.53-.149,1.059.064.488.2.732.511.67.666C2870.017,1585.28,2868.309,1584.431,2868.427,1584.2Z" transform="translate(-2867.769 -1567.558)" fill="#efbc90"/>
                <path id="Path_89" data-name="Path 89" d="M2953.848,1471.127a51.331,51.331,0,0,1-.855,7.528,32.528,32.528,0,0,1-1.922,6.492s7.695.471,9.033-1.431c1.206-1.712-2.075-11.251-3.853-13.345Z" transform="translate(-2944.02 -1462.636)" fill="url(#linear-gradient-51)"/>
                <path id="Path_90" data-name="Path 90" d="M2929.885,1496.644l.3,8.332.547-.718-5.788,1.691-.526.154.266,1.027.534-.121,5.88-1.335a.7.7,0,0,0,.547-.679v-.039l.072-8.337.008-.919-1.879.026Z" transform="translate(-2919.434 -1486.003)" fill="#f4caab"/>
                <path id="Path_91" data-name="Path 91" d="M2896.833,1632.583c.095.364.756.668,1.551.562.733-.1,1.125-.608,1.051-.98C2899.27,1631.332,2896.686,1632.02,2896.833,1632.583Z" transform="translate(-2893.976 -1611.544)" fill="#f4caab"/>
                <path id="Path_92" data-name="Path 92" d="M2902.032,1627.839c.022-.164.448-.319,1.018-.3.526.02.863.233.857.4C2903.892,1628.316,2902,1628.093,2902.032,1627.839Z" transform="translate(-2898.777 -1607.634)" fill="#f4caab"/>
                <path id="Path_93" data-name="Path 93" d="M2951.452,1491.136c.673,1.852.384,7.119-1.21,9.254-.947,1.268-4.983,1.443-4.983,1.443l-.511-1.473s2.993-.182,3.3-2.008-.272-6.818.559-7.729A1.863,1.863,0,0,1,2951.452,1491.136Z" transform="translate(-2938.186 -1480.901)" fill="url(#linear-gradient-52)"/>
              </g>
            </g>
          </g>
          <g id="Group_30" data-name="Group 30">
            <g id="Group_26" data-name="Group 26">
              <rect id="Rectangle_12" data-name="Rectangle 12" width="25.405" height="31.012" fill="url(#linear-gradient-38)"/>
              <rect id="Rectangle_13" data-name="Rectangle 13" width="22.889" height="29.745" transform="translate(1.258 1.267)" fill="#fff"/>
              <rect id="Rectangle_14" data-name="Rectangle 14" width="25.405" height="5.603" transform="translate(0 25.41)" fill="url(#linear-gradient-39)"/>
            </g>
            <g id="Group_29" data-name="Group 29" transform="translate(5.158 2.712)">
              <g id="Group_28" data-name="Group 28">
                <g id="Group_27" data-name="Group 27">
                  <path id="Path_94" data-name="Path 94" d="M1730.456,1456.812l-1.957-.538,1.029-3.743,1.2.329Z" transform="translate(-1724.684 -1446.379)" fill="#efbc90"/>
                  <path id="Path_95" data-name="Path 95" d="M1740.538,1408.152c-.092,1.628-.762,3.11-1.782,3.19-.957.076-2.237-1.173-2.51-2.882-.287-1.8.4-2.9,1.807-2.987A2.272,2.272,0,0,1,1740.538,1408.152Z" transform="translate(-1731.771 -1402.96)" fill="#f4caab"/>
                  <path id="Path_96" data-name="Path 96" d="M1726.49,1404a1.7,1.7,0,0,1,1.41-.8c.472-.053,1.238.157,1.332-.183s-.1-1.6-2.031-1.931a2.779,2.779,0,0,0-3.277,1.935c-.382,1.1.261,2.355,1.135,2.186S1726.109,1404.718,1726.49,1404Z" transform="translate(-1720.359 -1398.866)" fill="#8186aa"/>
                  <path id="Path_97" data-name="Path 97" d="M1746.754,1440.605a.448.448,0,1,1-.513-.46A.492.492,0,0,1,1746.754,1440.605Z" transform="translate(-1740.714 -1434.949)" fill="#f4caab"/>
                  <path id="Path_98" data-name="Path 98" d="M1725.862,1373.645a1.8,1.8,0,0,1-3.35,1.3c-.29-.745.391-1.215,1.316-1.575S1725.572,1372.9,1725.862,1373.645Z" transform="translate(-1719.098 -1373.092)" fill="#8186aa"/>
                  <path id="Path_99" data-name="Path 99" d="M1845.2,1618.7c-.017.356-.571.765-1.328.82-.7.051-1.159-.346-1.163-.705C1842.7,1618.011,1845.222,1618.15,1845.2,1618.7Z" transform="translate(-1830.046 -1599.265)" fill="#efbc90"/>
                  <path id="Path_100" data-name="Path 100" d="M1736.677,1647.731l-6.6-1.221-1.774-.328-.179,1.55Z" transform="translate(-1724.335 -1625.034)" fill="#efbc90"/>
                  <path id="Path_101" data-name="Path 101" d="M1733.8,1651.748l-4.812-.886-1.774-.327-.147,1.213Z" transform="translate(-1723.365 -1629.05)" fill="#efbc90"/>
                  <path id="Path_102" data-name="Path 102" d="M1713.495,1641.03c-2.623-.582-7.364-.523-8.349-2.112h-5.271a6.473,6.473,0,0,0-.193,2.112Z" transform="translate(-1698.08 -1618.333)" fill="url(#linear-gradient-55)"/>
                  <path id="Path_103" data-name="Path 103" d="M1709.458,1641.03c-2.767-.387-5.7-.742-6.3-2.112h-4.675a8.223,8.223,0,0,0-.33,2.112Z" transform="translate(-1696.686 -1618.333)" fill="url(#linear-gradient-56)"/>
                  <path id="Path_104" data-name="Path 104" d="M1734.689,1508.2l1.363,7.769-.648-.556,5.689.422.517.038-.044,1-.518-.007-5.7-.075a.665.665,0,0,1-.64-.52l-.008-.036-1.711-7.7-.189-.849,1.744-.347Z" transform="translate(-1728.648 -1496.95)" fill="#efbc90"/>
                  <path id="Path_105" data-name="Path 105" d="M1722.454,1508.651c-.135,1.859,1.068,6.69,2.964,8.352,1.126.987,4.876.324,4.876.324l.182-1.464s-2.805.423-3.446-1.208-1.046-6.082-1.994-6.761C1724.2,1507.3,1722.514,1507.815,1722.454,1508.651Z" transform="translate(-1719.098 -1497.217)" fill="url(#linear-gradient-57)"/>
                  <path id="Path_106" data-name="Path 106" d="M1689.482,1494.256s-3.877,5.408-3.317,11.331c0,0-.355,1.148,3.845,1.127s4.459-.593,4.459-.593a40.462,40.462,0,0,1-2.511-11.154A4.639,4.639,0,0,1,1689.482,1494.256Z" transform="translate(-1685.578 -1484.873)" fill="url(#linear-gradient-58)"/>
                  <path id="Path_107" data-name="Path 107" d="M1683.909,1524.47c.065-.539.134-1.078.21-1.613s.16-1.058.254-1.579c.047-.261.1-.518.153-.773l.088-.376c.029-.114.062-.224.1-.34a12.455,12.455,0,0,1,.589-1.41c.226-.471.472-.939.726-1.4.51-.927,1.063-1.853,1.628-2.739l.468-.732-1.522-.93-.43.756c-.55.968-1.058,1.929-1.541,2.925-.24.5-.472,1-.688,1.516a13.777,13.777,0,0,0-.576,1.617c-.039.143-.075.294-.1.445l-.073.419c-.042.277-.082.553-.115.827-.067.548-.121,1.094-.169,1.639-.049.585-.09,1.168-.126,1.752Z" transform="translate(-1682.506 -1501.773)" fill="#efbc90"/>
                  <path id="Path_108" data-name="Path 108" d="M1680.9,1520.08a19.816,19.816,0,0,1,.859-4.583c.674-1.617,3.479-5.1,3.27-6.245-.184-1.011-1.758-1.811-2.382-1.253-1.39,1.242-2.287,4.163-2.963,6.592a20.1,20.1,0,0,0-.417,5.489Z" transform="translate(-1679.237 -1497.382)" fill="url(#linear-gradient-59)"/>
                  <path id="Path_109" data-name="Path 109" d="M1845.971,1613.761c-.044-.15-.465-.232-1-.128-.488.1-.771.345-.741.5C1844.3,1614.48,1846.04,1613.993,1845.971,1613.761Z" transform="translate(-1831.455 -1594.963)" fill="#efbc90"/>
                </g>
              </g>
            </g>
          </g>
          <g id="Group_33" data-name="Group 33" transform="translate(29.823)">
            <g id="Group_31" data-name="Group 31">
              <rect id="Rectangle_15" data-name="Rectangle 15" width="25.405" height="31.012" fill="url(#linear-gradient-31)"/>
              <rect id="Rectangle_16" data-name="Rectangle 16" width="22.889" height="29.745" transform="translate(1.258 1.267)" fill="#fff"/>
              <rect id="Rectangle_17" data-name="Rectangle 17" width="25.405" height="5.603" transform="translate(0 25.41)" fill="url(#linear-gradient-11)"/>
            </g>
            <g id="Group_32" data-name="Group 32" transform="translate(2.233 2.724)">
              <path id="Path_110" data-name="Path 110" d="M2183.255,1373.858a8.135,8.135,0,0,1-1.141.071,3.522,3.522,0,0,1-.786-.131,1.548,1.548,0,0,0,.315,1.135c.45.446,1.4.25,1.4.25Z" transform="translate(-2169.337 -1373.754)" fill="#50557c"/>
              <path id="Path_111" data-name="Path 111" d="M2204.207,1439.016h2.188v-4.185h-1.337Z" transform="translate(-2190.452 -1430.062)" fill="#edba8e"/>
              <path id="Path_112" data-name="Path 112" d="M2181.477,1380.754c-.37,1.718-.1,3.45.94,3.826.973.353,2.661-.58,3.434-2.278.813-1.788.417-3.124-1.024-3.622A2.449,2.449,0,0,0,2181.477,1380.754Z" transform="translate(-2169.338 -1378.104)" fill="#f1c8a9"/>
              <path id="Path_113" data-name="Path 113" d="M2172.273,1373.289c1.343.714,2.27-.158,3.69-.03a2.648,2.648,0,0,1,2.171,3.593,2.285,2.285,0,0,1-1.191,1.491,1.23,1.23,0,0,0-.924-1.49c-.379-.058-.963-1.518-1.532-1.631-.214-.042-1.355.212-1.852-.358A2.2,2.2,0,0,1,2172.273,1373.289Z" transform="translate(-2160.972 -1373.246)" fill="#50557c"/>
              <ellipse id="Ellipse_1" data-name="Ellipse 1" cx="0.608" cy="0.507" rx="0.608" ry="0.507" transform="translate(14.662 4.261) rotate(-65.854)" fill="#f1c8a9"/>
              <path id="Path_114" data-name="Path 114" d="M2188.625,1651.393l.106-.368-4.052-.874-.181,1.242Z" transform="translate(-2172.269 -1628.707)" fill="#f1c8a9"/>
              <path id="Path_115" data-name="Path 115" d="M2204.3,1651.39l-.043-1.243-4.114.411.138.832Z" transform="translate(-2186.7 -1628.704)" fill="#f1c8a9"/>
              <path id="Path_116" data-name="Path 116" d="M2178.292,1647.118l.381-1.6h-5.738l-.2,1.6Z" transform="translate(-2161.419 -1624.433)" fill="url(#linear-gradient-62)"/>
              <path id="Path_117" data-name="Path 117" d="M2198.272,1647.118c.015-.974.032-1.6.032-1.6h-5.514s.049.62.134,1.6Z" transform="translate(-2179.92 -1624.433)" fill="url(#linear-gradient-63)"/>
              <path id="Path_118" data-name="Path 118" d="M2074.265,1495.225l-4.875,6.968.887-.248-5.75-2.183-.522-.2-.415,1,.509.23,5.606,2.529a.718.718,0,0,0,.863-.216l.024-.032,5.185-6.741.572-.743-1.545-1.134Z" transform="translate(-2060.724 -1485.07)" fill="#edba8e"/>
              <path id="Path_119" data-name="Path 119" d="M2095.859,1499.373c-.717,1.878-4.095,6.048-6.706,6.806-1.55.45-4.911-1.908-4.911-1.908l.49-1.513s2.547,1.693,3.917.392,3.8-5.464,5.032-5.695C2094.77,1497.252,2096.181,1498.529,2095.859,1499.373Z" transform="translate(-2079.777 -1487.817)" fill="url(#linear-gradient-64)"/>
              <path id="Path_120" data-name="Path 120" d="M2167.48,1483.038a2.11,2.11,0,0,1-2.3.335,45.62,45.62,0,0,1-.906,5.9c-.513,1.71-2.024,6.205-2.024,6.205h8.344C2170.822,1491.654,2169.375,1487.306,2167.48,1483.038Z" transform="translate(-2151.748 -1474.536)" fill="#d9c4ad"/>
              <path id="Path_121" data-name="Path 121" d="M2165.875,1478.6s3.875,6.148,3.176,12.735c-.066.621-1.056,1.144-4.182,1.115-4.528-.041-4.784-.822-4.784-.822a46.254,46.254,0,0,0,3.1-12.327A4.87,4.87,0,0,0,2165.875,1478.6Z" transform="translate(-2149.747 -1470.438)" fill="url(#linear-gradient-65)"/>
              <path id="Path_122" data-name="Path 122" d="M2212.628,1499.051c.247.515.484,1.034.7,1.554a13.385,13.385,0,0,1,.551,1.552c.034.127.063.248.087.372l.073.41c.043.278.084.558.119.841.071.567.13,1.14.181,1.715.061.7.112,1.4.155,2.1h1.195c0-.725-.014-1.449-.036-2.176-.019-.589-.046-1.179-.086-1.774-.02-.3-.047-.6-.076-.9l-.055-.456c-.023-.163-.053-.328-.087-.485a14.819,14.819,0,0,0-.525-1.775c-.2-.569-.422-1.124-.651-1.673-.462-1.1-.952-2.165-1.488-3.239l-.418-.839-1.693.911.461.816C2211.593,1496.994,2212.133,1498.024,2212.628,1499.051Z" transform="translate(-2196.326 -1484.907)" fill="#f1c8a9"/>
              <path id="Path_123" data-name="Path 123" d="M2211.7,1502.945h1.718a22.354,22.354,0,0,0-.1-6.2c-.584-2.655-1.379-5.852-2.8-7.271-.64-.637-2.381.132-2.638,1.209-.293,1.223,2.523,5.134,3.154,6.914A22.936,22.936,0,0,1,2211.7,1502.945Z" transform="translate(-2193.815 -1480.259)" fill="url(#linear-gradient-66)"/>
              <path id="Path_124" data-name="Path 124" d="M2026.6,1549.846c-.125.363.478,1.078,1.514,1.555.955.44,1.766.3,1.922-.053C2030.386,1550.555,2026.8,1549.285,2026.6,1549.846Z" transform="translate(-2026.586 -1536.042)" fill="#edba8e"/>
              <path id="Path_125" data-name="Path 125" d="M2049.934,1549.032c.112-.126.561-.015,1.031.329.433.316.6.689.5.826C2051.236,1550.495,2049.76,1549.227,2049.934,1549.032Z" transform="translate(-2048.112 -1535.372)" fill="#edba8e"/>
            </g>
          </g>
          <g id="Group_36" data-name="Group 36" transform="translate(61.67)">
            <g id="Group_34" data-name="Group 34">
              <rect id="Rectangle_18" data-name="Rectangle 18" width="25.405" height="31.012" fill="url(#linear-gradient-38)"/>
              <rect id="Rectangle_19" data-name="Rectangle 19" width="22.889" height="29.745" transform="translate(1.258 1.267)" fill="#fff"/>
              <rect id="Rectangle_20" data-name="Rectangle 20" width="25.405" height="5.603" transform="translate(0 25.41)" fill="url(#linear-gradient-39)"/>
            </g>
            <g id="Group_35" data-name="Group 35" transform="translate(4.689 3.132)">
              <path id="Path_126" data-name="Path 126" d="M2530.847,1385.8l-3.57-.212a8.552,8.552,0,0,1-1.131-5.277c.267-1.739,2.44-2.419,4.046-1.117C2531.73,1380.444,2531.426,1384.877,2530.847,1385.8Z" transform="translate(-2521.691 -1378.518)" fill="#9198ba"/>
              <path id="Path_127" data-name="Path 127" d="M2541,1437.717l-2-.119.228-3.831,1.224.073Z" transform="translate(-2533.618 -1429.488)" fill="#edba8e"/>
              <path id="Path_128" data-name="Path 128" d="M2536.171,1385.336c.245,1.593-.1,3.163-1.069,3.451-.91.27-2.4-.676-3.019-2.272-.646-1.681-.21-2.883,1.135-3.26A2.246,2.246,0,0,1,2536.171,1385.336Z" transform="translate(-2526.968 -1382.79)" fill="#f1c8a9"/>
              <path id="Path_129" data-name="Path 129" d="M2507.9,1379.227a2.248,2.248,0,0,0-1.17.173,3.287,3.287,0,0,0-1.779,2.748c-.249,1.622.356,2.459-1.128,3.914l3.57.212c.529-.845-.182-2.854-.311-3.2a1.035,1.035,0,0,1,.811-.789,3.229,3.229,0,0,0,2.193-1.617A2.536,2.536,0,0,0,2507.9,1379.227Z" transform="translate(-2501.165 -1379.163)" fill="#9198ba"/>
              <path id="Path_130" data-name="Path 130" d="M2543.231,1417.711a.443.443,0,1,1-.593-.335A.485.485,0,0,1,2543.231,1417.711Z" transform="translate(-2536.735 -1414.345)" fill="#f1c8a9"/>
              <path id="Path_131" data-name="Path 131" d="M2533.393,1634.228h3.565l-.134-.918-.257-1.765-3.716.8.493,1.714Z" transform="translate(-2527.949 -1611.95)" fill="#f1c8a9"/>
              <path id="Path_132" data-name="Path 132" d="M2516.924,1634.225l.091-.548.292-1.76-3.772-.377-.062,1.783-.031.9Z" transform="translate(-2510.042 -1611.947)" fill="#f1c8a9"/>
              <path id="Path_133" data-name="Path 133" d="M2508.208,1632.823l-.515-2.8h-5.314a18.046,18.046,0,0,0-1.085,2.8Z" transform="translate(-2498.835 -1610.546)" fill="url(#linear-gradient-69)"/>
              <path id="Path_134" data-name="Path 134" d="M2537.328,1494.591c.374.973.791,1.96,1.234,2.912.223.476.454.948.7,1.4a11.852,11.852,0,0,0,.788,1.294,9.2,9.2,0,0,0,1,1.106c.374.364.763.722,1.161,1.072.8.7,1.621,1.385,2.453,2.043l.4.318-.59.8-.419-.294c-.892-.626-1.76-1.266-2.618-1.938-.429-.336-.852-.682-1.27-1.045q-.313-.271-.62-.564c-.1-.1-.2-.194-.307-.307s-.2-.23-.3-.345a13.154,13.154,0,0,1-.963-1.41c-.289-.476-.555-.957-.813-1.442-.514-.973-.984-1.945-1.434-2.957l-.35-.786,1.632-.665Z" transform="translate(-2530.288 -1484.863)" fill="#edba8e"/>
              <path id="Path_135" data-name="Path 135" d="M2539.874,1496.707l2.367-2.464s-3.33-2.505-4.322-4.077-2.753-7.473-4.4-6.771c-1.8.77.483,5.815,1.665,7.847A38.237,38.237,0,0,0,2539.874,1496.707Z" transform="translate(-2527.949 -1475.22)" fill="url(#linear-gradient-70)"/>
              <path id="Path_136" data-name="Path 136" d="M2508.247,1476.475s-3.235,5.469-2.577,11.3c0,0-.281.973,3.393.99,3.324.015,3.324-.528,3.324-.528-1.162-3.131-1.508-6.875-1.957-11.141A3.679,3.679,0,0,1,2508.247,1476.475Z" transform="translate(-2502.791 -1468.889)" fill="url(#linear-gradient-71)"/>
              <path id="Path_137" data-name="Path 137" d="M2654.719,1639.364c-.2.29-1.055.235-1.971-.27-.844-.465-1.186-1.138-1.008-1.447C2652.135,1636.958,2655.028,1638.916,2654.719,1639.364Z" transform="translate(-2637.588 -1617.447)" fill="#edba8e"/>
              <path id="Path_138" data-name="Path 138" d="M2659.327,1635.486c.032-.151-.295-.422-.8-.581-.469-.147-.833-.065-.88.084C2657.539,1635.323,2659.278,1635.72,2659.327,1635.486Z" transform="translate(-2643.073 -1614.979)" fill="#edba8e"/>
              <path id="Path_139" data-name="Path 139" d="M2498.082,1475.7a62.765,62.765,0,0,0,.78,7.157,32.657,32.657,0,0,0,1.591,6s-6.865-.068-7.482-1.322c-.713-1.452,1.719-10.4,3.191-12.332Z" transform="translate(-2491.039 -1467.717)" fill="url(#linear-gradient-72)"/>
              <path id="Path_140" data-name="Path 140" d="M2480.211,1506.39v-.016c.08-1.056.179-2.119.3-3.171.062-.526.13-1.05.21-1.567.039-.259.084-.514.131-.768l.077-.374c.026-.113.055-.223.089-.339a12.381,12.381,0,0,1,.545-1.409c.211-.472.441-.941.681-1.407.48-.929,1-1.859,1.537-2.749l.443-.737-1.529-.879-.4.759c-.518.971-.995,1.935-1.447,2.931-.224.5-.44,1-.64,1.517a13.709,13.709,0,0,0-.527,1.613c-.035.143-.066.293-.092.442l-.061.416c-.035.275-.067.549-.092.821-.052.544-.091,1.084-.124,1.624-.062,1.08-.1,2.151-.121,3.232v.059Z" transform="translate(-2478.441 -1484.113)" fill="#f1c8a9"/>
              <path id="Path_141" data-name="Path 141" d="M2469.541,1498.25l3.415.108a22.356,22.356,0,0,1,.144-5.691c.5-1.789,3.706-7.05,2.083-7.8-1.779-.823-3.995,4.253-4.713,6.492A36.729,36.729,0,0,0,2469.541,1498.25Z" transform="translate(-2469.541 -1476.547)" fill="url(#linear-gradient-73)"/>
            </g>
          </g>
          <g id="Group_41" data-name="Group 41" transform="translate(45.746 70.86)">
            <g id="Group_37" data-name="Group 37">
              <rect id="Rectangle_21" data-name="Rectangle 21" width="25.405" height="31.012" fill="url(#linear-gradient-38)"/>
              <rect id="Rectangle_22" data-name="Rectangle 22" width="22.889" height="29.745" transform="translate(1.258 1.267)" fill="#fff"/>
              <rect id="Rectangle_23" data-name="Rectangle 23" width="25.405" height="5.603" transform="translate(0 25.41)" fill="url(#linear-gradient-39)"/>
            </g>
            <g id="Group_40" data-name="Group 40" transform="translate(5.3 3.249)">
              <g id="Group_38" data-name="Group 38" transform="translate(3.044 19.301)">
                <path id="Path_142" data-name="Path 142" d="M2338.431,2551.153l-.106-.729-.262-1.8-3.78.815.492,1.709Z" transform="translate(-2332.489 -2548.293)" fill="#edba8e"/>
                <path id="Path_143" data-name="Path 143" d="M2323.568,2551.149l.058-.352.3-1.79-3.838-.383-.063,1.813-.025.712Z" transform="translate(-2319.311 -2548.29)" fill="#f4caab"/>
                <path id="Path_144" data-name="Path 144" d="M2330.437,2547.165l-.355-2.859h-5.354l.681,2.859Z" transform="translate(-2323.675 -2544.305)" fill="url(#linear-gradient-76)"/>
                <path id="Path_145" data-name="Path 145" d="M2316.018,2547.165c.153-1.671.247-2.859.247-2.859h-5.144s.032,1.212.047,2.859Z" transform="translate(-2311.121 -2544.305)" fill="url(#linear-gradient-77)"/>
              </g>
              <path id="Path_146" data-name="Path 146" d="M2342.441,2350.2l-1.9-.178.34-3.638,1.162.108Z" transform="translate(-2335.217 -2342.413)" fill="#edba8e"/>
              <path id="Path_147" data-name="Path 147" d="M2340.22,2300.935c.182,1.523-.2,3.007-1.128,3.249-.874.228-2.266-.719-2.8-2.258-.562-1.62-.108-2.75,1.184-3.065A2.138,2.138,0,0,1,2340.22,2300.935Z" transform="translate(-2331.08 -2298.493)" fill="#f1c8a9"/>
              <path id="Path_148" data-name="Path 148" d="M2331.02,2297.976c1.113-.194.935-1.08,1.364-1.207s.909.085.94-.246-.355-1.468-2.2-1.456a2.222,2.222,0,0,0-2.464,2.272c-.025,1.165.817,2,1.155,1.9C2330.333,2299.08,2330.087,2298.139,2331.02,2297.976Z" transform="translate(-2324.258 -2295.067)" fill="#03053e"/>
              <ellipse id="Ellipse_2" data-name="Ellipse 2" cx="0.415" cy="0.498" rx="0.415" ry="0.498" transform="translate(5.591 2.931) rotate(-18.813)" fill="#f1c8a9"/>
              <path id="Path_149" data-name="Path 149" d="M2277.492,2304.511s-2.759-1.124-3.758.186c-1.1,1.445.156,2.823-.117,4.085-.187.867-1.528,1.494-1.758,2.835s.389,2.683,1.393,2.725c1.471.06,2.116-1.437,2.11-2.627-.008-1.378-.716-2.01-.509-2.652s.648-.771.879-2.113S2275.32,2304.569,2277.492,2304.511Z" transform="translate(-2271.81 -2303.365)" fill="#03053e"/>
              <path id="Path_150" data-name="Path 150" d="M2342.65,2404.535c-.765-.657-1.523-1.334-2.26-2.021-.367-.344-.731-.693-1.082-1.046-.176-.177-.347-.355-.515-.534l-.243-.27c-.072-.084-.14-.168-.209-.26a11.759,11.759,0,0,1-.772-1.213c-.242-.428-.472-.869-.694-1.316-.44-.893-.859-1.817-1.238-2.731l-.314-.756-1.537.675.352.739c.452.946.921,1.855,1.43,2.764.255.453.519.9.8,1.347a13,13,0,0,0,.939,1.315c.09.107.187.216.287.32l.284.283c.191.181.383.361.576.534.387.347.779.682,1.175,1.012.792.657,1.592,1.293,2.409,1.918l.387.3.594-.738Z" transform="translate(-2328.986 -2386.696)" fill="#edba8e"/>
              <path id="Path_151" data-name="Path 151" d="M2329.375,2394.39c.175,1.746,1.9,4.048,3.373,5.907a16.1,16.1,0,0,0,4.488,3.711c.282.06.978-.851.948-1.085-.021-.159-2.741-2.294-3.6-3.7s-1.949-5.471-2.937-5.948C2330.778,2392.852,2329.3,2393.605,2329.375,2394.39Z" transform="translate(-2324.914 -2385.556)" fill="url(#linear-gradient-78)"/>
              <path id="Path_152" data-name="Path 152" d="M2303.452,2382.935s-3.651,6.044-2.908,12.49c0,0-.314,1.267,3.829,1.094s4.38-.806,4.38-.806a48.018,48.018,0,0,1-2.836-12.09A4.22,4.22,0,0,1,2303.452,2382.935Z" transform="translate(-2298.227 -2376.131)" fill="url(#linear-gradient-79)"/>
              <path id="Path_153" data-name="Path 153" d="M2446.348,2533.168c-.214.258-1.021.133-1.847-.421-.761-.512-1.028-1.179-.834-1.457C2444.1,2530.669,2446.679,2532.769,2446.348,2533.168Z" transform="translate(-2430.302 -2512.892)" fill="#edba8e"/>
              <path id="Path_154" data-name="Path 154" d="M2451.206,2529.914c.043-.141-.244-.425-.714-.619-.433-.178-.784-.131-.842.006C2449.524,2529.609,2451.139,2530.132,2451.206,2529.914Z" transform="translate(-2435.873 -2511.049)" fill="#edba8e"/>
              <path id="Path_155" data-name="Path 155" d="M2299.75,2383.748a33.889,33.889,0,0,0,.33,7.637,36.556,36.556,0,0,0,1.7,5.708s-6.28.475-7.35-1.009,1.884-11.613,3.263-13.149Z" transform="translate(-2292.468 -2376.131)" fill="url(#linear-gradient-80)"/>
              <g id="Group_39" data-name="Group 39" transform="translate(2.964 8.378)">
                <path id="Path_156" data-name="Path 156" d="M2321.348,2413.157l-.488-.016-5.343-.181,1.588-4.434.149-.742-1.476-.549-.229.786-1.564,5.358-.011.038a.638.638,0,0,0,.625.814l6.253-.115.488-.009Z" transform="translate(-2313.65 -2406.927)" fill="#f1c8a9"/>
                <path id="Path_157" data-name="Path 157" d="M2405.433,2485.125c-.029.334-.775.691-1.788.7-.934.012-1.544-.385-1.542-.724C2402.1,2484.348,2405.478,2484.608,2405.433,2485.125Z" transform="translate(-2394.977 -2478.33)" fill="#f1c8a9"/>
                <path id="Path_158" data-name="Path 158" d="M2407.019,2479.372c-.045-.14-.442-.21-.938-.1-.458.1-.72.339-.688.484C2405.462,2480.079,2407.088,2479.589,2407.019,2479.372Z" transform="translate(-2398.01 -2473.334)" fill="#f1c8a9"/>
                <path id="Path_159" data-name="Path 159" d="M2313.174,2403.415c1.259.6.467,2.349.228,2.99s-1.169,2.253-.932,2.543,4.07.175,4.153.427a2.507,2.507,0,0,1-.106,1.292c-.139.169-5.327,1.148-6.273-.142-.449-.612.206-3.669.337-4.29S2311.3,2402.513,2313.174,2403.415Z" transform="translate(-2310.089 -2403.252)" fill="url(#linear-gradient-81)"/>
              </g>
            </g>
          </g>
        </g>
      </g>
      <g id="Group_47" data-name="Group 47" transform="translate(227.701 67.791)">
        <g id="Group_44" data-name="Group 44">
          <path id="Path_160" data-name="Path 160" d="M3381.913,955.745c-4.64-5.175-31.928-5.428-37.29-2.268-8.149,4.8-2.328,24.694,1.42,26.89a39.658,39.658,0,0,0,4.165,1.983,21.721,21.721,0,0,0,6.336,7.765,12.744,12.744,0,0,1-.762-5.616c6.569,2.285,14.485,4.209,19.884,3.548C3384.411,986.975,3386.552,960.92,3381.913,955.745Z" transform="translate(-3340.503 -951.413)" fill="url(#linear-gradient-82)"/>
        </g>
        <g id="Group_46" data-name="Group 46" transform="translate(10.201 4.225)">
          <path id="Path_161" data-name="Path 161" d="M3497.511,1023.386c.027.149.048.3.064.448a6.872,6.872,0,0,1-13.505,2.381c-.036-.146-.067-.294-.093-.443a6.831,6.831,0,0,1,.02-2.511,6.739,6.739,0,0,1,.369-1.245,6.937,6.937,0,0,1,.75-1.379,6.872,6.872,0,0,1,9.571-1.688,6.946,6.946,0,0,1,1.176,1.039,6.776,6.776,0,0,1,1.126,1.713A6.876,6.876,0,0,1,3497.511,1023.386Z" transform="translate(-3482.969 -1016.797)" opacity="0.4" fill="url(#linear-gradient-83)"/>
          <g id="Group_45" data-name="Group 45" transform="translate(0.902 3.192)">
            <path id="Path_162" data-name="Path 162" d="M3498.128,1048.24l-12.638,2.229a6.741,6.741,0,0,1,.369-1.245l11.5-2.027A6.757,6.757,0,0,1,3498.128,1048.24Z" transform="translate(-3485.365 -1047.196)" fill="#fff" opacity="0.4"/>
            <path id="Path_163" data-name="Path 163" d="M3497.511,1071c.027.149.048.3.064.448l-13.505,2.381c-.036-.146-.067-.294-.093-.443a6.932,6.932,0,0,1-.084-1.761l13.095-2.309A6.873,6.873,0,0,1,3497.511,1071Z" transform="translate(-3483.871 -1067.605)" fill="#fff" opacity="0.4"/>
          </g>
          <path id="Path_164" data-name="Path 164" d="M3637.973,1169.306a3.186,3.186,0,0,1-2.414,2.413q-3.58-3.749-7.225-7.584l-.7-.74-.5-.526-.7-.74-1.421-1.5,1.881-1.881,1.5,1.421.74.7.526.5.74.7Q3634.221,1165.723,3637.973,1169.306Z" transform="translate(-3613.176 -1146.922)" fill="url(#linear-gradient-84)"/>
          <path id="Path_165" data-name="Path 165" d="M3485.506,1008.251a7.779,7.779,0,1,0,0,11A7.779,7.779,0,0,0,3485.506,1008.251Zm-1.282,9.718a5.938,5.938,0,1,1,1.311-1.972A5.929,5.929,0,0,1,3484.224,1017.969Z" transform="translate(-3472.228 -1005.973)" fill="url(#linear-gradient-11)"/>
          <path id="Path_166" data-name="Path 166" d="M3646.05,1177.8l-1.993,1.993-.7-.74,1.956-1.955Z" transform="translate(-3630.103 -1163.849)" fill="url(#linear-gradient-86)"/>
          <path id="Path_167" data-name="Path 167" d="M3661.647,1193.338l-2.055,2.055-.7-.74,2.019-2.019Z" transform="translate(-3644.433 -1178.179)" fill="url(#linear-gradient-87)"/>
        </g>
      </g>
      <g id="Group_48" data-name="Group 48" transform="translate(218.038 109.482)">
        <path id="Path_168" data-name="Path 168" d="M3540.633,1624.556h4.444v-8.5h-2.716Z" transform="translate(-3515.471 -1606.275)" fill="#efbc90"/>
        <path id="Path_169" data-name="Path 169" d="M3494.458,1506.2c-.751,3.49-.2,7.009,1.911,7.772,1.977.716,5.406-1.177,6.975-4.628,1.652-3.632.845-6.347-2.081-7.358C3498.154,1500.912,3495.281,1502.373,3494.458,1506.2Z" transform="translate(-3472.579 -1500.724)" fill="#f4caab"/>
        <path id="Path_170" data-name="Path 170" d="M3502.258,1489.806c3.232.253,5.019,3.182,4.812,6.08-.193,2.705-3.085,4.15-3.085,4.15s-.954-2.746-2.518-3.184c-2.182-.611-1.239-2.56-2.258-2.771-1.062-.22-3.372-1.063-3.333-2.609C3497.371,1491.525,3498.628,1489.522,3502.258,1489.806Z" transform="translate(-3474.18 -1489.778)" fill="#03053e"/>
        <ellipse id="Ellipse_3" data-name="Ellipse 3" cx="1.159" cy="0.966" rx="1.159" ry="0.966" transform="translate(27.284 8.702) rotate(-65.855)" fill="#f4caab"/>
        <path id="Path_171" data-name="Path 171" d="M3499.5,1580.431s-.243,3.772-.964,5.205c-.627,1.248-3.366,2.536-4.857-.425,0,0,1.509.315,1.339-.324-.2-.753-1.755-.761-1.755-.761a.387.387,0,0,1-.358-.294,2.946,2.946,0,0,1,.121-1.087,13.711,13.711,0,0,0,2.942.733c1,0,1.917-.708,2.766-3.047Z" transform="translate(-3471.423 -1573.411)" fill="#03053e"/>
        <path id="Path_172" data-name="Path 172" d="M3408.657,2067.858l4.084-22.85,2.775-11.26,2.794-11.282.95-3.836,8.012,2.556-1.449,3.676-4.222,10.71c-1.4,3.576-2.83,7.15-4.218,10.739l-6.863,22-.286.917-1.747-.426Z" transform="translate(-3393.56 -1977.676)" fill="#efbc90"/>
        <path id="Path_173" data-name="Path 173" d="M3502.34,2019.843l.318,3.938,1.809,22.312,16.872,7.908.871.408-.637,1.662-.92-.278-19.346-5.848a2.124,2.124,0,0,1-1.461-1.588l-.069-.321-4.92-23.112-.823-3.865Z" transform="translate(-3472.48 -1978.795)" fill="#efbc90"/>
        <path id="Path_174" data-name="Path 174" d="M3432.027,1988.392l-14.978,2.909-4.682,44.765,5.024.689Z" transform="translate(-3397.139 -1949.78)" fill="url(#linear-gradient-88)"/>
        <path id="Path_175" data-name="Path 175" d="M3495.688,2001.809l-15.112-2.111s2.317,28.026,6.837,31.6c2.514,1.988,16.49,5.335,16.49,5.335l1.5-4.291s-10.521-4.258-11.4-5.575C3493.051,2025.335,3495.688,2001.809,3495.688,2001.809Z" transform="translate(-3460.066 -1960.21)" fill="url(#linear-gradient-89)"/>
        <path id="Path_176" data-name="Path 176" d="M3293.447,1716.826l-9.429,14.476,1.784-.563-11.822-4.044-1.073-.367-.775,2.058,1.049.432,11.554,4.756a1.457,1.457,0,0,0,1.737-.5l.047-.066,10.071-14.036,1.11-1.547-3.214-2.2Z" transform="translate(-3267.763 -1697.771)" fill="#efbc90"/>
        <path id="Path_177" data-name="Path 177" d="M3338.159,1725.006c-1.328,3.861-7.906,12.556-13.155,14.271-3.117,1.018-10.1-3.542-10.1-3.542l.892-3.105s5.287,3.264,7.98.531,7.339-11.35,9.833-11.9C3335.805,1720.774,3338.756,1723.272,3338.159,1725.006Z" transform="translate(-3307.223 -1703.277)" fill="url(#linear-gradient-90)"/>
        <path id="Path_178" data-name="Path 178" d="M3464.384,1693.624s8.1,12.116,6.452,25.039c0,0,.7,2.538-8.5,2.192s-9.719-1.615-9.719-1.615a88.594,88.594,0,0,0,6.293-24.236S3462.351,1695.131,3464.384,1693.624Z" transform="translate(-3434.275 -1677.839)" fill="url(#linear-gradient-91)"/>
        <path id="Path_179" data-name="Path 179" d="M3559.09,1729.027c1.153,1.992,2.272,4.072,3.3,6.148.513,1.042,1.005,2.089,1.454,3.142a27.147,27.147,0,0,1,1.151,3.141c.073.258.132.5.186.754l.156.831c.093.564.183,1.131.26,1.707.156,1.149.288,2.312.4,3.479.227,2.334.407,4.692.542,7.034l.065,1.133,2.2-.055v-1.135c0-2.395-.048-4.77-.144-7.164-.052-1.2-.117-2.395-.212-3.6-.046-.6-.107-1.211-.172-1.821l-.12-.925c-.052-.332-.115-.666-.186-.983a30.219,30.219,0,0,0-1.1-3.594c-.423-1.151-.881-2.274-1.358-3.385-.962-2.225-1.98-4.377-3.09-6.548l-.868-1.7-3.42,1.888Z" transform="translate(-3531.619 -1707.238)" fill="#f4caab"/>
        <path id="Path_180" data-name="Path 180" d="M3558.068,1715.684c2.922,2.852,4.6,9.329,5.846,14.71s.233,13.551.233,13.551l-3.35.147s-.191-8.315-1.509-11.918-7.121-11.488-6.553-13.978C3553.235,1716,3556.756,1714.4,3558.068,1715.684Z" transform="translate(-3526.6 -1697.769)" fill="url(#linear-gradient-92)"/>
        <path id="Path_181" data-name="Path 181" d="M3215.75,1845.782c-.233.745.7,2.04,2.357,2.779,1.53.681,2.871.247,3.154-.488C3221.9,1846.431,3216.111,1844.631,3215.75,1845.782Z" transform="translate(-3215.715 -1817.877)" fill="#efbc90"/>
        <path id="Path_182" data-name="Path 182" d="M3668.987,2119.238c.778-.06,1.624-1.761,1.676-4.077.048-2.135-.862-3.537-1.65-3.54C3667.252,2111.613,3667.784,2119.332,3668.987,2119.238Z" transform="translate(-3632.865 -2063.466)" fill="#f4caab"/>
        <path id="Path_183" data-name="Path 183" d="M3655.677,2122.957c-.326-.107-.48-1.034-.219-2.187.24-1.063.8-1.668,1.141-1.592C3657.354,2119.349,3656.181,2123.122,3655.677,2122.957Z" transform="translate(-3621.283 -2070.432)" fill="#f4caab"/>
        <path id="Path_184" data-name="Path 184" d="M3319.9,2660.077s1.156-.305,1.475-.42c1.277-.459,4.585-1.814,4.585-1.814a1.984,1.984,0,0,0,1.429.785,2.688,2.688,0,0,0,1.328-.179c.327-.01.608.517.627,1.177a2.174,2.174,0,0,1-.061.6l.028.916-9.75.293-.028-.927A.415.415,0,0,1,3319.9,2660.077Z" transform="translate(-3311.492 -2567.388)" fill="#03053e"/>
        <path id="Path_185" data-name="Path 185" d="M3837.306,2465.429s.045-1.194.027-1.534c-.067-1.356-.4-4.915-.4-4.915a1.983,1.983,0,0,0,1.167-1.138,2.678,2.678,0,0,0,.217-1.323c.086-.315.672-.431,1.309-.258a2.19,2.19,0,0,1,.553.232l.884.241-2.562,9.411-.9-.244A.415.415,0,0,1,3837.306,2465.429Z" transform="translate(-3788.827 -2381.345)" fill="#03053e"/>
        <path id="Path_186" data-name="Path 186" d="M3242.194,1837.559c.2-.276,1.132-.131,2.145.48.934.563,1.331,1.286,1.152,1.584C3245.091,1840.286,3241.878,1837.986,3242.194,1837.559Z" transform="translate(-3240.124 -1810.504)" fill="#efbc90"/>
      </g>
      <g id="Group_51" data-name="Group 51" transform="translate(57.388 147.045)">
        <g id="Group_49" data-name="Group 49">
          <path id="Path_187" data-name="Path 187" d="M1261.545,2155.57l-4.223-1.161,2.222-8.08,2.581.71Z" transform="translate(-1248.328 -2133.05)" fill="#efbc90"/>
          <path id="Path_188" data-name="Path 188" d="M1283.308,2050.535c-.2,3.513-1.646,6.712-3.847,6.886-2.065.164-4.829-2.532-5.419-6.221-.62-3.884.856-6.253,3.9-6.449C1281.177,2044.544,1283.525,2046.684,1283.308,2050.535Z" transform="translate(-1263.624 -2039.326)" fill="#f4caab"/>
          <path id="Path_189" data-name="Path 189" d="M1252.984,2041.57a3.667,3.667,0,0,1,3.044-1.731c1.019-.115,2.672.34,2.874-.395s-.215-3.458-4.384-4.168a6,6,0,0,0-7.074,4.177c-.824,2.365.564,5.084,2.449,4.718S1252.163,2043.121,1252.984,2041.57Z" transform="translate(-1238.991 -2030.49)" fill="#03053e"/>
          <ellipse id="Ellipse_4" data-name="Ellipse 4" cx="0.952" cy="1.143" rx="0.952" ry="1.143" transform="matrix(0.99, -0.144, 0.144, 0.99, 11.749, 11.353)" fill="#f4caab"/>
          <path id="Path_190" data-name="Path 190" d="M1251.629,1976.045a3.881,3.881,0,0,1-7.232,2.812c-.625-1.609.844-2.623,2.841-3.4S1251,1974.436,1251.629,1976.045Z" transform="translate(-1236.269 -1974.852)" fill="#03053e"/>
          <path id="Path_191" data-name="Path 191" d="M1509.223,2505.022c-.037.768-1.232,1.651-2.867,1.77-1.507.11-2.5-.746-2.51-1.523C1503.829,2503.535,1509.281,2503.834,1509.223,2505.022Z" transform="translate(-1475.762 -2463.069)" fill="#efbc90"/>
          <path id="Path_192" data-name="Path 192" d="M1276.044,2569.135l-.3-.056-21.768-4.027-3.83-.708-.953,8.246,3.891.184,18.884.894-7.642,18.362-.364.875,1.593.782.469-.824,11.59-20.362a2.319,2.319,0,0,0,.26-.712A2.276,2.276,0,0,0,1276.044,2569.135Z" transform="translate(-1240.824 -2518.693)" fill="#efbc90"/>
          <path id="Path_193" data-name="Path 193" d="M1274.742,2578.943l-.276-.051-24.151-4.446-3.829-.705-1,8.188,3.887.233,22.534,1.349,1.236,23.261.05.946,1.784.006.056-.946,1.525-25.509A2.23,2.23,0,0,0,1274.742,2578.943Z" transform="translate(-1237.413 -2527.364)" fill="#efbc90"/>
          <path id="Path_194" data-name="Path 194" d="M1206.884,2548.664c2.76,4.449,19.167,2.91,21.531,6.177,3.154,4.357-9.805,21.2-9.805,21.2l-4.313-2.408s6.606-11.913,6.34-12.767c-.338-1.086-18.343,1.486-23.215-2.625-3.784-3.193-1.915-9.575-1.915-9.575Z" transform="translate(-1190.873 -2504.229)" fill="url(#linear-gradient-93)"/>
          <path id="Path_195" data-name="Path 195" d="M1202.581,2548.664c2.408,5.466,21.979,3.447,24.754,8.211,2.239,3.844-.061,23.36-.061,23.36l-5.177-.141s.028-16.615-.986-17.743c-.745-.829-21.523,1.085-26.708-2.624-4.439-3.176-1.915-11.064-1.915-11.064Z" transform="translate(-1187.856 -2504.229)" fill="url(#linear-gradient-94)"/>
          <path id="Path_196" data-name="Path 196" d="M1270.684,2266.5l2.941,16.771-1.4-1.2,12.281.912,1.115.083-.094,2.166-1.118-.015-12.313-.162a1.436,1.436,0,0,1-1.382-1.123l-.017-.078L1267,2267.234l-.407-1.832,3.764-.748Z" transform="translate(-1256.883 -2242.212)" fill="#efbc90"/>
          <path id="Path_197" data-name="Path 197" d="M1244.273,2267.469c-.291,4.013,2.3,14.442,6.4,18.028,2.431,2.13,10.526.7,10.526.7l.394-3.16s-6.056.912-7.439-2.607-2.257-13.128-4.3-14.594C1248.046,2264.544,1244.4,2265.666,1244.273,2267.469Z" transform="translate(-1236.269 -2242.787)" fill="url(#linear-gradient-95)"/>
          <path id="Path_198" data-name="Path 198" d="M1173.1,2236.4s-8.369,11.675-7.159,24.458c0,0-.767,2.478,8.3,2.432s9.625-1.279,9.625-1.279a87.344,87.344,0,0,1-5.421-24.076S1175.054,2237.947,1173.1,2236.4Z" transform="translate(-1163.913 -2216.144)" fill="url(#linear-gradient-96)"/>
          <path id="Path_199" data-name="Path 199" d="M1166.417,2279.527c-1.222,1.912-2.414,3.911-3.515,5.911-.55,1-1.08,2.014-1.568,3.031a26.8,26.8,0,0,0-1.27,3.043c-.082.25-.152.489-.215.735l-.19.811c-.117.551-.229,1.105-.331,1.669-.2,1.125-.383,2.265-.549,3.409-.325,2.288-.6,4.6-.84,6.9l-.114,1.113-2.167-.15.05-1.117c.106-2.358.254-4.695.452-7.048.1-1.176.219-2.353.365-3.537.072-.591.158-1.187.249-1.785l.158-.9c.065-.324.142-.651.226-.96a29.747,29.747,0,0,1,1.243-3.491c.466-1.115.966-2.2,1.484-3.274,1.044-2.149,2.14-4.225,3.327-6.313l.928-1.632,3.285,2.007Z" transform="translate(-1154.538 -2252.622)" fill="#f4caab"/>
          <path id="Path_200" data-name="Path 200" d="M1158.336,2266.061c-3,2.682-4.937,8.986-6.395,14.23s-.817,13.333-.817,13.333l3.292.291s.549-8.179,2-11.67,7.51-11,7.059-13.479C1163.081,2266.584,1159.684,2264.856,1158.336,2266.061Z" transform="translate(-1150.224 -2243.145)" fill="url(#linear-gradient-97)"/>
          <path id="Path_201" data-name="Path 201" d="M1142.241,2661c-.746-.185-1.294-1.975-.97-4.235.3-2.083,1.41-3.3,2.177-3.175C1145.161,2653.869,1143.4,2661.288,1142.241,2661Z" transform="translate(-1141.176 -2601.023)" fill="#f4caab"/>
          <path id="Path_202" data-name="Path 202" d="M1175.465,2666.673c.334-.051.634-.927.567-2.091-.062-1.073-.51-1.752-.851-1.732C1174.418,2662.894,1174.948,2666.752,1175.465,2666.673Z" transform="translate(-1172.195 -2609.572)" fill="#f4caab"/>
          <path id="Path_203" data-name="Path 203" d="M1601.017,2999.429l-1.355-.241h0l-4.955-1.918v.04a1.176,1.176,0,0,1-1.089,1.009,2.263,2.263,0,0,1-1.457-.2.232.232,0,0,0-.112-.071c-.331,0-.6.541-.6,1.209a2.211,2.211,0,0,0,.08.6v.927h9.87v-.939A.42.42,0,0,0,1601.017,2999.429Z" transform="translate(-1556.581 -2918.095)" fill="#03053e"/>
          <path id="Path_204" data-name="Path 204" d="M1419.286,2928.573l-.92-1.024h0l-2.724-4.562-.025.031a1.176,1.176,0,0,1-1.479.125,2.263,2.263,0,0,1-1.025-1.053.239.239,0,0,0-.045-.125c-.261-.2-.805.058-1.216.584a2.205,2.205,0,0,0-.307.523l-.57.73,7.779,6.075.578-.74A.421.421,0,0,0,1419.286,2928.573Z" transform="translate(-1390.08 -2848.559)" fill="#03053e"/>
          <path id="Path_205" data-name="Path 205" d="M1510.9,2494.36c-.1-.324-1.005-.5-2.149-.277-1.054.208-1.665.745-1.6,1.08C1507.294,2495.912,1511.044,2494.862,1510.9,2494.36Z" transform="translate(-1478.802 -2453.781)" fill="#efbc90"/>
        </g>
        <g id="Group_50" data-name="Group 50" transform="translate(27.653 30.939)">
          <path id="Path_206" data-name="Path 206" d="M1511.813,2374.419h0a.757.757,0,0,0-.949.494l-2.962,9.37h-8.88a.757.757,0,1,0,0,1.513h9.446a.756.756,0,0,0,.749-.653l3.089-9.774A.757.757,0,0,0,1511.813,2374.419Z" transform="translate(-1498.265 -2374.384)" fill="url(#linear-gradient-8)"/>
          <path id="Path_207" data-name="Path 207" d="M1622.705,2392.448h.47l2.878-9.213h-.436Z" transform="translate(-1613.069 -2382.55)" fill="#fff"/>
        </g>
      </g>
    </g>
  </g>
</svg>
