<svg id="Group_220" data-name="Group 220" xmlns="http://www.w3.org/2000/svg" xmlns:xlink="http://www.w3.org/1999/xlink" width="1360" height="660" viewBox="0 0 1360 660">
  <defs>
    <clipPath id="clip-path">
      <rect id="Rectangle_295" data-name="Rectangle 295" width="1360" height="660" fill="#fff"/>
    </clipPath>
  </defs>
  <g id="Mask_Group_116" data-name="Mask Group 116" clip-path="url(#clip-path)">
    <rect id="Rectangle_294" data-name="Rectangle 294" width="1360" height="660" fill="#feecf1" opacity="0.695"/>
    <g id="Group_218" data-name="Group 218" transform="translate(0 269.9)" opacity="0.697">
      <path id="Path_278" data-name="Path 278" d="M0,819.252H1360V4.515s-151.261-10.159-374.816,0S645.3,45.151,465.779,45.151C125.779,45.151,0,4.515,0,4.515Z" transform="translate(0 27.977)" fill="#f7adc3" opacity="0.149"/>
      <path id="Path_279" data-name="Path 279" d="M1360,847.229H0V4.669s151.261-10.506,374.816,0S714.7,46.693,894.221,46.693c340,0,465.779-42.024,465.779-42.024Z" transform="translate(0 0)" fill="#f7adc3" opacity="0.097"/>
    </g>
  </g>
  <g id="Group_58" data-name="Group 58" transform="translate(981 235.135)">
    <g id="Group_57" data-name="Group 57">
      <path id="Path_134" data-name="Path 134" d="M2485.37,593.2a1.493,1.493,0,0,1-1.013-.363,1.312,1.312,0,0,1-.418-1.046v-3.37q-.441.617-.892,1.212a12.2,12.2,0,0,1-.8.969,1.522,1.522,0,0,1-1,.507,1.289,1.289,0,0,1-1.046-.33,1.327,1.327,0,0,1-.418-.892,1.046,1.046,0,0,1,.33-.892q.375-.374.87-.959t1-1.233q.506-.649.859-1.157h-1.211a1.247,1.247,0,0,1-.969-.385,1.338,1.338,0,0,1-.353-.937,1.3,1.3,0,0,1,.353-.925,1.266,1.266,0,0,1,.969-.375h2.313V581.9h-2.6a1.194,1.194,0,0,1-.914-.364,1.226,1.226,0,0,1-.342-.87,1.265,1.265,0,0,1,.342-.881,1.177,1.177,0,0,1,.914-.375h.881c-.059-.176-.118-.345-.176-.506s-.1-.286-.132-.375a1,1,0,0,1,.033-.7,1.165,1.165,0,0,1,.451-.529h-.771a1.133,1.133,0,0,1-.881-.363,1.221,1.221,0,0,1-.33-.848,1.249,1.249,0,0,1,.33-.87,1.133,1.133,0,0,1,.881-.364h2.247v-.859a1.272,1.272,0,0,1,.452-1.035,1.664,1.664,0,0,1,2.1,0,1.285,1.285,0,0,1,.44,1.035v.859h1.983a1.158,1.158,0,0,1,.9.364,1.246,1.246,0,0,1,.331.87,1.218,1.218,0,0,1-.331.848,1.159,1.159,0,0,1-.9.363h-.462a1.27,1.27,0,0,1,.451.595,1.09,1.09,0,0,1-.032.815,1.57,1.57,0,0,1-.1.319q-.077.187-.165.385h.484a1.142,1.142,0,0,1,.9.375,1.29,1.29,0,0,1,.331.881,1.249,1.249,0,0,1-.331.87,1.159,1.159,0,0,1-.9.364H2486.8v1.123h1.96a1.267,1.267,0,0,1,.969.375,1.3,1.3,0,0,1,.352.925,1.338,1.338,0,0,1-.352.937,1.248,1.248,0,0,1-.969.385h-1.168q.375.419.914.915a11.894,11.894,0,0,0,.958.8,1.259,1.259,0,0,1,.155,1.85,1.117,1.117,0,0,1-.914.441,1.425,1.425,0,0,1-.98-.374q-.154-.176-.407-.43t-.517-.54v3.48a1.33,1.33,0,0,1-.408,1.046A1.483,1.483,0,0,1,2485.37,593.2Zm-.462-13.79h.9q.11-.33.275-.771t.253-.661a1.336,1.336,0,0,1,.507-.683h-2.864a1.408,1.408,0,0,1,.209.209,1.026,1.026,0,0,1,.165.3,4.277,4.277,0,0,1,.176.452c.073.213.147.426.221.638A5.366,5.366,0,0,1,2484.907,579.406Zm5.022,13.5a1.744,1.744,0,0,1-1.245.066,1.322,1.322,0,0,1-.848-.793,1.282,1.282,0,0,1,.022-1.068,1.547,1.547,0,0,1,.815-.716,4.712,4.712,0,0,0,2.225-1.719,6.024,6.024,0,0,0,.859-2.908,2.111,2.111,0,0,1-1-1.134,5.874,5.874,0,0,1-.3-2.082v-5.529a5.629,5.629,0,0,1,.341-2.192,2.011,2.011,0,0,1,1.167-1.1,6.438,6.438,0,0,1,2.258-.319h1.608a6.422,6.422,0,0,1,2.269.319,2.013,2.013,0,0,1,1.156,1.1,5.642,5.642,0,0,1,.341,2.192v5.529a5.2,5.2,0,0,1-.419,2.357,2.148,2.148,0,0,1-1.476,1.058v3.547a.386.386,0,0,0,.089.3.515.515,0,0,0,.33.077.386.386,0,0,0,.342-.143,2.408,2.408,0,0,0,.231-.562,1.094,1.094,0,0,1,.583-.694,1.493,1.493,0,0,1,1.068-.077,1.313,1.313,0,0,1,.926,1.542,3.592,3.592,0,0,1-1,2.159,2.9,2.9,0,0,1-2.015.683h-.507a4.145,4.145,0,0,1-2.137-.419,1.866,1.866,0,0,1-.661-1.7v-4.516h-.573a8.5,8.5,0,0,1-1.322,4.3A6.579,6.579,0,0,1,2489.929,592.91Zm3.5-15.772h3.194a1.329,1.329,0,0,0-.209-.881,1.594,1.594,0,0,0-1.047-.22h-.683a1.6,1.6,0,0,0-1.035.22A1.275,1.275,0,0,0,2493.432,577.138Zm0,3.172h3.194V579.23h-3.194Zm1.256,3.238h.683q.837,0,1.047-.231a1.425,1.425,0,0,0,.209-.914h-3.194a1.418,1.418,0,0,0,.209.914Q2493.85,583.548,2494.687,583.548Z" transform="translate(-2479.77 -572.578)" fill="#de89a3"/>
      <path id="Path_135" data-name="Path 135" d="M2546.024,595.545a1.423,1.423,0,0,1-1.118.751,1.626,1.626,0,0,1-.886-.346l-.366-.251q-.925-.637-1.976-1.378t-2.1-1.494q-1.051-.752-1.976-1.426t-1.581-1.176a.362.362,0,0,0-.231-.1.416.416,0,0,0-.27.116q-.251.25-.742.733t-1.089,1.04l-1.117,1.08a1.5,1.5,0,0,1-1.041.52,1.769,1.769,0,0,1-1.079-.5l-.174-.155q-1.118-.964.019-1.869l.906-.752q.732-.578,1.465-1.176t1.311-1.06q.578-.463.829-.655a1.422,1.422,0,0,1,.713-.395l.27-.01a1.654,1.654,0,0,1,1,.4l1.195.819q.771.531,1.764,1.176l2.063,1.34q1.07.694,2.091,1.34t1.889,1.147l.077.058a1.369,1.369,0,0,1,.723.838,1.44,1.44,0,0,1-.357,1.07Z" transform="translate(-2506.798 -580.406)" fill="#de89a3"/>
      <path id="Path_136" data-name="Path 136" d="M2581.55,595.983a1.242,1.242,0,0,1-.424.077,1.173,1.173,0,0,1-1-.655,4.341,4.341,0,0,1-.4-.828.951.951,0,0,1-.029-.608.881.881,0,0,1,.385-.453,3.7,3.7,0,0,1,.819-.366,9.328,9.328,0,0,0,1.638-.732,5.553,5.553,0,0,0,2.063-1.966,4.717,4.717,0,0,0,.636-2.371,5.14,5.14,0,0,0-1.1-3.306,5.031,5.031,0,0,0-3.122-1.764,29.722,29.722,0,0,1-.781,4.569,20.8,20.8,0,0,1-1.32,3.758,9.256,9.256,0,0,1-1.687,2.544,2.68,2.68,0,0,1-1.9.926,3.168,3.168,0,0,1-1.619-.463,5.038,5.038,0,0,1-1.436-1.3,6.569,6.569,0,0,1-1.022-2,8.2,8.2,0,0,1-.375-2.544,8,8,0,0,1,.6-3.074,7.617,7.617,0,0,1,1.753-2.583,8.382,8.382,0,0,1,2.824-1.783,10.3,10.3,0,0,1,3.787-.655,9.424,9.424,0,0,1,3.624.646,7.653,7.653,0,0,1,2.621,1.744,7.475,7.475,0,0,1,1.6,2.467,7.6,7.6,0,0,1,.54,2.814v.058a7.2,7.2,0,0,1-1.947,5.108A10.525,10.525,0,0,1,2581.55,595.983Zm-6.418-4.452q.27,0,.694-.626a9.449,9.449,0,0,0,.877-1.774,23.5,23.5,0,0,0,.858-2.708,26.776,26.776,0,0,0,.636-3.431,5.4,5.4,0,0,0-2.515,1.1,5.272,5.272,0,0,0-1.513,1.966,5.818,5.818,0,0,0-.5,2.371,4.891,4.891,0,0,0,.443,2.246Q2574.553,591.531,2575.131,591.531Z" transform="translate(-2529.064 -576.816)" fill="#de89a3"/>
    </g>
  </g>
  <g id="Group_64" data-name="Group 64" transform="translate(1043.726 232.694)">
    <g id="Group_59" data-name="Group 59" transform="translate(70.535 2.301)">
      <path id="Path_137" data-name="Path 137" d="M2559.219,656.489a1.251,1.251,0,0,1-.428.078,1.183,1.183,0,0,1-1.012-.662,4.395,4.395,0,0,1-.408-.837.957.957,0,0,1-.029-.613.891.891,0,0,1,.389-.458,3.733,3.733,0,0,1,.827-.369,9.386,9.386,0,0,0,1.654-.739,5.6,5.6,0,0,0,2.082-1.984,4.767,4.767,0,0,0,.642-2.393,5.188,5.188,0,0,0-1.109-3.337,5.076,5.076,0,0,0-3.152-1.78,29.939,29.939,0,0,1-.788,4.611,20.936,20.936,0,0,1-1.333,3.794,9.344,9.344,0,0,1-1.7,2.568,2.707,2.707,0,0,1-1.917.934,3.192,3.192,0,0,1-1.634-.467,5.067,5.067,0,0,1-1.45-1.313,6.622,6.622,0,0,1-1.031-2.014,8.282,8.282,0,0,1-.379-2.568,8.09,8.09,0,0,1,.6-3.1,7.688,7.688,0,0,1,1.77-2.607,8.463,8.463,0,0,1,2.85-1.8,10.387,10.387,0,0,1,3.823-.661,9.523,9.523,0,0,1,3.658.652,7.715,7.715,0,0,1,2.646,1.761,7.556,7.556,0,0,1,1.615,2.491,7.681,7.681,0,0,1,.544,2.841v.058a7.266,7.266,0,0,1-1.965,5.156A10.624,10.624,0,0,1,2559.219,656.489Zm-6.479-4.494q.273,0,.7-.632a9.565,9.565,0,0,0,.885-1.79,23.578,23.578,0,0,0,.866-2.734,27.033,27.033,0,0,0,.643-3.463,5.45,5.45,0,0,0-2.54,1.109,5.324,5.324,0,0,0-1.527,1.984,5.879,5.879,0,0,0-.505,2.393,4.944,4.944,0,0,0,.447,2.267Q2552.156,651.994,2552.74,651.994Z" transform="translate(-2548.44 -637.244)" fill="#de89a3"/>
      <path id="Path_138" data-name="Path 138" d="M2591.777,642.288a1.3,1.3,0,0,1-.545-.867,1.176,1.176,0,0,1,.233-.978,9.221,9.221,0,0,0,1.19-2.079,8.147,8.147,0,0,0,.523-2.3,2.547,2.547,0,0,1,.689-1.69,3.012,3.012,0,0,1,1.8-.645q.889-.067,1.934-.234t1.8-.322a1.347,1.347,0,0,1,.978.144,1.053,1.053,0,0,1,.534.767,1.171,1.171,0,0,1-.145.912,1.156,1.156,0,0,1-.767.511q-.623.112-1.468.234t-1.534.167q-.735.067-.913.512h4.781a1.048,1.048,0,0,1,.823.322,1.222,1.222,0,0,1,0,1.579,1.047,1.047,0,0,1-.823.322h-1.156v.8a1.377,1.377,0,0,1-.434,1.079,1.629,1.629,0,0,1-2.112,0,1.376,1.376,0,0,1-.434-1.079v-.8h-1.112a10.005,10.005,0,0,1-.745,1.812,8.106,8.106,0,0,1-.968,1.457,1.788,1.788,0,0,1-1,.611A1.473,1.473,0,0,1,2591.777,642.288Zm3.046,11.607a1.829,1.829,0,0,1-1.268-.045,1.274,1.274,0,0,1-.712-.8,1.567,1.567,0,0,1,.034-1.089,1.152,1.152,0,0,1,.878-.667q.711-.178,1.723-.489t1.857-.645a2.8,2.8,0,0,1-1.968-.867,3.684,3.684,0,0,1-.567-2.29v-2.758a4.471,4.471,0,0,1,.345-1.945,1.954,1.954,0,0,1,1.145-.99,6.538,6.538,0,0,1,2.157-.289h2.936a1.082,1.082,0,0,1-.456-.844,1.1,1.1,0,0,1,.323-.89,4.983,4.983,0,0,0,.922-1.49,6.118,6.118,0,0,0,.367-1.824,2.279,2.279,0,0,1,.646-1.6,2.744,2.744,0,0,1,1.69-.622q.621-.045,1.378-.145t1.523-.234q.768-.133,1.368-.245a1.557,1.557,0,0,1,1.011.111.954.954,0,0,1,.545.734,1.361,1.361,0,0,1-.122.967,1.11,1.11,0,0,1-.812.522q-.756.156-1.745.278t-1.679.167a1.66,1.66,0,0,0-.6.156.74.74,0,0,0-.312.356h5.714a1.05,1.05,0,0,1,.823.322,1.223,1.223,0,0,1,0,1.579,1.048,1.048,0,0,1-.823.322h-1.956v.978a1.34,1.34,0,0,1-.434,1.067,1.666,1.666,0,0,1-2.112,0,1.34,1.34,0,0,1-.434-1.067v-.978h-1.267a6.781,6.781,0,0,1-.589,1.256,5.979,5.979,0,0,1-.767,1.012.327.327,0,0,0-.044.055.169.169,0,0,1-.067.055h2.113a6.521,6.521,0,0,1,2.168.289,1.955,1.955,0,0,1,1.134.99,4.479,4.479,0,0,1,.345,1.945V647a3.684,3.684,0,0,1-.567,2.29,2.8,2.8,0,0,1-1.968.867q.845.333,1.857.645t1.7.489a1.167,1.167,0,0,1,.9.667,1.568,1.568,0,0,1,.033,1.089,1.272,1.272,0,0,1-.711.8,1.829,1.829,0,0,1-1.267.045q-.69-.2-1.568-.523t-1.7-.678q-.823-.356-1.4-.622a1.137,1.137,0,0,1-.678-.767,1.449,1.449,0,0,1,.145-.967l.066-.134h-4.114l.067.134a1.449,1.449,0,0,1,.145.967,1.139,1.139,0,0,1-.678.767q-.557.266-1.39.622t-1.712.678Q2595.512,653.695,2594.823,653.9Zm3.2-7.961h7.983v-.578h-7.983Zm1.157,2.246h5.67a2.318,2.318,0,0,0,.878-.111q.233-.111.256-.534h-7.96a.6.6,0,0,0,.289.534A2.332,2.332,0,0,0,2599.182,648.18Zm-1.134-4.491h7.938c-.029-.281-.122-.456-.278-.523a2.471,2.471,0,0,0-.856-.1h-5.67a2.468,2.468,0,0,0-.856.1Q2598.092,643.267,2598.048,643.689Z" transform="translate(-2571.582 -633.09)" fill="#de89a3"/>
      <path id="Path_139" data-name="Path 139" d="M2645.413,654.587a1.562,1.562,0,0,1-1.1-.423,1.472,1.472,0,0,1-.456-1.134V637.688a3.383,3.383,0,0,1,.867-2.636,4.3,4.3,0,0,1,2.868-.766h1.667a4.3,4.3,0,0,1,2.869.766,3.385,3.385,0,0,1,.867,2.636v1.223a4,4,0,0,1-.378,1.923,2.025,2.025,0,0,1-1.2.945,7.178,7.178,0,0,1-2.157.267h-2.312V653.03a1.494,1.494,0,0,1-.444,1.134A1.526,1.526,0,0,1,2645.413,654.587Zm1.534-14.832h1.957a2.041,2.041,0,0,0,.867-.122q.222-.122.244-.611h-3.068Zm.022-2.49h3.024a.67.67,0,0,0-.245-.578,1.824,1.824,0,0,0-.845-.134h-.845a1.747,1.747,0,0,0-.833.134A.732.732,0,0,0,2646.969,637.265Zm6.471,13.719a7.42,7.42,0,0,1-2.646-.378,2.377,2.377,0,0,1-1.345-1.2,5.012,5.012,0,0,1-.389-2.135,4.937,4.937,0,0,1,.389-2.123,2.387,2.387,0,0,1,1.345-1.19,9.448,9.448,0,0,1,5.293,0,2.39,2.39,0,0,1,1.345,1.19,4.94,4.94,0,0,1,.39,2.123,5.015,5.015,0,0,1-.39,2.135,2.38,2.38,0,0,1-1.345,1.2A7.423,7.423,0,0,1,2653.439,650.985Zm0-2.513a1.68,1.68,0,0,0,1.023-.223,1.249,1.249,0,0,0,.267-.956,1.291,1.291,0,0,0-.267-.978,2.467,2.467,0,0,0-2.046,0,1.287,1.287,0,0,0-.267.978,1.246,1.246,0,0,0,.267.956A1.675,1.675,0,0,0,2653.439,648.472Zm6.382,6a1.765,1.765,0,0,1-1.245-.412,1.682,1.682,0,0,1-.511-1.123,1.454,1.454,0,0,1,.289-1.134,1.585,1.585,0,0,1,1.023-.6c.414-.074.667-.178.756-.311a1.311,1.311,0,0,0,.133-.69v-8.161h-2.38a7.176,7.176,0,0,1-2.156-.267,2.068,2.068,0,0,1-1.212-.945,3.892,3.892,0,0,1-.39-1.923v-1.2a3.394,3.394,0,0,1,.878-2.646,4.3,4.3,0,0,1,2.879-.778h1.713a4.3,4.3,0,0,1,2.879.778,3.4,3.4,0,0,1,.878,2.646V651.1a3.427,3.427,0,0,1-.845,2.569A3.782,3.782,0,0,1,2659.821,654.476Zm-2.691-17.211h3.113q-.023-.445-.256-.567a1.982,1.982,0,0,0-.834-.122h-.912a1.969,1.969,0,0,0-.845.122A.678.678,0,0,0,2657.13,637.265Zm1.112,2.49h2.023v-.733h-3.135c.029.326.119.53.267.611A1.963,1.963,0,0,0,2658.242,639.755Z" transform="translate(-2600.068 -633.737)" fill="#de89a3"/>
    </g>
    <g id="Group_60" data-name="Group 60" transform="translate(0 1.407)">
      <path id="Path_140" data-name="Path 140" d="M2442.6,633.356a7.636,7.636,0,0,0-10.752,0,1.432,1.432,0,1,1-2.778,0,7.378,7.378,0,0,0-5.293-2.214h-.083a7.367,7.367,0,0,0-5.376,2.213c-2.079,2.064-3.208,5.311-3.182,9.115-.026,3.834,1.1,7.083,3.185,9.147a7.375,7.375,0,0,0,5.286,2.211h.171a7.377,7.377,0,0,0,5.29-2.213,1.435,1.435,0,1,1,2.783,0,7.373,7.373,0,0,0,5.287,2.212h.172a7.376,7.376,0,0,0,5.289-2.213c2.077-2.062,3.207-5.3,3.183-9.13C2445.81,638.659,2444.681,635.417,2442.6,633.356Zm-14.427,9.143c.019,2.687-.7,4.955-1.978,6.222a3.327,3.327,0,0,1-2.472,1.028h-.059a3.266,3.266,0,0,1-2.47-1.027c-1.277-1.267-2-3.535-1.98-6.252-.019-2.687.7-4.954,1.978-6.221a3.344,3.344,0,0,1,2.421-1.029h.162a3.345,3.345,0,0,1,2.423,1.03c1.275,1.267,2,3.534,1.977,6.221v.029Zm13.531,0c.019,2.687-.7,4.955-1.978,6.222a3.333,3.333,0,0,1-2.471,1.028h-.06a3.273,3.273,0,0,1-2.471-1.028c-1.276-1.267-2-3.535-1.979-6.252-.019-2.686.7-4.954,1.977-6.22a3.344,3.344,0,0,1,2.421-1.03h.162a3.343,3.343,0,0,1,2.421,1.03c1.276,1.266,2,3.533,1.977,6.221v.029Z" transform="translate(-2405.779 -631.142)" fill="#de89a3"/>
      <path id="Path_141" data-name="Path 141" d="M2399.034,653.793h-.028a2.039,2.039,0,0,1-2.011-2.066l.2-14.684a2.039,2.039,0,0,1-1.361-3.8l2.494-1.313a2.039,2.039,0,0,1,2.988,1.832l-.241,18.022A2.04,2.04,0,0,1,2399.034,653.793Z" transform="translate(-2394.741 -631.44)" fill="#de89a3"/>
    </g>
    <g id="Group_63" data-name="Group 63" transform="translate(42.048)">
      <g id="Group_61" data-name="Group 61">
        <ellipse id="Ellipse_3" data-name="Ellipse 3" cx="12.75" cy="12.75" rx="12.75" ry="12.75" fill="#89c3eb"/>
      </g>
      <g id="Group_62" data-name="Group 62" transform="translate(2.978 5.995)">
        <path id="Path_142" data-name="Path 142" d="M2502.124,647.691h-1.948v-1.948a1.791,1.791,0,1,0-3.582,0v1.948h-1.948a1.791,1.791,0,1,0,0,3.583h1.948v1.948a1.791,1.791,0,1,0,3.582,0v-1.948h1.948a1.791,1.791,0,1,0,0-3.583Z" transform="translate(-2492.854 -642.662)" fill="#fff"/>
        <path id="Path_143" data-name="Path 143" d="M2523.048,641.4a1.794,1.794,0,0,0-1.76-.052l-2.424,1.276a1.791,1.791,0,0,0,1.466,3.261v6.976a1.792,1.792,0,0,0,3.583,0v-9.927A1.791,1.791,0,0,0,2523.048,641.4Z" transform="translate(-2506.41 -641.141)" fill="#fff"/>
      </g>
    </g>
  </g>
</svg>
