<svg xmlns="http://www.w3.org/2000/svg" xmlns:xlink="http://www.w3.org/1999/xlink" width="176.273" height="176.273" viewBox="0 0 176.273 176.273">
  <defs>
    <linearGradient id="linear-gradient" x1="0.5" y1="1.147" x2="0.5" y2="-0.028" gradientUnits="objectBoundingBox">
      <stop offset="0" stop-color="#fff"/>
      <stop offset="1" stop-color="#e7ecf9"/>
    </linearGradient>
    <linearGradient id="linear-gradient-2" x1="0.73" y1="0.338" x2="0.217" y2="0.617" gradientUnits="objectBoundingBox">
      <stop offset="0" stop-color="#70afdb"/>
      <stop offset="1" stop-color="#88c3eb"/>
    </linearGradient>
    <linearGradient id="linear-gradient-3" x1="1.035" y1="0.589" x2="0.109" y2="0.446" xlink:href="#linear-gradient-2"/>
    <linearGradient id="linear-gradient-4" x1="0.756" y1="0.636" x2="0.258" y2="0.333" xlink:href="#linear-gradient-2"/>
  </defs>
  <g id="Group_175" data-name="Group 175" transform="translate(-2139.154 -972.418)">
    <path id="Path_62" data-name="Path 62" d="M2315.428,1060.555a88.173,88.173,0,0,1-59.233,83.288q-2.134.742-4.319,1.37-3.872,1.129-7.882,1.9-3.306.636-6.7,1.017c-.232.028-.466.056-.7.078a89.118,89.118,0,0,1-9.309.487q-.874,0-1.749-.017a87.808,87.808,0,0,1-28.544-5.329q-3.231-1.182-6.338-2.606-1.314-.6-2.6-1.24l-1.47-.752a87.721,87.721,0,0,1-11.226-6.971q-2.22-1.616-4.326-3.369a88.137,88.137,0,1,1,144.388-67.852Z" transform="translate(0 0)" fill="#89c3eb"/>
    <g id="Group_23" data-name="Group 23" transform="translate(2145.218 978.483)">
      <path id="Path_63" data-name="Path 63" d="M2313.437,1064.629a82,82,0,0,1-38.063,69.287q-2.7,1.722-5.547,3.232a81.386,81.386,0,0,1-13.088,5.554q-2.106.686-4.265,1.256c-.151.043-.3.082-.454.121q-2.728.706-5.524,1.227a82.608,82.608,0,0,1-41.4-2.9q-2.092-.705-4.137-1.522c-.322-.129-.638-.256-.957-.388q-2.949-1.224-5.777-2.661t-5.512-3.078q-2.274-1.381-4.446-2.91a82.075,82.075,0,1,1,129.172-67.219Z" transform="translate(-2149.292 -982.557)" fill="url(#linear-gradient)"/>
      <g id="Group_22" data-name="Group 22" transform="translate(34.973 25.209)">
        <path id="Path_64" data-name="Path 64" d="M2296.017,1025.835a69.8,69.8,0,0,0,9.8.607,30.269,30.269,0,0,0,6.746-1.125s.752,6.3-2.705,9.738c-3.855,3.829-12.052,2.145-12.052,2.145Z" transform="translate(-2243.227 -1024.95)" fill="#03053e"/>
        <path id="Path_65" data-name="Path 65" d="M2285.737,1129.068h-18.779v-35.925h11.476Z" transform="translate(-2231.55 -1052.206)" fill="#edba8e"/>
        <path id="Path_66" data-name="Path 66" d="M2293.914,1049.806c3.174,14.747.829,29.616-8.074,32.841-8.351,3.025-22.841-4.976-29.471-19.554-6.98-15.348-3.572-26.818,8.792-31.09C2278.294,1027.466,2290.434,1033.643,2293.914,1049.806Z" transform="translate(-2225.858 -1027.055)" fill="#f1c8a9"/>
        <path id="Path_67" data-name="Path 67" d="M2298.927,1025.07c-11.532,6.126-19.49-1.359-31.677-.253-15.576,1.413-23.026,16.722-18.638,30.84,2.1,6.766,7.092,12.136,10.22,12.8-1.035-6.74,2.843-12.013,7.936-12.793,3.248-.5,8.263-13.033,13.148-14,1.831-.361,11.628,1.816,15.9-3.073C2300.226,1033.536,2298.927,1025.07,2298.927,1025.07Z" transform="translate(-2223.677 -1024.703)" fill="#03053e"/>
        <ellipse id="Ellipse_2" data-name="Ellipse 2" cx="4.352" cy="5.223" rx="4.352" ry="5.223" transform="translate(34.179 30.603) rotate(-24.147)" fill="#f1c8a9"/>
        <path id="Path_68" data-name="Path 68" d="M2292.34,1170.188l26.61,38.03a81.384,81.384,0,0,1-13.087,5.554l-6.82-8.869-1.678-2.177-15.146-19.7-3.45-4.485-2.328-3.025-4.907-6.377,7.284-5.347,2.956-2.17.651-.477,2.371-1.74,1.516,2.167,3.1,4.426,2.529,3.614Z" transform="translate(-2233.389 -1078.835)" fill="#edba8e"/>
        <path id="Path_69" data-name="Path 69" d="M2321.589,1206.316q-2.7,1.722-5.548,3.232a81.387,81.387,0,0,1-13.088,5.554q-2.106.686-4.265,1.256c-.152.043-.3.082-.454.121q-2.727.706-5.524,1.227a164.671,164.671,0,0,1-20.583-24.821c-1.25-1.868-2.384-3.676-3.391-5.4a57.055,57.055,0,0,1-4.041-8.126c-1.957-5.126,3.541-12.117,10.236-15.143a17.5,17.5,0,0,1,3.933-1.262c.323-.059.648-.109.97-.145a11.775,11.775,0,0,1,3.555.092s.01,0,.013,0a12.384,12.384,0,0,1,5,2.664c.065.05.128.1.194.155C2298.146,1173.369,2311.592,1194.31,2321.589,1206.316Z" transform="translate(-2230.48 -1080.166)" fill="url(#linear-gradient-2)"/>
        <path id="Path_70" data-name="Path 70" d="M2286.087,1210.051q-2.728.706-5.524,1.227a82.608,82.608,0,0,1-41.4-2.9q-2.091-.705-4.136-1.522c-.323-.129-.638-.256-.957-.388a311,311,0,0,1,11.862-36.663c2.384-6.173,4.942-12.358,7.625-18.528q.142-.34.3-.68.844-1.938,1.7-3.877a22.826,22.826,0,0,0,6.919,3.877,14.981,14.981,0,0,0,12.429-.8c.119-.062.237-.132.355-.2,0,0,.033.325.089.927,0,.043.007.083.013.125s.01.109.016.165c.155,1.565.457,4.538.881,8.326.184,1.655.395,3.463.625,5.376,1.269,10.536,3.19,24.3,5.426,33.112.24.94.48,1.822.727,2.641C2283.821,1202.886,2284.88,1206.266,2286.087,1210.051Z" transform="translate(-2218.332 -1073.736)" fill="#d9c4ad"/>
        <path id="Path_71" data-name="Path 71" d="M2282.659,1207.945c-.152.043-.3.082-.454.122q-2.727.706-5.524,1.227a82.606,82.606,0,0,1-41.4-2.9q-2.092-.705-4.137-1.522c-.323-.129-.638-.257-.957-.388q-2.95-1.224-5.778-2.66c1.43-6.346,3.14-12.387,4.978-18.02a223.65,223.65,0,0,1,10.81-26.939,164.438,164.438,0,0,1,8.07-15.081q.769.588,1.594,1.1c6.117,3.815,14.311,4.7,18.607,4.883,1.2.056,2.091.056,2.555.046.23,0,.355-.007.355-.007.03.243.056.49.089.733,0,.043.006.083.013.125s.01.109.016.165q.5,4.291,1.075,8.481.4,2.92.832,5.794c1.822,12.17,4.074,23.713,6.7,34.716Q2281.328,1202.96,2282.659,1207.945Z" transform="translate(-2214.451 -1071.752)" fill="url(#linear-gradient-3)"/>
        <path id="Path_72" data-name="Path 72" d="M2263.658,1170.812l-5.6,5.784q-.972,1-1.934,2.016-3.585,3.743-7.123,7.613c-3.66,4.008-7.264,8.093-10.752,12.2-3.167,3.746-6.258,7.54-9.175,11.395q-.829,1.095-1.638,2.2c-.322-.128-.638-.257-.957-.388q-2.949-1.224-5.778-2.66t-5.512-3.078c.881-1.378,1.779-2.733,2.69-4.078,2.521-3.719,5.132-7.32,7.8-10.865q.612-.814,1.23-1.625c3.736-4.887,7.528-9.652,11.431-14.357q3.882-4.692,7.931-9.329l5.292-6.064,3.634,3.377.977.907Z" transform="translate(-2210.748 -1078.904)" fill="#f1c8a9"/>
        <path id="Path_73" data-name="Path 73" d="M2261.947,1169.816c-.056,2.729-2.134,6.455-5.356,10.721-2.016,2.67-4.482,5.551-7.182,8.526-6.6,7.284-14.6,15.143-20.819,21.921q-2.091-.705-4.136-1.522c-.323-.128-.638-.256-.958-.388q-2.949-1.224-5.777-2.661t-5.512-3.078q-2.274-1.381-4.445-2.91c7.527-14.3,16.257-29.273,25.745-38.971a44.359,44.359,0,0,1,9.142-7.389c.108-.066.22-.125.335-.181,3.9-1.957,9.668.526,13.815,4.772.108.108.214.22.319.332C2260,1162.061,2262.023,1165.991,2261.947,1169.816Z" transform="translate(-2207.761 -1076.342)" fill="url(#linear-gradient-4)"/>
      </g>
    </g>
  </g>
</svg>
