<svg xmlns="http://www.w3.org/2000/svg" xmlns:xlink="http://www.w3.org/1999/xlink" width="176.273" height="176.273" viewBox="0 0 176.273 176.273">
  <defs>
    <linearGradient id="linear-gradient" x1="17.971" y1="1.174" x2="17.971" gradientUnits="objectBoundingBox">
      <stop offset="0" stop-color="#fff"/>
      <stop offset="1" stop-color="#e7ecf9"/>
    </linearGradient>
    <linearGradient id="linear-gradient-2" x1="89.433" y1="0.433" x2="89.854" y2="0.484" gradientUnits="objectBoundingBox">
      <stop offset="0" stop-color="#70afdb"/>
      <stop offset="1" stop-color="#88c3eb"/>
    </linearGradient>
    <linearGradient id="linear-gradient-3" x1="53.56" y1="0.449" x2="52.769" y2="0.593" xlink:href="#linear-gradient-2"/>
    <linearGradient id="linear-gradient-4" x1="98.634" y1="0.589" x2="99.452" y2="0.381" xlink:href="#linear-gradient-2"/>
  </defs>
  <g id="Group_180" data-name="Group 180" transform="translate(0)">
    <path id="Path_14" data-name="Path 14" d="M1815.249,1060.555a88.172,88.172,0,0,0,59.232,83.288q2.134.742,4.319,1.37,3.872,1.129,7.882,1.9,3.305.636,6.7,1.017c.233.028.466.056.7.078a89.167,89.167,0,0,0,9.308.487q.875,0,1.748-.017a87.8,87.8,0,0,0,28.545-5.329q3.231-1.182,6.338-2.606,1.314-.6,2.6-1.24l1.469-.752a87.717,87.717,0,0,0,11.226-6.971q2.22-1.616,4.326-3.369a88.137,88.137,0,1,0-144.388-67.852Z" transform="translate(-1815.249 -972.418)" fill="#88c3eb"/>
    <g id="Group_11" data-name="Group 11" transform="translate(6.064 6.065)">
      <path id="Path_15" data-name="Path 15" d="M1989.532,1064.63a82.1,82.1,0,0,1-61.141,79.376q-1.1.291-2.2.549c-.519.122-1.042.24-1.568.349a81.267,81.267,0,0,1-10.714,1.548q-3.191.247-6.446.25a82.645,82.645,0,0,1-14.416-1.263,81.049,81.049,0,0,1-13.9-3.755q-2.353-.863-4.633-1.868-1.554-.676-3.074-1.424a82.08,82.08,0,1,1,118.1-73.763Z" transform="translate(-1825.387 -982.557)" fill="url(#linear-gradient)"/>
      <g id="Group_10" data-name="Group 10" transform="translate(46.048 27.114)">
        <path id="Path_16" data-name="Path 16" d="M1972.618,1138.3H1953.1V1100.97h11.926Z" transform="translate(-1930.913 -1057.257)" fill="#edba8e"/>
        <path id="Path_17" data-name="Path 17" d="M1969.4,1055.935c3.3,15.324.861,30.776-8.39,34.128-8.678,3.144-23.737-5.171-30.626-20.321-7.253-15.949-3.711-27.869,9.137-32.308C1953.172,1032.719,1965.788,1039.138,1969.4,1055.935Z" transform="translate(-1913.288 -1031.12)" fill="#f1c8a9"/>
        <path id="Path_18" data-name="Path 18" d="M1937.47,1076.463l2.058-.842s-.8-7.25.519-9.11c1.7-2.386,10.235-2.138,10.235-2.138s.325-8.1,3.552-10.27c2.864-1.927,14.742-3.235,19.356-.849,0,0,2.051-7.76-1.438-14.741-3.847-7.7-10.794-10.128-19.467-10.559s-17.925,1.077-19.853,10.775c0,0-7.421,1.616-7.421,11.852S1937.47,1076.463,1937.47,1076.463Z" transform="translate(-1915.279 -1027.888)" fill="#03053e"/>
        <ellipse id="Ellipse_1" data-name="Ellipse 1" cx="5.091" cy="4.242" rx="5.091" ry="4.242" transform="translate(25.762 43.488) rotate(-114.146)" fill="#f1c8a9"/>
        <path id="Path_19" data-name="Path 19" d="M1954.032,1218.993a81.258,81.258,0,0,1-10.714,1.549c-1.348-3.449-2.611-6.906-3.824-10.372l-.276-.786c-1.483-4.3-2.9-8.586-4.251-12.894q-.972-3.088-1.9-6.192-1.682-5.594-3.242-11.289l-1.47-5.341-.52-1.894-.227-.829,5.916-1.427,10.76-2.594,1.059,4.824.737,3.344c.072.329.145.654.217.983q.938,4.227,1.967,8.484c1.47,6.1,3.072,12.217,4.782,18.238.187.664.378,1.328.569,1.989,1.309,4.488,2.687,8.945,4.193,13.308q-1.1.291-2.2.549C1955.081,1218.766,1954.558,1218.884,1954.032,1218.993Z" transform="translate(-1900.848 -1083.761)" fill="#edba8e"/>
        <path id="Path_20" data-name="Path 20" d="M1944.537,1212.957s-25.836-27.76-7.831-38.713,25.632,29.024,25.632,29.024Z" transform="translate(-1907.01 -1085.939)" fill="url(#linear-gradient-2)"/>
        <path id="Path_21" data-name="Path 21" d="M1984.021,1213.9a81.282,81.282,0,0,1-10.714,1.549q-3.191.247-6.445.25a82.674,82.674,0,0,1-14.417-1.263,81.061,81.061,0,0,1-13.9-3.755q-2.353-.863-4.633-1.868c1.884-6.682,4.061-13.424,6.468-20.2,2.661-7.481,5.6-15,8.747-22.516q1.9-4.553,3.9-9.1c.368-.845.743-1.69,1.118-2.536.029-.069.062-.141.092-.211,0,0,.148.155.424.408a23.518,23.518,0,0,0,8.474,5.054,13.727,13.727,0,0,0,8.777,0c.194-.066.391-.138.585-.217a13.938,13.938,0,0,0,1.9-.931s.339,3.2.934,8.09c.142,1.148.293,2.387.46,3.7,1.056,8.3,2.631,19.536,4.472,28.856.8,4.061,1.654,7.76,2.532,10.691C1983.153,1211.092,1983.567,1212.436,1984.021,1213.9Z" transform="translate(-1930.838 -1078.668)" fill="#75d1f2"/>
        <path id="Path_22" data-name="Path 22" d="M1984.474,1212.139a81.284,81.284,0,0,1-10.714,1.549q-3.192.247-6.446.25a82.647,82.647,0,0,1-14.416-1.263,81.049,81.049,0,0,1-13.9-3.755q-2.353-.863-4.633-1.868-1.554-.675-3.074-1.424a382.217,382.217,0,0,1,18.047-55.759,21.7,21.7,0,0,0,4.144,2.364c.368.164.739.322,1.118.467.171.069.345.135.516.2,6.2,2.325,13.479,2.887,17.465,3.009,1.842.06,2.979.023,2.979.023q.869,7.32,1.943,14.348.572,3.753,1.2,7.428,1.647,9.683,3.67,18.843,1.711,7.794,3.67,15.242C1985.523,1211.913,1985,1212.031,1984.474,1212.139Z" transform="translate(-1931.29 -1076.908)" fill="url(#linear-gradient-3)"/>
        <path id="Path_23" data-name="Path 23" d="M1981.239,1174.466l8.58,2.825-2.851,7.863-2.591,7.146-3.262,8.987-2.647,7.287-4.7,12.956a81.07,81.07,0,0,1-13.9-3.755l3.809-12.841,7.412-25.012,2.374-8.017,5.682,1.871Z" transform="translate(-1952.159 -1085.763)" fill="#f1c8a9"/>
        <path id="Path_24" data-name="Path 24" d="M1958.714,1203.128s-.368-37.92,20.315-33.872-.636,38.717-.636,38.717Z" transform="translate(-1949.71 -1084.577)" fill="url(#linear-gradient-4)"/>
      </g>
    </g>
  </g>
</svg>
