<svg id="Group_179" data-name="Group 179" xmlns="http://www.w3.org/2000/svg" xmlns:xlink="http://www.w3.org/1999/xlink" width="176.273" height="176.273" viewBox="0 0 176.273 176.273">
  <defs>
    <linearGradient id="linear-gradient" x1="0.5" y1="1.174" x2="0.5" gradientUnits="objectBoundingBox">
      <stop offset="0" stop-color="#fff"/>
      <stop offset="1" stop-color="#e7ecf9"/>
    </linearGradient>
    <linearGradient id="linear-gradient-2" x1="0.204" y1="0.42" x2="0.572" y2="0.499" gradientUnits="objectBoundingBox">
      <stop offset="0" stop-color="#70afdb"/>
      <stop offset="1" stop-color="#88c3eb"/>
    </linearGradient>
    <linearGradient id="linear-gradient-3" x1="0.033" y1="0.475" x2="0.5" y2="0.507" xlink:href="#linear-gradient-2"/>
    <linearGradient id="linear-gradient-4" x1="0.5" y1="0" x2="0.5" y2="1" xlink:href="#linear-gradient-2"/>
    <linearGradient id="linear-gradient-5" x1="0.235" y1="0.595" x2="0.67" y2="0.297" xlink:href="#linear-gradient-2"/>
  </defs>
  <path id="Path_25" data-name="Path 25" d="M1507.837,1060.555a88.173,88.173,0,0,0,59.233,83.288q2.135.742,4.318,1.37,3.872,1.129,7.882,1.9,3.305.636,6.7,1.017c.233.028.466.056.7.078a89.1,89.1,0,0,0,9.308.487q.875,0,1.748-.017a87.794,87.794,0,0,0,28.545-5.329q3.231-1.182,6.339-2.606,1.313-.6,2.6-1.24l1.47-.752a87.724,87.724,0,0,0,11.226-6.971q2.22-1.616,4.326-3.369a88.137,88.137,0,1,0-144.388-67.852Z" transform="translate(-1507.837 -972.418)" fill="#70afdb"/>
  <g id="Group_14" data-name="Group 14" transform="translate(6.064 6.065)">
    <path id="Path_26" data-name="Path 26" d="M1517.975,1064.63a82.106,82.106,0,0,0,55.156,77.557q1.988.69,4.022,1.276,3.606,1.051,7.34,1.766,3.078.592,6.235.947c.217.026.434.052.651.072a83.011,83.011,0,0,0,8.668.453c.543,0,1.086-.007,1.628-.016a81.76,81.76,0,0,0,26.58-4.962q3.009-1.1,5.9-2.427,1.223-.557,2.42-1.154l1.368-.7a81.742,81.742,0,0,0,10.454-6.492q2.067-1.5,4.028-3.137a82.073,82.073,0,1,0-134.454-63.183Z" transform="translate(-1517.975 -982.557)" fill="url(#linear-gradient)"/>
    <g id="Group_13" data-name="Group 13" transform="translate(55.156 25.509)">
      <path id="Path_27" data-name="Path 27" d="M1622.307,1093.4l33.416-1.987c9.611-19.383,12.92-34.217,10.586-49.4-2.5-16.281-22.838-22.647-37.871-10.459C1614.036,1043.233,1616.884,1084.726,1622.307,1093.4Z" transform="translate(-1617.801 -1025.204)" fill="#03053e"/>
      <path id="Path_28" data-name="Path 28" d="M1633.552,1129.133l18.745-1.115-2.132-35.861-11.456.681Z" transform="translate(-1612.44 -1052.11)" fill="#edba8e"/>
      <path id="Path_29" data-name="Path 29" d="M1625.528,1051.291c-2.293,14.909.931,29.613,10.009,32.3,8.516,2.524,22.506-6.323,28.259-21.269,6.057-15.735,1.974-26.983-10.622-30.513C1639.793,1028.063,1628.042,1034.949,1625.528,1051.291Z" transform="translate(-1621.472 -1027.459)" fill="#f1c8a9"/>
      <path id="Path_30" data-name="Path 30" d="M1611.388,1026.14c4.262-.253,7.205-.045,10.948,1.62,6.016,2.677,14.143,9.443,16.647,25.724,2.334,15.18-3.335,23.014,10.562,36.637l-33.416,1.988c-4.948-7.913,1.706-26.718,2.912-29.959-1.115-3.021-2.521-6.323-7.587-7.387-10.868-2.281-20.336-11.877-20.529-15.137S1599.977,1026.819,1611.388,1026.14Z" transform="translate(-1584.188 -1025.544)" fill="#03053e"/>
      <path id="Path_31" data-name="Path 31" d="M1638.024,1075.625c-.958,2.53-.026,5.228,2.083,6.027s4.595-.605,5.552-3.135.026-5.228-2.083-6.027S1638.982,1073.095,1638.024,1075.625Z" transform="translate(-1608.628 -1044.116)" fill="#f1c8a9"/>
      <path id="Path_32" data-name="Path 32" d="M1629.178,1216.737q3.606,1.051,7.34,1.766,3.078.592,6.235.948c.217.026.434.052.651.072,2.671-4.417,5.14-8.879,7.531-13.371,3.164-5.989,6.149-11.977,9.024-18.07q1.416-3,2.8-6.044.8-1.771,1.6-3.561l3.272-7.353-7.514-3.065-7.764-3.164-1.868,4.847-1.026,2.664q-.676,1.761-1.371,3.522c-2.6,6.6-5.406,13.233-8.346,19.734q-.908,2.007-1.832,4c-2.088,4.456-4.249,8.872-6.551,13.141Q1630.293,1214.789,1629.178,1216.737Z" transform="translate(-1625.156 -1081.34)" fill="#edba8e"/>
      <path id="Path_33" data-name="Path 33" d="M1626.106,1210.374q1.988.69,4.022,1.276,3.606,1.051,7.34,1.766,3.078.592,6.235.948c.217.026.434.052.651.072a83.011,83.011,0,0,0,8.668.453c.543,0,1.086-.007,1.628-.016a217.453,217.453,0,0,0,10.789-25.475c.931-2.716,1.766-5.41,2.476-8.034,2.286-8.432,3.269-16.156,1.821-21.586a12.02,12.02,0,0,0-1.755-3.913,8.84,8.84,0,0,0-3.825-3.091,6.579,6.579,0,0,0-1.375-.421h-.013a6.5,6.5,0,0,0-3.2.191h-.007a8.853,8.853,0,0,0-1.723.719,22.887,22.887,0,0,0-6.83,6.465c-.417.546-.829,1.118-1.243,1.71a104.44,104.44,0,0,0-7.159,12.358C1636.379,1186.131,1630.664,1200.975,1626.106,1210.374Z" transform="translate(-1626.106 -1076.252)" fill="url(#linear-gradient-2)"/>
      <path id="Path_34" data-name="Path 34" d="M1598.159,1210.072q3.078.592,6.235.947c.217.026.434.052.651.072a83.009,83.009,0,0,0,8.668.453c.543,0,1.086-.007,1.628-.016a81.757,81.757,0,0,0,26.58-4.962q3.009-1.1,5.9-2.427-.553-2.88-1.187-5.679a214.589,214.589,0,0,0-12.424-37.748c-1.075-2.47-2.1-4.7-3.038-6.679-2.213-4.64-3.96-7.846-4.762-9.277v-.007a0,0,0,0,0,0,0c-.309-.546-.48-.831-.48-.831-4.394,3.68-10.536,5.051-14.94,5.554-1.16.135-2.2.208-3.052.247-1.519.069-2.456.029-2.456.029-.74,7.057-1.453,13.959-2.184,20.707q-.922,8.559-1.917,16.778C1600.422,1195.084,1599.373,1202.7,1598.159,1210.072Z" transform="translate(-1586.798 -1072.909)" fill="url(#linear-gradient-3)"/>
      <path id="Path_35" data-name="Path 35" d="M1591.826,1210.4c.217.026.434.052.651.072a83.011,83.011,0,0,0,8.668.453c.543,0,1.086-.007,1.628-.016a81.757,81.757,0,0,0,26.58-4.962q3.009-1.1,5.9-2.427,1.223-.557,2.42-1.154l1.368-.7c-3.065-11.589-6.685-23.3-10.368-33.4-1.329-3.64-2.664-7.077-3.989-10.224-2.878-6.857-5.7-12.355-8.211-15.663l-2.7.7-15.268,3.96s-.026.635-.089,1.815c0,.092-.01.184-.013.283-.1,1.782-.26,4.643-.519,8.343-.191,2.713-.431,5.88-.73,9.4C1596.157,1178.611,1594.493,1194.29,1591.826,1210.4Z" transform="translate(-1574.229 -1072.291)" fill="url(#linear-gradient-4)"/>
      <path id="Path_36" data-name="Path 36" d="M1608.578,1209.572q-1.766-2.279-3.607-4.525-2.457-3.019-5.015-5.989c-4.206-4.883-8.58-9.73-13.016-14.452q-2.1-2.225-4.209-4.413-1.366-1.421-2.746-2.825l-5.636-5.742,5.742-5.413,6.271-5.91,2.4,2.716,2.93,3.312.855.967q3.582,4.07,7.031,8.169c3.975,4.722,7.843,9.5,11.651,14.41,3.12,4.045,6.179,8.159,9.119,12.424.017.026.036.053.053.079a81.759,81.759,0,0,1-10.454,6.492Z" transform="translate(-1545.131 -1079.495)" fill="#f1c8a9"/>
      <path id="Path_37" data-name="Path 37" d="M1568.113,1165.28c1.279,5.182,4.906,11.6,9.474,18.339,1.434,2.111,2.959,4.256,4.531,6.4,5.252,7.159,11.052,14.347,15.791,20.513q3.009-1.1,5.9-2.427,1.223-.557,2.42-1.154l1.368-.7a81.746,81.746,0,0,0,10.454-6.492q2.067-1.5,4.028-3.137c-7.488-11.056-18.405-25.074-28.839-34a59.907,59.907,0,0,0-6.08-4.624q-1.268-.829-2.5-1.513c-3.667-2.025-7.113-3.032-10.141-2.6a8.811,8.811,0,0,0-4.308,1.842,6.684,6.684,0,0,0-2.522,4.624A13.654,13.654,0,0,0,1568.113,1165.28Z" transform="translate(-1542.786 -1076.877)" fill="url(#linear-gradient-5)"/>
    </g>
  </g>
</svg>
