<svg xmlns="http://www.w3.org/2000/svg" xmlns:xlink="http://www.w3.org/1999/xlink" width="176.274" height="176.273" viewBox="0 0 176.274 176.273">
  <defs>
    <linearGradient id="linear-gradient" x1="0.5" y1="1.174" x2="0.5" gradientUnits="objectBoundingBox">
      <stop offset="0" stop-color="#fff"/>
      <stop offset="1" stop-color="#e7ecf9"/>
    </linearGradient>
    <linearGradient id="linear-gradient-2" x1="0.073" y1="0.347" x2="0.464" y2="0.463" gradientUnits="objectBoundingBox">
      <stop offset="0" stop-color="#70afdb"/>
      <stop offset="1" stop-color="#88c3eb"/>
    </linearGradient>
    <linearGradient id="linear-gradient-3" x1="-0.043" y1="0.594" x2="0.874" y2="0.454" xlink:href="#linear-gradient-2"/>
    <linearGradient id="linear-gradient-4" x1="-0.107" y1="0.561" x2="0.915" y2="0.442" xlink:href="#linear-gradient-2"/>
  </defs>
  <g id="Group_176" data-name="Group 176" transform="translate(-2446.566 -972.418)">
    <path id="Path_50" data-name="Path 50" d="M2622.84,1060.555a88.173,88.173,0,0,1-59.232,83.288q-2.135.742-4.319,1.37-3.872,1.128-7.882,1.9-3.305.636-6.7,1.017c-.233.028-.466.056-.7.078a89.125,89.125,0,0,1-9.309.487q-.874,0-1.748-.017a87.793,87.793,0,0,1-28.544-5.329q-3.231-1.182-6.339-2.606-1.314-.6-2.6-1.24l-1.469-.752a87.733,87.733,0,0,1-11.226-6.971q-2.22-1.616-4.326-3.369a88.137,88.137,0,1,1,144.389-67.852Z" transform="translate(0 0)" fill="#88c3eb"/>
    <g id="Group_20" data-name="Group 20" transform="translate(2452.63 978.483)">
      <path id="Path_51" data-name="Path 51" d="M2620.849,1064.63a82.082,82.082,0,0,1-49.921,75.531,81.292,81.292,0,0,1-17.626,5.258,81.885,81.885,0,0,1-13.321,1.273q-.6.01-1.2.01c-1.47,0-2.927-.039-4.377-.115-.2-.01-.4-.02-.6-.036a81.339,81.339,0,0,1-11.372-1.476c-.6-.122-1.2-.25-1.8-.385a80.794,80.794,0,0,1-13.552-4.338q-1.618-.671-3.2-1.414a82.081,82.081,0,1,1,116.966-74.308Z" transform="translate(-2456.704 -982.557)" fill="url(#linear-gradient)"/>
      <g id="Group_19" data-name="Group 19" transform="translate(47.179 17.193)">
        <path id="Path_52" data-name="Path 52" d="M2582.121,1137.988l17.7-1.246-2.384-33.854-10.815.761Z" transform="translate(-2554.283 -1048.106)" fill="#edba8e"/>
        <path id="Path_53" data-name="Path 53" d="M2553.879,1064.718c-2.013,14.107,1.184,27.964,9.787,30.412,8.07,2.3,21.2-6.205,26.476-20.383,5.559-14.927,1.586-25.51-10.348-28.715C2567.115,1042.628,2556.085,1049.254,2553.879,1064.718Z" transform="translate(-2542.7 -1024.907)" fill="#f1c8a9"/>
        <path id="Path_54" data-name="Path 54" d="M2577.559,1066.964c-1.673-5.63-6.751-8.03-10.707-9.3s-10.88-.781-11.1-3.858,3.612-13.562,20.731-13.058c15.5.455,23.18,10.74,24.762,22.227,1.384,10.05-6.3,19.739-13.487,16.783S2579.585,1073.781,2577.559,1066.964Z" transform="translate(-2543.684 -1023.128)" fill="#03053e"/>
        <path id="Path_55" data-name="Path 55" d="M2591.795,1090.167c-.857,2.407.074,4.939,2.081,5.654s4.328-.659,5.185-3.066-.073-4.939-2.08-5.654S2592.653,1087.759,2591.795,1090.167Z" transform="translate(-2558.042 -1041.686)" fill="#f1c8a9"/>
        <path id="Path_56" data-name="Path 56" d="M2594.968,1014.787c-3.766,5.89-2.327,16.7,4.984,21.375s17.727,1.446,21.494-4.444-1.261-11.087-8.573-15.762S2598.734,1008.9,2594.968,1014.787Z" transform="translate(-2558.636 -1011.301)" fill="#03053e"/>
        <path id="Path_57" data-name="Path 57" d="M2587.031,1185.016l-2.085,2.367-2.936,3.338-10.487,11.923-4.551,5.173-10.839,12.325-1.657,1.888a80.794,80.794,0,0,1-13.552-4.338l14.157-17.666,11.207-13.982,3.042-3.8,1.042-1.3,2.41-3.009,1.68-2.1.662-.822.829.7,1.358,1.141h0l7.363,6.185Z" transform="translate(-2537.728 -1077.091)" fill="#edba8e"/>
        <path id="Path_58" data-name="Path 58" d="M2590.063,1194.229a58.722,58.722,0,0,1-6.268,10.418,140.355,140.355,0,0,1-12.723,15c-1.618,1.674-3.295,3.331-5.015,4.953-.184.178-.371.352-.559.526a81.339,81.339,0,0,1-11.372-1.476c-.6-.122-1.2-.25-1.8-.385a80.783,80.783,0,0,1-13.552-4.338q-1.618-.671-3.2-1.414c5.153-5.571,11.375-13.584,17.472-20.931a150.768,150.768,0,0,1,11.4-12.608q1.306-1.248,2.542-2.263a23.217,23.217,0,0,1,3.64-2.538,8.394,8.394,0,0,1,2.756-.993,10.248,10.248,0,0,1,1.772-.092h0a15.157,15.157,0,0,1,7.12,2.266C2587.84,1183.646,2591.97,1189.835,2590.063,1194.229Z" transform="translate(-2535.58 -1078.323)" fill="url(#linear-gradient-2)"/>
        <path id="Path_59" data-name="Path 59" d="M2614.283,1207.519a81.292,81.292,0,0,1-17.626,5.258,81.888,81.888,0,0,1-13.321,1.273q-.6.01-1.2.01-2.205,0-4.377-.115c-.2-.01-.4-.02-.6-.036a81.342,81.342,0,0,1-11.372-1.476c-.042-.757-.092-1.513-.141-2.272-.434-6.6-1.062-13.308-1.052-20.115,0-1.555.039-3.114.118-4.679.49-9.731,2.657-19.645,8.875-29.678,0,0,.615.023,1.661,0,3.338-.066,11.082-.562,17.271-3.585a20.445,20.445,0,0,0,3.212-1.93C2602.524,1160.853,2609.923,1182.987,2614.283,1207.519Z" transform="translate(-2547.239 -1067.108)" fill="url(#linear-gradient-3)"/>
        <path id="Path_60" data-name="Path 60" d="M2605.8,1222.761a81.885,81.885,0,0,1-13.321,1.273l-.605-5.62-1.7-15.768-2.016-18.757-.177-1.641-.188-1.769-.448-4.15,5.768-.49,1.49-.125,8.228-.7.253,4.1.217,3.482.026.437.27,4.344,1,16.031Z" transform="translate(-2556.385 -1077.091)" fill="#f1c8a9"/>
        <path id="Path_61" data-name="Path 61" d="M2613.579,1218.59a81.068,81.068,0,0,1-9.48,2.286,81.888,81.888,0,0,1-13.321,1.273q-.6.01-1.2.01-2.205,0-4.377-.115c-.01-.188-.026-.375-.04-.562-.361-4.956-.832-10.293-1.233-15.548a174.255,174.255,0,0,1-.684-21.772c.072-1.174.174-2.279.313-3.3.384-2.862,1.048-5.088,2.094-6.413,5.568-7.047,21.277-4.295,23.809,2.575C2612.54,1185.387,2614.441,1202.119,2613.579,1218.59Z" transform="translate(-2554.68 -1075.206)" fill="url(#linear-gradient-4)"/>
      </g>
    </g>
  </g>
</svg>
